<svg width="62" height="62" viewBox="0 0 62 62" fill="none" xmlns="http://www.w3.org/2000/svg">
<path d="M10.5209 18.8048L20.8528 29.1367C23.198 27.2606 26.0464 26.0413 29.1836 25.6883V11.0655C22.0391 11.4842 15.5521 14.3291 10.5209 18.8048ZM7.95235 21.3733C3.09806 26.83 0 33.9915 0 41.8524C0 42.8564 0.812418 43.6688 1.81641 43.6688H12.8359C13.8399 43.6688 14.6523 42.8564 14.6523 41.8524C14.6523 38.0001 16.047 34.5022 18.2843 31.7053L7.95235 21.3733ZM45.0345 27.6495C44.4225 27.1156 43.5356 27.0464 42.8598 27.4845L27.0958 37.5403C24.9902 38.8848 23.7344 41.1748 23.7344 43.6688C23.7344 47.6759 26.9929 50.9345 31 50.9345C33.8169 50.9345 36.4031 49.2848 37.588 46.7323L45.4833 29.7816C45.6491 29.4254 45.695 29.0252 45.6141 28.6407C45.5332 28.2563 45.3298 27.9085 45.0345 27.6495ZM54.0477 21.3733L48.7089 26.7121C49.3812 28.1472 49.4696 29.8271 48.7756 31.3158L46.3871 36.4435C47.0021 38.1327 47.3477 39.9482 47.3477 41.8524C47.3477 42.8564 48.1601 43.6688 49.1641 43.6688H60.1836C61.1876 43.6688 62 42.8564 62 41.8524C62 33.9915 58.9019 26.83 54.0477 21.3733ZM32.8164 11.0655V25.6883C34.3457 25.8604 35.8028 26.2454 37.1701 26.8047L40.9069 24.4209C42.404 23.4507 44.2335 23.2425 46.1388 24.1451L51.4791 18.8048C46.4479 14.3291 39.9609 11.4842 32.8164 11.0655Z" fill="#19C034"/>
</svg>
