<svg width="62" height="62" viewBox="0 0 62 62" fill="none" xmlns="http://www.w3.org/2000/svg">
<path d="M31.0001 60.9667C47.5503 60.9667 60.9668 47.5501 60.9668 31C60.9668 14.4499 47.5503 1.03333 31.0001 1.03333C14.45 1.03333 1.03345 14.4499 1.03345 31C1.03345 47.5501 14.45 60.9667 31.0001 60.9667Z" fill="#19C034"/>
<path d="M25.0709 43.4723L18.0443 36.6089C17.8923 36.4612 17.7715 36.2845 17.689 36.0893C17.6065 35.894 17.564 35.6842 17.564 35.4723C17.564 35.2603 17.6065 35.0505 17.689 34.8553C17.7715 34.66 17.8923 34.4833 18.0443 34.3356L20.3744 32.0623C20.6869 31.7595 21.1049 31.5902 21.54 31.5902C21.9751 31.5902 22.3932 31.7595 22.7056 32.0623L26.8886 36.1512L38.62 18.3158C38.8621 17.9559 39.2346 17.7043 39.6588 17.614C40.0831 17.5238 40.5258 17.602 40.8933 17.8322L43.6668 19.5744C43.848 19.6858 44.0049 19.8325 44.1283 20.0056C44.2517 20.1788 44.3391 20.375 44.3853 20.5826C44.4314 20.7902 44.4354 21.0049 44.397 21.2141C44.3587 21.4232 44.2786 21.6226 44.1618 21.8002L30.2707 42.9257C29.9923 43.3392 29.6267 43.6867 29.1996 43.9436C28.7724 44.2005 28.2941 44.3607 27.7984 44.4128C27.3027 44.4649 26.8016 44.4077 26.3303 44.2452C25.8591 44.0827 25.4292 43.8189 25.0709 43.4723Z" fill="white"/>
</svg>
