<svg width="62" height="62" viewBox="0 0 62 62" fill="none" xmlns="http://www.w3.org/2000/svg">
<g clip-path="url(#clip0_27_2)">
<path d="M17.0915 4.27216C17.2922 4.26596 17.492 4.30013 17.6792 4.37263C17.8664 4.44513 18.0371 4.55449 18.1812 4.69422C18.3253 4.83396 18.4399 5.00121 18.5181 5.18607C18.5964 5.37093 18.6367 5.56962 18.6367 5.77035C18.6367 5.97109 18.5964 6.16978 18.5181 6.35463C18.4399 6.53949 18.3253 6.70675 18.1812 6.84648C18.0371 6.98621 17.8664 7.09557 17.6792 7.16808C17.492 7.24058 17.2922 7.27474 17.0915 7.26854C16.7022 7.25651 16.3328 7.09339 16.0617 6.81374C15.7905 6.53409 15.6389 6.15987 15.6389 5.77035C15.6389 5.38083 15.7905 5.00661 16.0617 4.72696C16.3328 4.44731 16.7022 4.28419 17.0915 4.27216ZM4.08623 0.819534C3.00329 0.822931 1.9657 1.25473 1.20008 2.02062C0.434453 2.78651 0.00301755 3.82426 0 4.90719L0 10.7212H62.0014V4.90576C61.998 3.82233 61.5658 2.78431 60.7993 2.0186C60.0328 1.2529 58.9943 0.821797 57.9109 0.819534H4.08623ZM11.339 4.27216C11.7364 4.27216 12.1175 4.43001 12.3984 4.71097C12.6794 4.99194 12.8372 5.37301 12.8372 5.77035C12.8372 6.1677 12.6794 6.54877 12.3984 6.82973C12.1175 7.1107 11.7364 7.26854 11.339 7.26854C10.9417 7.26854 10.5606 7.1107 10.2797 6.82973C9.99869 6.54877 9.84085 6.1677 9.84085 5.77035C9.84085 5.37301 9.99869 4.99194 10.2797 4.71097C10.5606 4.43001 10.9417 4.27216 11.339 4.27216ZM5.58943 4.27216C5.79006 4.26596 5.98991 4.30013 6.17709 4.37263C6.36428 4.44513 6.53499 4.55449 6.67911 4.69422C6.82323 4.83396 6.93781 5.00121 7.01606 5.18607C7.0943 5.37093 7.13462 5.56962 7.13462 5.77035C7.13462 5.97109 7.0943 6.16978 7.01606 6.35463C6.93781 6.53949 6.82323 6.70675 6.67911 6.84648C6.53499 6.98621 6.36428 7.09557 6.17709 7.16808C5.98991 7.24058 5.79006 7.27474 5.58943 7.26854C5.20009 7.25651 4.83074 7.09339 4.55959 6.81374C4.28845 6.53409 4.13682 6.15987 4.13682 5.77035C4.13682 5.38083 4.28845 5.00661 4.55959 4.72696C4.83074 4.44731 5.20009 4.28419 5.58943 4.27216ZM0 11.7996V57.0928C0.00301935 58.176 0.434652 59.2139 1.20058 59.9799C1.96651 60.7458 3.00447 61.1774 4.08766 61.1805H57.9109C58.9941 61.1774 60.0321 60.7458 60.798 59.9799C61.5639 59.2139 61.9955 58.176 61.9986 57.0928V11.7996H0ZM13.7976 21.2192C14.7086 21.2192 15.5822 21.5811 16.2264 22.2252C16.8705 22.8694 17.2324 23.743 17.2324 24.654C17.2324 25.5649 16.8705 26.4386 16.2264 27.0827C15.5822 27.7268 14.7086 28.0887 13.7976 28.0887C12.8867 28.0887 12.013 27.7268 11.3689 27.0827C10.7248 26.4386 10.3629 25.5649 10.3629 24.654C10.3629 23.743 10.7248 22.8694 11.3689 22.2252C12.013 21.5811 12.8867 21.2192 13.7976 21.2192ZM13.7976 31.2696C14.3777 31.2698 14.9484 31.123 15.4564 30.8429C15.9644 30.5627 16.3931 30.1584 16.7025 29.6677C17.5881 29.7818 18.4021 30.214 18.9928 30.8836C19.5835 31.5533 19.9107 32.4148 19.9134 33.3077V36.9777H7.68331V33.3077C7.68331 31.4455 9.08925 29.8951 10.8928 29.6677C11.2022 30.1584 11.6309 30.5627 12.1389 30.8429C12.6469 31.123 13.2175 31.2698 13.7976 31.2696ZM9.1293 42.9734H18.466L16.5051 44.6668L14.7931 46.1457L14.7817 46.1557L14.1237 46.7235C14.0339 46.8016 13.9189 46.8447 13.7998 46.8447C13.6807 46.8447 13.5657 46.8016 13.4758 46.7235L12.8179 46.1557L12.8065 46.1457L11.0945 44.6668L9.1293 42.9734ZM17.2074 45.4806L19.3742 43.6098V49.5067L17.2074 47.636L15.9588 46.5576L17.2074 45.4806ZM10.3894 45.4806L11.6365 46.5576L10.3894 47.636L8.22252 49.5067V43.6098L10.3894 45.4806ZM12.4589 47.2684L12.7707 47.5373C13.0696 47.7947 13.4344 47.9235 13.7976 47.9235C14.1624 47.9235 14.5271 47.7947 14.8246 47.5373L15.1378 47.2684L16.5037 48.4484L18.466 50.1432H9.13073L11.0945 48.4484L12.4589 47.2684ZM23.4661 25.6716H54.3167V32.5225H23.4661V25.6716ZM23.4661 43.1321H54.3167V49.983H23.4661V43.1321Z" fill="#19C034"/>
</g>
<defs>
<clipPath id="clip0_27_2">
<rect width="62" height="62" fill="white"/>
</clipPath>
</defs>
</svg>
