<svg width="62" height="62" viewBox="0 0 62 62" fill="none" xmlns="http://www.w3.org/2000/svg">
<g clip-path="url(#clip0_27_5)">
<path d="M9.56665 34.7078H15.0925V38.7866H9.56665V34.7078Z" fill="#19C034"/>
<path d="M58.3258 23.9035H3.67399C1.67062 23.9035 0.0466309 25.5275 0.0466309 27.5309V58.3728C0.0466309 60.376 1.67062 62 3.67399 62H58.3258C60.3292 62 61.9532 60.376 61.9532 58.3726V27.5309C61.9532 25.5275 60.3292 23.9035 58.3258 23.9035ZM14.676 54.129H5.69783V50.5017H14.676V54.129ZM18.7198 39.3912C18.7198 41.0579 17.3638 42.4139 15.697 42.4139H8.96192C7.29518 42.4139 5.93917 41.0579 5.93917 39.3912V34.1033C5.93917 32.4365 7.29518 31.0805 8.96192 31.0805H15.6969C17.3636 31.0805 18.7197 32.4365 18.7197 34.1033L18.7198 39.3912ZM28.5513 54.129H19.5731V50.5017H28.5513V54.129ZM42.4267 54.129H33.4485V50.5017H42.4267V54.129ZM56.3019 54.129H47.3238V50.5017H56.3019V54.129ZM48.7412 8.81151L40.9922 1.06248C39.5756 -0.354078 37.279 -0.354078 35.8623 1.06248L16.6486 20.2762H37.9315L48.7412 8.81151ZM48.5184 20.2762L54.1903 14.2606L51.3073 11.3776L42.917 20.2762H48.5184ZM58.3258 20.2762C59.1049 20.2762 59.8552 20.4011 60.5592 20.6295L56.7564 16.8267L53.504 20.2763L58.3258 20.2762Z" fill="#19C034"/>
</g>
<defs>
<clipPath id="clip0_27_5">
<rect width="62" height="62" fill="white"/>
</clipPath>
</defs>
</svg>
