<svg width="24" height="24" viewBox="0 0 24 24" fill="none" xmlns="http://www.w3.org/2000/svg">
<circle cx="12" cy="12" r="12" fill="white"/>
<path d="M17.9363 7.83301H6.06271C5.20121 7.83301 4.5 8.475 4.5 9.26482V15.567C4.5 16.3568 5.20121 16.9997 6.06271 16.9997H17.9373C18.7988 16.9997 19.5 16.3568 19.5 15.567V9.26482C19.4991 8.475 18.7979 7.83301 17.9363 7.83301ZM18.2495 10.9321L12.8685 13.5104C12.5995 13.6367 12.2995 13.7055 11.9995 13.7055C11.6996 13.7055 11.4061 13.6367 11.1305 13.5104L5.74961 10.9321V9.63695L11.7052 12.4903C11.8861 12.5762 12.1111 12.5762 12.293 12.4903L18.2485 9.63695L18.2495 10.9321Z" fill="#333333"/>
</svg>
