<svg width="121" height="110" viewBox="0 0 121 110" fill="none" xmlns="http://www.w3.org/2000/svg">
<path d="M89.6263 103.88C75.9257 103.88 64.7793 92.8473 64.7793 79.2873C64.7793 65.726 75.9257 54.6937 89.6263 54.6937C103.327 54.6937 114.472 65.726 114.472 79.2873C114.472 92.8473 103.327 103.88 89.6263 103.88ZM89.6263 48.8057C72.6448 48.8057 58.8311 62.48 58.8311 79.2873C58.8311 96.0946 72.6448 109.769 89.6263 109.769C106.608 109.769 120.423 96.0946 120.423 79.2873C120.423 62.48 106.608 48.8057 89.6263 48.8057Z" fill="#46277B"/>
<path d="M99.9772 67.668L90.7025 78.3041L82.366 71.1813L80.0332 73.8562L88.3709 80.9777L86.3246 83.3232L88.1262 84.8617L90.1724 82.5175L92.1917 84.2432L94.5245 81.5683L92.504 79.8414L101.779 69.2065L99.9772 67.668Z" fill="#FFCE00"/>
<path d="M91.5771 57.5884H89.1987V59.7892H91.5771V57.5884Z" fill="#FFCE00"/>
<path d="M68.4639 80.4648H70.6897V78.1084H68.4639V80.4648Z" fill="#FFCE00"/>
<path d="M89.1987 100.986H91.5771V98.7842H89.1987V100.986Z" fill="#FFCE00"/>
<path d="M110.086 78.1084V80.4648H112.312V78.1084H110.086Z" fill="#FFCE00"/>
<path d="M40.7218 39.8027H30.9712V49.4532H40.7218V39.8027Z" fill="#46277B"/>
<path d="M55.8124 39.8027H46.0605V49.4532H55.8124V39.8027Z" fill="#46277B"/>
<path d="M70.9013 49.4532V39.8027H61.1519V49.4532H70.9013Z" fill="#46277B"/>
<path d="M25.632 54.3779H15.8813V64.0284H25.632V54.3779Z" fill="#46277B"/>
<path d="M40.7218 54.3779H30.9712V64.0284H40.7218V54.3779Z" fill="#46277B"/>
<path d="M55.8124 54.3779H46.0605V64.0284H55.8124V54.3779Z" fill="#46277B"/>
<path d="M15.8813 78.6041H25.632V68.9536H15.8813V78.6041Z" fill="#46277B"/>
<path d="M30.9712 78.6041H40.7218V68.9536H30.9712V78.6041Z" fill="#46277B"/>
<path d="M6.41826 87.9424V33.7823H95.4555V43.9773C97.5018 44.3078 99.4878 44.811 101.404 45.4672V8.60053H85.1834V0.330566H75.664V8.60053H26.2085V0.330566H16.6891V8.60053H0.46875V93.8316H56.6091C55.7593 91.9479 55.0645 89.9804 54.5505 87.9424H6.41826Z" fill="#46277B"/>
<path d="M46.0605 78.6041H53.4931C53.5571 75.2548 54.0834 72.0185 55.0192 68.9536H46.0605V78.6041Z" fill="#46277B"/>
<path d="M85.9916 43.6868V39.8027H76.2422V46.059C79.3092 44.8437 82.5791 44.0246 85.9916 43.6868Z" fill="#46277B"/>
</svg>
