<svg width="78" height="100" viewBox="0 0 78 100" fill="none" xmlns="http://www.w3.org/2000/svg">
<path d="M37.1147 56.5107C34.4361 54.5958 31.3741 48.8511 30.9914 40.8081H37.1147V56.5107Z" fill="#46277B"/>
<path d="M40.9421 56.5107V40.8081H47.0654C46.6828 48.8511 44.0042 54.5958 40.9421 56.5107Z" fill="#46277B"/>
<path d="M57.7822 40.4248C57.0161 46.9364 53.1895 51.915 47.8307 54.9794C50.1275 51.1488 51.2754 46.1703 51.6581 40.4248H57.7822Z" fill="#46277B"/>
<path d="M57.7822 36.5948H51.6581C51.2754 30.8502 50.1275 25.8708 47.8307 22.041C53.1895 24.722 57.0161 30.084 57.7822 36.5948Z" fill="#46277B"/>
<path d="M47.4482 36.5948H41.3249V20.5088C44.0043 22.4237 46.6829 28.1692 47.4482 36.5948Z" fill="#46277B"/>
<path d="M37.1147 20.5088V36.2122H30.9914C31.3741 28.1692 34.0535 22.4237 37.1147 20.5088Z" fill="#46277B"/>
<path d="M30.2261 22.041C27.9293 25.8708 26.7814 30.8502 26.3987 36.5948H20.2754C21.0407 30.084 24.8681 24.722 30.2261 22.041Z" fill="#46277B"/>
<path d="M30.2261 54.9794C24.8681 52.2984 21.0407 46.9364 20.2754 40.4248H26.3987C26.7814 46.1703 28.312 51.5323 30.2261 54.9794Z" fill="#46277B"/>
<path d="M8.4108 0.210449H69.6465C73.8565 0.210449 77.3013 3.65758 77.3013 7.87002V92.1301C77.3013 96.3425 73.8565 99.7897 69.6465 99.7897H8.4108C4.20077 99.7897 0.756844 96.3425 0.756844 92.1301V7.87002C0.756844 3.65758 4.20077 0.210449 8.4108 0.210449ZM16.0656 88.2995H61.9917V80.6399H16.0656V88.2995ZM39.0291 61.4902C51.6584 61.4902 61.9917 51.1488 61.9917 38.5099C61.9917 25.871 51.6584 15.5304 39.0291 15.5304C26.3989 15.5304 16.0656 25.871 16.0656 38.5099C16.0656 51.1488 26.3989 61.4902 39.0291 61.4902Z" fill="#46277B"/>
</svg>
