<svg width="111" height="111" viewBox="0 0 111 111" fill="none" xmlns="http://www.w3.org/2000/svg">
<path d="M110.9 55.5001C110.9 86.0962 86.0962 110.9 55.5001 110.9C24.904 110.9 0.100098 86.0962 0.100098 55.5001C0.100098 24.904 24.904 0.100098 55.5001 0.100098C86.0962 0.100098 110.9 24.904 110.9 55.5001Z" fill="#46277B"/>
<path d="M109.056 69.7093C104.108 88.4324 89.5971 103.266 71.0557 108.676L44.952 82.5641L47.1548 77.9327L40.5718 71.3537L48.1767 68.3935L40.5718 60.7885L47.1548 58.1623L48.1767 31.4268L72.0375 32.6905L109.056 69.7093Z" fill="#46277B"/>
<path d="M61.1264 54.8336H50.9032V34.3872H61.1264C66.7609 34.3872 71.3455 38.9758 71.3455 44.6104C71.3455 50.2463 66.7609 54.8336 61.1264 54.8336ZM61.1264 28.436H44.952V54.8336H40.5718V60.7848H44.952V65.3988H40.5718V71.3499H44.952V82.5643H50.9032V71.3499H61.9092V65.3988H50.9032V60.7848H61.1264C70.0418 60.7848 77.3007 53.5271 77.3007 44.6104C77.3007 35.691 70.0418 28.436 61.1264 28.436Z" fill="#FFCE00"/>
</svg>
