<svg width="108" height="102" viewBox="0 0 108 102" fill="none" xmlns="http://www.w3.org/2000/svg">
<path d="M89.4471 51.4888C89.4471 52.0398 89.4334 52.5909 89.404 53.1409C89.3756 53.6909 89.3335 54.241 89.2768 54.789C89.22 55.3371 89.1485 55.8841 89.0633 56.4292C88.9782 56.9742 88.8794 57.5173 88.7658 58.0574C88.6523 58.5974 88.5251 59.1355 88.3842 59.6696C88.2433 60.2046 88.0888 60.7357 87.9206 61.2628C87.7524 61.7899 87.5694 62.313 87.3739 62.8321C87.1794 63.3502 86.9702 63.8643 86.7484 64.3734C86.5255 64.8825 86.291 65.3866 86.0429 65.8847C85.7948 66.3829 85.5341 66.875 85.2607 67.3602C84.9864 67.8463 84.7004 68.3255 84.4029 68.7987C84.1043 69.2709 83.7942 69.736 83.4714 70.1942C83.1487 70.6525 82.8144 71.1027 82.4695 71.5459C82.1236 71.9881 81.7662 72.4224 81.3982 72.8486C81.0303 73.2749 80.6518 73.6912 80.2618 74.0995C79.8717 74.5077 79.4722 74.9071 79.0612 75.2964C78.6512 75.6867 78.2306 76.066 77.8006 76.4364C77.3707 76.8067 76.9323 77.1661 76.4833 77.5155C76.0344 77.8649 75.5771 78.2043 75.1114 78.5327C74.6446 78.8602 74.1705 79.1776 73.6879 79.4841C73.2054 79.7906 72.7155 80.085 72.2182 80.3685C71.7199 80.6511 71.2152 80.9226 70.7032 81.1831C70.1923 81.4427 69.674 81.6903 69.1494 81.9258C68.6248 82.1614 68.0939 82.384 67.5577 82.5957C67.0215 82.8063 66.4801 83.005 65.9345 83.1896C65.3878 83.3753 64.8369 83.549 64.2818 83.7087C63.7267 83.8685 63.1674 84.0152 62.6039 84.149C62.0415 84.2827 61.4748 84.4035 60.9061 84.5113C60.3373 84.6192 59.7654 84.713 59.1914 84.7939C58.6174 84.8747 58.0412 84.9426 57.4641 84.9965C56.8869 85.0504 56.3076 85.0903 55.7284 85.1173C55.1491 85.1452 54.5688 85.1582 53.9884 85.1582C53.4081 85.1582 52.8278 85.1452 52.2485 85.1173C51.6692 85.0903 51.09 85.0504 50.5128 84.9965C49.9356 84.9426 49.3595 84.8747 48.7855 84.7939C48.2115 84.713 47.6396 84.6192 47.0708 84.5113C46.502 84.4035 45.9354 84.2827 45.3729 84.149C44.8094 84.0152 44.2512 83.8685 43.695 83.7087C43.1399 83.549 42.5891 83.3753 42.0424 83.1896C41.4967 83.005 40.9553 82.8063 40.4191 82.5957C39.883 82.384 39.3521 82.1614 38.8285 81.9258C38.3039 81.6903 37.7856 81.4427 37.2736 81.1831C36.7616 80.9226 36.257 80.6511 35.7587 80.3685C35.2614 80.085 34.7715 79.7906 34.2889 79.4841C33.8064 79.1776 33.3323 78.8602 32.8655 78.5327C32.3997 78.2043 31.9424 77.8649 31.4935 77.5155C31.0457 77.1661 30.6062 76.8067 30.1762 76.4364C29.7462 76.066 29.3257 75.6867 28.9157 75.2964C28.5046 74.9071 28.1051 74.5077 27.7151 74.0995C27.3261 73.6912 26.9466 73.2749 26.5786 72.8486C26.2107 72.4224 25.8532 71.9881 25.5084 71.5459C25.1625 71.1027 24.8282 70.6525 24.5054 70.1942C24.1837 69.736 23.8726 69.2709 23.575 68.7987C23.2765 68.3255 22.9905 67.8463 22.7172 67.3602C22.4428 66.875 22.182 66.3829 21.9339 65.8847C21.6858 65.3866 21.4514 64.8825 21.2285 64.3734C21.0067 63.8643 20.7985 63.3502 20.603 62.8321C20.4074 62.313 20.2256 61.7899 20.0563 61.2628C19.8881 60.7357 19.7335 60.2046 19.5927 59.6696C19.4518 59.1355 19.3246 58.5974 19.211 58.0574C19.0975 57.5173 18.9987 56.9742 18.9135 56.4292C18.8284 55.8841 18.7579 55.3371 18.7001 54.789C18.6433 54.241 18.6013 53.6909 18.5729 53.1409C18.5445 52.5909 18.5298 52.0398 18.5298 51.4888C18.5298 50.9377 18.5445 50.3867 18.5729 49.8367C18.6013 49.2866 18.6433 48.7366 18.7001 48.1885C18.7579 47.6405 18.8284 47.0934 18.9135 46.5484C18.9987 46.0033 19.0975 45.4603 19.211 44.9202C19.3246 44.3801 19.4518 43.8421 19.5927 43.308C19.7335 42.7729 19.8881 42.2429 20.0563 41.7148C20.2256 41.1877 20.4074 40.6646 20.603 40.1455C20.7985 39.6274 21.0067 39.1133 21.2285 38.6042C21.4514 38.0951 21.6858 37.5919 21.9339 37.0938C22.182 36.5957 22.4428 36.1035 22.7172 35.6174C22.9905 35.1312 23.2765 34.6521 23.575 34.1789C23.8726 33.7067 24.1837 33.2415 24.5054 32.7833C24.8282 32.3251 25.1625 31.8749 25.5084 31.4317C25.8532 30.9894 26.2107 30.5552 26.5786 30.1289C26.9466 29.7037 27.3261 29.2864 27.7151 28.8781C28.1051 28.4698 28.5046 28.0705 28.9157 27.6812C29.3257 27.2909 29.7462 26.9115 30.1762 26.5412C30.6062 26.1718 31.0457 25.8114 31.4935 25.462C31.9424 25.1127 32.3997 24.7732 32.8655 24.4458C33.3323 24.1174 33.8064 23.7999 34.2889 23.4935C34.7715 23.188 35.2614 22.8925 35.7587 22.61C36.257 22.3265 36.7616 22.055 37.2736 21.7954C37.7856 21.5349 38.3039 21.2873 38.8285 21.0517C39.3521 20.8161 39.883 20.5935 40.4191 20.3819C40.9553 20.1712 41.4967 19.9736 42.0424 19.7879C42.5891 19.6022 43.1399 19.4295 43.695 19.2688C44.2512 19.1091 44.8094 18.9623 45.3729 18.8286C45.9354 18.6948 46.502 18.574 47.0708 18.4662C47.6396 18.3584 48.2115 18.2646 48.7855 18.1837C49.3595 18.1028 49.9356 18.036 50.5128 17.9821C51.09 17.9271 51.6692 17.8872 52.2485 17.8603C52.8278 17.8333 53.4081 17.8193 53.9884 17.8193C54.5688 17.8193 55.1491 17.8333 55.7284 17.8603C56.3076 17.8872 56.8869 17.9271 57.4641 17.9821C58.0412 18.036 58.6174 18.1028 59.1914 18.1837C59.7654 18.2646 60.3373 18.3584 60.9061 18.4662C61.4748 18.574 62.0415 18.6948 62.6039 18.8286C63.1674 18.9623 63.7267 19.1091 64.2818 19.2688C64.8369 19.4295 65.3878 19.6022 65.9345 19.7879C66.4801 19.9736 67.0215 20.1712 67.5577 20.3819C68.0939 20.5935 68.6248 20.8161 69.1494 21.0517C69.674 21.2873 70.1923 21.5349 70.7032 21.7954C71.2152 22.055 71.7199 22.3265 72.2182 22.61C72.7155 22.8925 73.2054 23.188 73.6879 23.4935C74.1705 23.7999 74.6446 24.1174 75.1114 24.4458C75.5771 24.7732 76.0344 25.1127 76.4833 25.462C76.9323 25.8114 77.3707 26.1718 77.8006 26.5412C78.2306 26.9115 78.6512 27.2909 79.0612 27.6812C79.4722 28.0705 79.8717 28.4698 80.2618 28.8781C80.6518 29.2864 81.0303 29.7037 81.3982 30.1289C81.7662 30.5552 82.1236 30.9894 82.4695 31.4317C82.8144 31.8749 83.1487 32.3251 83.4714 32.7833C83.7942 33.2415 84.1043 33.7067 84.4029 34.1789C84.7004 34.6521 84.9864 35.1312 85.2607 35.6174C85.5341 36.1035 85.7948 36.5957 86.0429 37.0938C86.291 37.5919 86.5255 38.0951 86.7484 38.6042C86.9702 39.1133 87.1794 39.6274 87.3739 40.1455C87.5694 40.6646 87.7524 41.1877 87.9206 41.7148C88.0888 42.2429 88.2433 42.7729 88.3842 43.308C88.5251 43.8421 88.6523 44.3801 88.7658 44.9202C88.8794 45.4603 88.9782 46.0033 89.0633 46.5484C89.1485 47.0934 89.22 47.6405 89.2768 48.1885C89.3335 48.7366 89.3756 49.2866 89.404 49.8367C89.4334 50.3867 89.4471 50.9377 89.4471 51.4888Z" fill="#FFC107"/>
<path d="M28.6359 29.2677L6.47422 8.22428C5.52068 7.31886 4.09826 7.04933 2.85245 7.53748C1.61191 8.02563 0.800293 9.17463 0.800293 10.4544V31.4978C0.800293 33.2408 2.29 34.6543 4.12454 34.6543H26.2862C27.634 34.6543 28.844 33.8847 29.3581 32.7057C29.8722 31.5278 29.5884 30.1721 28.6359 29.2677Z" fill="#46277B"/>
<path d="M53.9885 101.993C39.7653 101.993 26.4105 96.7324 16.3936 87.175C14.6652 85.5288 14.6736 82.8645 16.4114 81.2233C18.1398 79.5782 20.9499 79.5902 22.6783 81.2403C31.0163 89.1945 42.1412 93.5759 53.9885 93.5759C78.4283 93.5759 98.3118 74.6957 98.3118 51.489C98.3118 28.2824 78.4283 9.40223 53.9885 9.40223C39.0472 9.40223 23.7159 16.6207 14.9259 27.7863C13.4636 29.646 10.6849 30.0333 8.72529 28.6358C6.7667 27.2472 6.363 24.6088 7.83063 22.748C18.3921 9.32236 36.0773 0.984863 53.9885 0.984863C83.3169 0.984863 107.176 23.6405 107.176 51.489C107.176 79.3376 83.3169 101.993 53.9885 101.993Z" fill="#46277B"/>
<path d="M47.3399 42.0193V60.9584C47.3399 62.7013 45.8513 64.1149 44.0157 64.1149C42.1811 64.1149 40.6914 62.7013 40.6914 60.9584V45.1758C38.8569 45.1758 37.3672 43.7623 37.3672 42.0193C37.3672 40.2773 38.8569 38.8628 40.6914 38.8628H44.0157C45.8513 38.8628 47.3399 40.2773 47.3399 42.0193Z" fill="white"/>
<path d="M63.961 38.8628H61.7449C57.4681 38.8628 53.9883 42.167 53.9883 46.228V56.7497C53.9883 60.8116 57.4681 64.1149 61.7449 64.1149H63.961C68.2388 64.1149 71.7176 60.8116 71.7176 56.7497V46.228C71.7176 42.167 68.2388 38.8628 63.961 38.8628ZM65.0691 56.7497C65.0691 57.3307 64.5729 57.8018 63.961 57.8018H61.7449C61.133 57.8018 60.6368 57.3307 60.6368 56.7497V46.228C60.6368 45.647 61.133 45.1758 61.7449 45.1758H63.961C64.5729 45.1758 65.0691 45.647 65.0691 46.228V56.7497Z" fill="white"/>
</svg>
