<svg width="112" height="71" viewBox="0 0 112 71" fill="none" xmlns="http://www.w3.org/2000/svg">
<path d="M99.9766 0.252441H12.9877C6.34948 0.252441 0.985352 6.17163 0.985352 13.4703V57.4753C0.985352 64.7739 6.34948 70.6923 12.9877 70.6923H99.9766C106.615 70.6923 111.979 64.7739 111.979 57.4753V13.4703C111.979 6.17163 106.615 0.252441 99.9766 0.252441Z" fill="#46277B"/>
<path d="M90.0459 54.7684C90.0459 55.0818 90.0304 55.3951 89.9993 55.7076C89.9683 56.0201 89.9225 56.33 89.8612 56.6373C89.7999 56.9455 89.724 57.2493 89.6325 57.5497C89.5418 57.8502 89.4356 58.1445 89.3156 58.4346C89.1957 58.7246 89.0619 59.0077 88.9134 59.2848C88.7658 59.5619 88.6043 59.8304 88.43 60.0911C88.2556 60.3527 88.0691 60.6039 87.8697 60.8464C87.6703 61.089 87.4597 61.3212 87.2378 61.5431C87.016 61.7649 86.7838 61.9755 86.5412 62.1749C86.2986 62.3735 86.0466 62.5608 85.785 62.7352C85.5243 62.9096 85.255 63.0701 84.9788 63.2186C84.7017 63.3662 84.4185 63.5 84.1285 63.62C83.8384 63.74 83.5432 63.8462 83.2419 63.9368C82.9415 64.0283 82.6377 64.1043 82.3295 64.1656C82.0222 64.2269 81.7114 64.2726 81.3989 64.3037C81.0873 64.3339 80.774 64.3494 80.4597 64.3494C80.1455 64.3494 79.833 64.3339 79.5205 64.3037C79.2081 64.2726 78.8973 64.2269 78.59 64.1656C78.2818 64.1043 77.9779 64.0283 77.6775 63.9368C77.3771 63.8462 77.081 63.74 76.791 63.62C76.501 63.5 76.2178 63.3662 75.9407 63.2186C75.6645 63.0701 75.3952 62.9096 75.1345 62.7352C74.8729 62.5608 74.6217 62.3735 74.3783 62.1749C74.1357 61.9755 73.9035 61.7649 73.6816 61.5431C73.4598 61.3212 73.2492 61.089 73.0497 60.8464C72.8503 60.6039 72.6639 60.3527 72.4895 60.0911C72.3151 59.8304 72.1537 59.5619 72.0061 59.2848C71.8576 59.0077 71.7238 58.7246 71.6038 58.4346C71.4838 58.1445 71.3777 57.8502 71.287 57.5497C71.1955 57.2493 71.1196 56.9455 71.0583 56.6373C70.997 56.33 70.9512 56.0201 70.9201 55.7076C70.8891 55.3951 70.8735 55.0818 70.8735 54.7684C70.8735 54.4542 70.8891 54.1417 70.9201 53.8292C70.9512 53.5167 70.997 53.2068 71.0583 52.8986C71.1196 52.5913 71.1955 52.2875 71.287 51.9871C71.3777 51.6867 71.4838 51.3914 71.6038 51.1014C71.7238 50.8113 71.8576 50.5282 72.0061 50.252C72.1537 49.9749 72.3151 49.7064 72.4895 49.4449C72.6639 49.1842 72.8503 48.9321 73.0497 48.6895C73.2492 48.447 73.4598 48.2147 73.6816 47.9929C73.9035 47.771 74.1357 47.5613 74.3783 47.3619C74.6217 47.1625 74.8729 46.976 75.1345 46.8016C75.3952 46.6273 75.6645 46.4658 75.9407 46.3182C76.2178 46.1706 76.501 46.0359 76.791 45.916C77.081 45.796 77.3771 45.6907 77.6775 45.5991C77.9779 45.5085 78.2818 45.4325 78.59 45.3713C78.8973 45.31 79.2081 45.2642 79.5205 45.2331C79.833 45.2021 80.1455 45.1865 80.4597 45.1865C80.774 45.1865 81.0873 45.2021 81.3989 45.2331C81.7114 45.2642 82.0222 45.31 82.3295 45.3713C82.6377 45.4325 82.9415 45.5085 83.2419 45.5991C83.5432 45.6907 83.8384 45.796 84.1285 45.916C84.4185 46.0359 84.7017 46.1706 84.9788 46.3182C85.255 46.4658 85.5243 46.6273 85.785 46.8016C86.0466 46.976 86.2986 47.1625 86.5412 47.3619C86.7838 47.5613 87.016 47.771 87.2378 47.9929C87.4597 48.2147 87.6703 48.447 87.8697 48.6895C88.0691 48.9321 88.2556 49.1842 88.43 49.4449C88.6043 49.7064 88.7658 49.9749 88.9134 50.252C89.0619 50.5282 89.1957 50.8113 89.3156 51.1014C89.4356 51.3914 89.5418 51.6867 89.6325 51.9871C89.724 52.2875 89.7999 52.5913 89.8612 52.8986C89.9225 53.2068 89.9683 53.5167 89.9993 53.8292C90.0304 54.1417 90.0459 54.4542 90.0459 54.7684Z" fill="#ED1C24"/>
<path d="M61.2618 57.661C61.2618 58.3516 60.7042 58.9084 60.0136 58.9084H12.8552C12.1646 58.9084 11.6069 58.3516 11.6069 57.661C11.6069 56.9713 12.1646 56.4137 12.8552 56.4137H60.0403C60.7042 56.4137 61.2618 56.9713 61.2618 57.661ZM12.8552 53.123H22.6002C23.2908 53.123 23.8484 52.5654 23.8484 51.8748C23.8484 51.1851 23.2908 50.6274 22.6002 50.6274H12.8552C12.1646 50.6274 11.6069 51.1851 11.6069 51.8748C11.6069 52.5654 12.1646 53.123 12.8552 53.123ZM31.5752 53.123H41.3203C42.0109 53.123 42.5685 52.5654 42.5685 51.8748C42.5685 51.1851 42.0109 50.6274 41.3203 50.6274H31.5752C30.8847 50.6274 30.327 51.1851 30.327 51.8748C30.327 52.5654 30.8847 53.123 31.5752 53.123ZM50.2953 53.123H60.0403C60.7309 53.123 61.2886 52.5654 61.2886 51.8748C61.2886 51.1851 60.7309 50.6274 60.0403 50.6274H50.2953C49.6047 50.6274 49.0471 51.1851 49.0471 51.8748C49.0471 52.5654 49.6047 53.123 50.2953 53.123Z" fill="white"/>
<path d="M29.3982 28.3069H14.7931C13.0408 28.3069 11.6069 26.8739 11.6069 25.1216V14.2405C11.6069 12.4881 13.0408 11.0552 14.7931 11.0552H29.3982C31.1505 11.0552 32.5844 12.4881 32.5844 14.2405V25.1216C32.5844 26.8739 31.1505 28.3069 29.3982 28.3069ZM94.1614 45.1865C91.4802 45.1865 89.0631 46.3018 87.3107 48.0533C89.0104 49.7789 90.0463 52.1408 90.0463 54.7684C90.0463 57.3694 89.0104 59.7312 87.3107 61.4835C89.0631 63.2618 91.4802 64.3495 94.1614 64.3495C99.4461 64.3495 103.748 60.0497 103.748 54.7684C103.748 49.4863 99.4461 45.1865 94.1614 45.1865Z" fill="#FFCE00"/>
</svg>
