<svg width="44" height="44" viewBox="0 0 44 44" fill="none" xmlns="http://www.w3.org/2000/svg">
<rect x="0.5" y="0.5" width="43" height="43" rx="21.5" stroke="#2C322B"/>
<path d="M22.5 22C24.0111 22 25.3195 21.458 26.3889 20.3886C27.4578 19.3194 28 18.0112 28 16.4998C28 14.989 27.458 13.6806 26.3887 12.611C25.3193 11.542 24.011 11 22.5 11C20.9887 11 19.6805 11.542 18.6113 12.6112C17.5422 13.6804 17 14.9888 17 16.4998C17 18.0112 17.5422 19.3196 18.6113 20.3888C19.6808 21.4578 20.9892 22 22.5 22ZM19.5577 13.5574C20.378 12.737 21.3404 12.3382 22.5 12.3382C23.6594 12.3382 24.622 12.737 25.4425 13.5574C26.2629 14.378 26.6618 15.3406 26.6618 16.4998C26.6618 17.6594 26.2629 18.6218 25.4425 19.4424C24.622 20.263 23.6594 20.6618 22.5 20.6618C21.3408 20.6618 20.3784 20.2628 19.5577 19.4424C18.7371 18.622 18.3382 17.6594 18.3382 16.4998C18.3382 15.3406 18.7371 14.378 19.5577 13.5574Z" fill="#2C322B"/>
<path d="M30.9564 28.0837C30.9272 27.6691 30.8683 27.2168 30.7816 26.7392C30.694 26.258 30.5812 25.8031 30.4463 25.3874C30.3067 24.9577 30.1172 24.5333 29.8827 24.1267C29.6396 23.7046 29.3538 23.337 29.0332 23.0346C28.6979 22.7182 28.2873 22.4638 27.8126 22.2783C27.3396 22.0937 26.8153 22.0002 26.2545 22.0002C26.0343 22.0002 25.8213 22.0893 25.4099 22.3534C25.1568 22.5162 24.8606 22.7046 24.5301 22.9128C24.2475 23.0904 23.8646 23.2568 23.3917 23.4075C22.9303 23.5547 22.4619 23.6294 21.9993 23.6294C21.5371 23.6294 21.0687 23.5547 20.607 23.4075C20.1346 23.257 19.7515 23.0906 19.4694 22.913C19.142 22.7067 18.8457 22.5184 18.5888 22.3533C18.1778 22.0891 17.9648 22 17.7445 22C17.1836 22 16.6595 22.0937 16.1866 22.2784C15.7122 22.4636 15.3015 22.718 14.9659 23.0348C14.6452 23.3374 14.3595 23.7047 14.1165 24.1267C13.8823 24.5333 13.6926 24.9575 13.5531 25.3876C13.4183 25.8033 13.3055 26.258 13.2179 26.7392C13.131 27.2161 13.0723 27.6686 13.0431 28.0842C13.0145 28.4905 13 28.9134 13 29.3407C13 30.4514 13.358 31.3506 14.064 32.0138C14.7613 32.6682 15.6837 33 16.8058 33H27.1942C28.316 33 29.2384 32.6682 29.9358 32.0138C30.642 31.3511 31 30.4516 31 29.3405C30.9998 28.9118 30.9852 28.4889 30.9564 28.0837ZM29.0641 31.1104C28.6034 31.5428 27.9917 31.7531 27.194 31.7531H16.8058C16.008 31.7531 15.3963 31.5428 14.9357 31.1105C14.4839 30.6863 14.2643 30.1073 14.2643 29.3407C14.2643 28.942 14.2776 28.5483 14.3043 28.1704C14.3303 27.7996 14.3835 27.3923 14.4623 26.9595C14.5402 26.532 14.6393 26.1309 14.7571 25.7678C14.8702 25.4195 15.0245 25.0747 15.2157 24.7426C15.3983 24.426 15.6083 24.1544 15.8401 23.9356C16.0568 23.7309 16.3301 23.5633 16.652 23.4377C16.9498 23.3214 17.2845 23.2578 17.6477 23.2482C17.692 23.2714 17.7709 23.3158 17.8986 23.3979C18.1585 23.565 18.4581 23.7555 18.7893 23.9642C19.1626 24.1989 19.6435 24.4109 20.2182 24.5939C20.8056 24.7812 21.4048 24.8763 21.9995 24.8763C22.5942 24.8763 23.1935 24.7812 23.7807 24.594C24.3558 24.4107 24.8366 24.1989 25.2104 23.9638C25.5493 23.7502 25.8405 23.5651 26.1004 23.3979C26.2282 23.3159 26.307 23.2714 26.3513 23.2482C26.7147 23.2578 27.0494 23.3214 27.3473 23.4377C27.6691 23.5633 27.9423 23.731 28.1591 23.9356C28.3909 24.1543 28.6009 24.4258 28.7835 24.7427C28.9749 25.0747 29.1293 25.4197 29.2422 25.7676C29.3602 26.1312 29.4595 26.5322 29.5372 26.9593C29.6159 27.3929 29.6692 27.8004 29.6952 28.1705V28.1709C29.722 28.5473 29.7355 28.9408 29.7357 29.3407C29.7355 30.1074 29.5159 30.6863 29.0641 31.1104Z" fill="#2C322B"/>
</svg>
