<svg width="38" height="38" viewBox="0 0 38 38" fill="none" xmlns="http://www.w3.org/2000/svg">
<circle cx="19" cy="19" r="19" fill="white"/>
<path d="M28.4982 12.3335H9.50034C8.12193 12.3335 7 13.3607 7 14.6244V24.7079C7 25.9716 8.12193 27.0002 9.50034 27.0002H28.4997C29.8781 27.0002 31 25.9716 31 24.7079V14.6244C30.9985 13.3607 29.8766 12.3335 28.4982 12.3335ZM28.9991 17.2921L20.3897 21.4173C19.9592 21.6195 19.4792 21.7295 18.9993 21.7295C18.5193 21.7295 18.0498 21.6195 17.6088 21.4173L8.99938 17.2921V15.2198L18.5283 19.7851C18.8178 19.9226 19.1777 19.9226 19.4687 19.7851L28.9976 15.2198L28.9991 17.2921Z" fill="#0A1D17"/>
</svg>
