<svg width="24" height="24" viewBox="0 0 24 24" fill="none" xmlns="http://www.w3.org/2000/svg">
<circle cx="12" cy="12" r="12" fill="white"/>
<path d="M16.1077 17.5C16.0811 17.5 16.0539 17.4987 16.0273 17.4969C10.9625 17.1281 6.86862 13.2762 6.50272 8.53813C6.48213 8.2725 6.57909 8.00938 6.76901 7.81563C6.9576 7.62313 7.21526 7.51625 7.4935 7.51437L9.57532 7.5C10.0375 7.5 10.4373 7.79187 10.5488 8.21L10.9838 9.83563C11.0821 10.2038 10.936 10.5875 10.6119 10.8144L9.77587 11.4006C10.497 12.6462 11.606 13.695 12.9374 14.3919L13.5842 13.5863C13.8266 13.2844 14.235 13.1481 14.6268 13.24L16.366 13.6462C16.8129 13.75 17.125 14.1244 17.125 14.5563V16.5619C17.125 16.8238 17.0121 17.0656 16.8076 17.2437C16.6183 17.4087 16.3673 17.5 16.1077 17.5Z" fill="#333333"/>
</svg>
