<svg width="38" height="38" viewBox="0 0 38 38" fill="none" xmlns="http://www.w3.org/2000/svg">
<path fill-rule="evenodd" clip-rule="evenodd" d="M19 38C29.4934 38 38 29.4934 38 19C38 8.50659 29.4934 0 19 0C8.50659 0 0 8.50659 0 19C0 29.4934 8.50659 38 19 38Z" fill="#179CDE"/>
<path d="M15.2798 22.0218L14.9027 27.3266C15.4423 27.3266 15.676 27.0948 15.9562 26.8165L18.4861 24.3987L23.7282 28.2377C24.6896 28.7735 25.3669 28.4913 25.6263 27.3532L29.0672 11.2298L29.0681 11.2289C29.3731 9.8077 28.5542 9.25195 27.6175 9.6006L7.39197 17.344C6.01162 17.8798 6.03252 18.6493 7.15732 18.998L12.3282 20.6063L24.339 13.0909C24.9043 12.7166 25.4182 12.9237 24.9955 13.298L15.2798 22.0218Z" fill="white"/>
</svg>
