<svg width="24" height="24" viewBox="0 0 24 24" fill="none" xmlns="http://www.w3.org/2000/svg">
<path fill-rule="evenodd" clip-rule="evenodd" d="M12 24C18.6274 24 24 18.6274 24 12C24 5.37258 18.6274 0 12 0C5.37258 0 0 5.37258 0 12C0 18.6274 5.37258 24 12 24Z" fill="#828282"/>
<path d="M9.65031 13.9088L9.41211 17.2592C9.75291 17.2592 9.90051 17.1128 10.0775 16.937L11.6753 15.41L14.9861 17.8346C15.5933 18.173 16.0211 17.9948 16.1849 17.276L18.3581 7.09284L18.3587 7.09224C18.5513 6.19464 18.0341 5.84364 17.4425 6.06384L4.66851 10.9544C3.79671 11.2928 3.80991 11.7788 4.52031 11.999L7.78611 13.0148L15.3719 8.26824C15.7289 8.03184 16.0535 8.16264 15.7865 8.39904L9.65031 13.9088Z" fill="white"/>
</svg>
