<svg width="38" height="38" viewBox="0 0 38 38" fill="none" xmlns="http://www.w3.org/2000/svg">
<path fill-rule="evenodd" clip-rule="evenodd" d="M19 4.76837e-07C29.4934 4.76837e-07 38 8.50659 38 19C38 29.4934 29.4934 38 19 38C8.50659 38 0 29.4934 0 19C0 8.50659 8.50659 4.76837e-07 19 4.76837e-07Z" fill="#7F4DA0"/>
<path fill-rule="evenodd" clip-rule="evenodd" d="M29.65 26.2958C29.605 26.1643 29.5 25.9615 29.425 25.8451C28.9525 25.1316 26.4139 23.1449 25.1464 22.4951C24.4227 22.1234 23.8865 21.9994 23.489 22.1158C23.0615 22.236 22.8365 22.435 22.1202 23.3251C21.8315 23.6819 21.5353 24.0162 21.4565 24.0687C21.2615 24.2039 20.8791 24.3129 20.6091 24.3129C19.9828 24.3091 18.8466 23.9035 17.9729 23.3702C17.2942 22.9571 16.4242 22.2173 15.7567 21.4849C14.9692 20.6249 14.433 19.8663 14.0093 19.01C13.4618 17.9096 13.3231 17.2374 13.5518 16.7454C13.608 16.6215 13.6831 16.49 13.7168 16.4487C13.7505 16.4112 14.103 16.122 14.493 15.8065C15.258 15.1981 15.3817 15.0592 15.5242 14.6423C15.7042 14.1127 15.6555 13.5719 15.378 13.0274C15.1642 12.6143 14.6055 11.7129 14.2005 11.1308C13.6643 10.3647 12.3293 8.72732 12.0631 8.50568C11.5831 8.11514 10.9682 8.0475 10.2894 8.31044C9.5732 8.58836 8.2307 9.66995 7.65696 10.4248C7.13947 11.1083 6.94079 11.5928 6.91076 12.2312C6.88453 12.757 6.92951 12.9748 7.20701 13.6471C9.37819 18.9198 12.618 23.1298 17.0692 26.4723C19.3941 28.2186 21.8053 29.5481 24.3064 30.457C25.7651 30.9865 26.3989 31.0127 27.1451 30.5772C27.46 30.3893 28.24 29.5894 28.675 29.0073C29.395 28.0383 29.6613 27.5915 29.7362 27.2347C29.7887 26.9906 29.7475 26.5662 29.65 26.2958Z" fill="white"/>
<path fill-rule="evenodd" clip-rule="evenodd" d="M24.0622 16.5923C23.9697 15.8416 23.739 15.2521 23.3292 14.7299C22.7971 14.0576 22.1171 13.655 21.1104 13.4162C20.4543 13.257 20.1892 13.2753 19.9519 13.492C19.7309 13.6951 19.6877 14.1022 19.8566 14.3658C19.9754 14.5572 20.1124 14.6257 20.4936 14.7005C21.0011 14.7939 21.3519 14.9151 21.6709 15.0975C22.3482 15.4886 22.6635 16.1005 22.6973 17.0911C22.7131 17.5563 22.7533 17.6993 22.9157 17.8642C23.2168 18.1658 23.7527 18.1072 23.98 17.7463C24.0635 17.6103 24.0762 17.5511 24.085 17.2352C24.0908 17.0397 24.0824 16.7486 24.0622 16.5923Z" fill="white"/>
<path fill-rule="evenodd" clip-rule="evenodd" d="M26.7148 17.4388C26.581 15.1388 25.6814 13.2882 24.0713 11.9862C23.1642 11.2547 22.0676 10.7516 20.8657 10.5069C20.4254 10.4194 19.6148 10.3485 19.4757 10.3891C19.3444 10.4267 19.1588 10.5688 19.0761 10.6973C18.9886 10.8366 18.9689 11.1477 19.0435 11.3277C19.164 11.6286 19.3881 11.7348 20.0157 11.7898C20.9832 11.8744 21.9811 12.2143 22.7351 12.7175C23.5959 13.2905 24.2801 14.0742 24.7228 14.995C25.1053 15.7863 25.3405 16.9265 25.334 17.9476C25.3318 18.3169 25.3889 18.5254 25.5374 18.6779C25.7615 18.9124 26.0883 18.9636 26.3767 18.8079C26.6963 18.6398 26.7711 18.3448 26.7148 17.4388Z" fill="white"/>
<path fill-rule="evenodd" clip-rule="evenodd" d="M29.4149 17.9668C29.3669 16.6657 29.1478 15.5985 28.691 14.4087C28.2401 13.2383 27.7837 12.4746 26.9217 11.4416C26.1068 10.473 25.4739 9.92003 24.47 9.30444C23.0695 8.44675 21.365 7.87917 19.4549 7.64047C18.8035 7.55704 18.6561 7.563 18.4562 7.69635C18.069 7.94896 18.0741 8.57902 18.4626 8.82785C18.5912 8.907 18.7053 8.93583 19.2264 9.00404C20.0263 9.11173 20.5406 9.21322 21.1509 9.37973C23.5441 10.0339 25.3846 11.3712 26.6149 13.3563C27.6446 15.0108 28.072 16.6655 28.0113 18.7789C27.9902 19.4933 28.0055 19.6191 28.1148 19.7907C28.3239 20.1107 28.8755 20.1739 29.1584 19.9084C29.3345 19.7467 29.3677 19.6252 29.4023 19.0137C29.419 18.6947 29.4225 18.2238 29.4149 17.9668Z" fill="white"/>
</svg>
