<svg width="25" height="24" viewBox="0 0 25 24" fill="none" xmlns="http://www.w3.org/2000/svg">
<path fill-rule="evenodd" clip-rule="evenodd" d="M12.4138 0C19.2697 0 24.8276 5.37258 24.8276 12C24.8276 18.6274 19.2697 24 12.4138 24C5.55784 24 0 18.6274 0 12C0 5.37258 5.55784 0 12.4138 0Z" fill="#7F4DA0"/>
<path fill-rule="evenodd" clip-rule="evenodd" d="M19.3718 16.6081C19.3424 16.525 19.2738 16.397 19.2248 16.3234C18.9161 15.8728 17.2575 14.618 16.4294 14.2076C15.9565 13.9729 15.6062 13.8946 15.3465 13.9681C15.0672 14.044 14.9202 14.1697 14.4522 14.7319C14.2636 14.9572 14.07 15.1683 14.0186 15.2015C13.8911 15.2869 13.6413 15.3557 13.4649 15.3557C13.0557 15.3533 12.3133 15.0971 11.7425 14.7603C11.299 14.4994 10.7307 14.0322 10.2945 13.5696C9.78002 13.0265 9.42971 12.5473 9.15283 12.0065C8.79514 11.3116 8.70449 10.887 8.85392 10.5762C8.89068 10.498 8.93969 10.415 8.96171 10.3888C8.98378 10.3652 9.21409 10.1825 9.46886 9.98325C9.96869 9.59902 10.0495 9.51125 10.1426 9.24797C10.2602 8.9135 10.2284 8.57195 10.0471 8.22804C9.90743 7.96711 9.54238 7.39786 9.27779 7.03021C8.92744 6.54636 8.05523 5.5122 7.88125 5.37221C7.56766 5.12556 7.16589 5.08284 6.7224 5.2489C6.25449 5.42443 5.37736 6.10754 5.0025 6.5843C4.66439 7.01599 4.53459 7.32195 4.51497 7.72518C4.49783 8.05724 4.52722 8.19481 4.70852 8.6194C6.12708 11.9496 8.24386 14.6085 11.152 16.7196C12.671 17.8225 14.2464 18.6622 15.8806 19.2362C16.8336 19.5706 17.2477 19.5872 17.7352 19.3121C17.941 19.1935 18.4506 18.6883 18.7348 18.3206C19.2052 17.7086 19.3792 17.4264 19.4282 17.201C19.4625 17.0469 19.4355 16.7789 19.3718 16.6081Z" fill="white"/>
<path fill-rule="evenodd" clip-rule="evenodd" d="M15.721 10.4796C15.6606 10.0054 15.5098 9.63311 15.2421 9.30333C14.8944 8.87869 14.4501 8.62441 13.7924 8.47357C13.3637 8.37303 13.1905 8.38458 13.0355 8.52147C12.8911 8.64973 12.8629 8.90685 12.9732 9.07335C13.0508 9.1942 13.1404 9.2375 13.3894 9.28475C13.721 9.34372 13.9502 9.42027 14.1586 9.53549C14.6011 9.78246 14.8072 10.1689 14.8292 10.7946C14.8395 11.0884 14.8658 11.1787 14.9719 11.2829C15.1687 11.4733 15.5188 11.4363 15.6673 11.2084C15.7218 11.1225 15.7301 11.0851 15.7359 10.8856C15.7397 10.7621 15.7342 10.5783 15.721 10.4796Z" fill="white"/>
<path fill-rule="evenodd" clip-rule="evenodd" d="M17.4541 11.0142C17.3667 9.56153 16.7789 8.39278 15.7269 7.57046C15.1343 7.10841 14.4178 6.79069 13.6325 6.63617C13.3449 6.58091 12.8152 6.53611 12.7244 6.56174C12.6386 6.58546 12.5173 6.67521 12.4633 6.75637C12.4061 6.84438 12.3932 7.04088 12.442 7.15454C12.5207 7.34456 12.6671 7.41169 13.0772 7.44637C13.7093 7.49983 14.3613 7.71451 14.8539 8.03233C15.4163 8.3942 15.8634 8.88914 16.1526 9.47075C16.4025 9.97047 16.5562 10.6906 16.5519 11.3355C16.5505 11.5688 16.5878 11.7005 16.6848 11.7968C16.8313 11.9449 17.0448 11.9772 17.2332 11.8789C17.442 11.7727 17.4908 11.5864 17.4541 11.0142Z" fill="white"/>
<path fill-rule="evenodd" clip-rule="evenodd" d="M19.2182 11.3476C19.1868 10.5259 19.0437 9.8519 18.7453 9.10044C18.4506 8.36124 18.1524 7.87888 17.5893 7.22647C17.0569 6.61476 16.6433 6.26549 15.9874 5.87669C15.0724 5.335 13.9588 4.97652 12.7107 4.82576C12.2851 4.77307 12.1889 4.77684 12.0583 4.86106C11.8053 5.0206 11.8086 5.41854 12.0625 5.57569C12.1465 5.62568 12.221 5.64389 12.5615 5.68697C13.0841 5.75498 13.4201 5.81908 13.8189 5.92425C15.3825 6.33744 16.585 7.18201 17.3888 8.43574C18.0616 9.48074 18.3408 10.5258 18.3012 11.8605C18.2874 12.3118 18.2974 12.3912 18.3688 12.4996C18.5054 12.7017 18.8658 12.7416 19.0506 12.574C19.1657 12.4718 19.1874 12.395 19.21 12.0088C19.2209 11.8074 19.2232 11.51 19.2182 11.3476Z" fill="white"/>
</svg>
