<svg width="24" height="24" viewBox="0 0 24 24" fill="none" xmlns="http://www.w3.org/2000/svg">
<path fill-rule="evenodd" clip-rule="evenodd" d="M12 24C18.6274 24 24 18.6274 24 12C24 5.37258 18.6274 0 12 0C5.37258 0 0 5.37258 0 12C0 18.6274 5.37258 24 12 24Z" fill="#BDBDBD"/>
<path fill-rule="evenodd" clip-rule="evenodd" d="M12.3952 18.6757H12.3923C11.1981 18.6753 10.0246 18.3756 8.98238 17.8071L5.19971 18.7994L6.21201 15.1018C5.58757 14.0197 5.259 12.7922 5.25953 11.5345C5.2611 7.60026 8.46212 4.39941 12.3952 4.39941C14.304 4.40024 16.0956 5.14335 17.4428 6.49212C18.79 7.84082 19.5315 9.63358 19.5308 11.5402C19.5292 15.4735 16.3295 18.6741 12.3952 18.6757ZM9.1577 16.5152L9.37427 16.6438C10.2849 17.1841 11.3287 17.47 12.3929 17.4704H12.3953C15.6642 17.4704 18.3247 14.8098 18.326 11.5396C18.3266 9.95488 17.7103 8.46482 16.5906 7.34377C15.4709 6.22272 13.9818 5.60504 12.3976 5.60449C9.12623 5.60449 6.46565 8.26483 6.46436 11.5348C6.4639 12.6555 6.77745 13.7468 7.37114 14.6911L7.51215 14.9155L6.91301 17.104L9.1577 16.5152ZM15.9902 13.2369C15.9456 13.1626 15.8268 13.118 15.6485 13.0287C15.4702 12.9394 14.5936 12.5082 14.4301 12.4486C14.2667 12.3891 14.1478 12.3594 14.029 12.5378C13.9102 12.7163 13.5685 13.118 13.4645 13.2369C13.3604 13.3559 13.2564 13.3708 13.0782 13.2816C12.8999 13.1923 12.3254 13.0041 11.6444 12.3966C11.1144 11.9238 10.7565 11.34 10.6525 11.1615C10.5485 10.983 10.6414 10.8865 10.7307 10.7976C10.8109 10.7177 10.909 10.5893 10.9982 10.4853C11.0873 10.3812 11.117 10.3068 11.1764 10.1879C11.2359 10.0688 11.2062 9.96473 11.1616 9.87548C11.117 9.78623 10.7604 8.90863 10.6119 8.55163C10.4671 8.20397 10.3201 8.25107 10.2107 8.24557C10.1068 8.24036 9.98784 8.23926 9.86899 8.23926C9.75014 8.23926 9.55697 8.28388 9.39355 8.46238C9.23012 8.64088 8.76953 9.07223 8.76953 9.94977C8.76953 10.8274 9.4084 11.6752 9.49755 11.7942C9.58669 11.9132 10.7548 13.714 12.5433 14.4863C12.9687 14.67 13.3008 14.7797 13.5597 14.8619C13.9868 14.9976 14.3756 14.9785 14.6827 14.9325C15.0253 14.8814 15.7376 14.5013 15.8862 14.0848C16.0347 13.6683 16.0347 13.3113 15.9902 13.2369Z" fill="#FDFDFD"/>
</svg>
