<svg width="38" height="38" viewBox="0 0 38 38" fill="none" xmlns="http://www.w3.org/2000/svg">
<path fill-rule="evenodd" clip-rule="evenodd" d="M19 38C29.4934 38 38 29.4934 38 19C38 8.50659 29.4934 0 19 0C8.50659 0 0 8.50659 0 19C0 29.4934 8.50659 38 19 38Z" fill="#25D366"/>
<path fill-rule="evenodd" clip-rule="evenodd" d="M19.6258 29.5704H19.6212C17.7303 29.5697 15.8723 29.0953 14.2221 28.1952L8.23291 29.7663L9.83573 23.9118C8.84703 22.1984 8.32679 20.2548 8.32763 18.2636C8.33011 12.0343 13.3984 6.96631 19.6257 6.96631C22.6481 6.96761 25.4848 8.1442 27.6178 10.2798C29.7509 12.4152 30.925 15.2537 30.9238 18.2725C30.9213 24.5004 25.855 29.5678 19.6258 29.5704ZM14.4997 26.1497L14.8426 26.3532C16.2844 27.2087 17.9371 27.6615 19.6221 27.6621H19.6259C24.8017 27.6621 29.0142 23.4495 29.0163 18.2716C29.0172 15.7625 28.0414 13.4032 26.2685 11.6282C24.4956 9.85321 22.1378 8.87522 19.6296 8.87435C14.4499 8.87435 10.2373 13.0865 10.2353 18.264C10.2345 20.0384 10.731 21.7664 11.671 23.2615L11.8943 23.6168L10.9456 27.082L14.4997 26.1497ZM25.3178 20.9591C25.2472 20.8413 25.0591 20.7707 24.7768 20.6293C24.4945 20.488 23.1066 19.8052 22.8478 19.7109C22.589 19.6167 22.4008 19.5696 22.2126 19.8522C22.0245 20.1347 21.4834 20.7707 21.3188 20.9591C21.1541 21.1474 20.9894 21.1711 20.7072 21.0297C20.4249 20.8884 19.5153 20.5903 18.437 19.6286C17.5978 18.88 17.0312 17.9556 16.8666 17.673C16.7019 17.3903 16.849 17.2376 16.9903 17.0968C17.1173 16.9703 17.2726 16.767 17.4138 16.6022C17.5549 16.4375 17.602 16.3196 17.6961 16.1313C17.7902 15.9429 17.7431 15.7781 17.6725 15.6368C17.602 15.4954 17.0374 14.1059 16.8022 13.5407C16.573 12.9902 16.3403 13.0648 16.167 13.0561C16.0025 13.0478 15.8141 13.0461 15.6259 13.0461C15.4378 13.0461 15.1319 13.1167 14.8732 13.3993C14.6144 13.682 13.8851 14.3649 13.8851 15.7544C13.8851 17.1439 14.8967 18.4863 15.0378 18.6746C15.179 18.8631 17.0284 21.7144 19.8603 22.9372C20.5338 23.2281 21.0596 23.4018 21.4696 23.5319C22.1459 23.7468 22.7613 23.7165 23.2477 23.6438C23.7901 23.5627 24.9179 22.9609 25.1532 22.3015C25.3883 21.642 25.3883 21.0768 25.3178 20.9591Z" fill="#FDFDFD"/>
</svg>
