<svg width="102" height="111" viewBox="0 0 102 111" fill="none" xmlns="http://www.w3.org/2000/svg">
<path d="M88.9 27.7765L83.3332 22.5769C83.1068 22.3641 82.8585 22.1744 82.5914 22.0077C82.3244 21.8397 82.0427 21.6987 81.7452 21.5836C81.4476 21.4684 81.1428 21.3816 80.8263 21.322C80.5113 21.2637 80.1934 21.2339 79.8712 21.2339C79.5504 21.2326 79.231 21.261 78.916 21.3193C78.601 21.3776 78.2948 21.4629 77.9972 21.5781C77.6996 21.692 77.4166 21.8315 77.1495 21.9982C76.8809 22.1636 76.6327 22.3533 76.4048 22.5647L71.1791 27.4486C70.7683 27.8321 83.5829 39.2301 83.9487 38.8845L88.9 34.2418C89.125 34.0277 89.3268 33.7974 89.5039 33.5467C89.681 33.2973 89.8305 33.0331 89.9524 32.7566C90.0729 32.4788 90.1658 32.1942 90.2282 31.9002C90.2892 31.6061 90.3211 31.3093 90.3211 31.0099C90.3211 30.709 90.2892 30.4122 90.2282 30.1182C90.1658 29.8241 90.0729 29.5395 89.9524 29.2617C89.8305 28.9853 89.681 28.721 89.5039 28.4717C89.3268 28.221 89.125 27.9906 88.9 27.7765Z" fill="#46277B"/>
<path d="M23.1039 27.4486L17.8782 22.5647C17.6489 22.3533 17.4007 22.1636 17.1336 21.9982C16.865 21.8315 16.5834 21.692 16.2858 21.5781C15.9883 21.4629 15.682 21.3776 15.3655 21.3193C15.0505 21.261 14.7326 21.2326 14.4104 21.2339C14.0896 21.2339 13.7703 21.2637 13.4553 21.322C13.1403 21.3816 12.834 21.4684 12.5364 21.5836C12.2403 21.6987 11.9587 21.8397 11.6901 22.0077C11.423 22.1744 11.1763 22.3641 10.9484 22.5769L5.38301 27.7765C5.15657 27.9906 4.95625 28.221 4.77915 28.4717C4.60206 28.721 4.45255 28.9853 4.33062 29.2617C4.20868 29.5395 4.11723 29.8241 4.05482 30.1182C3.9924 30.4122 3.96191 30.709 3.96191 31.0099C3.96191 31.3093 3.9924 31.6061 4.05482 31.9002C4.11723 32.1942 4.20868 32.4788 4.33062 32.7566C4.45255 33.0331 4.60206 33.2973 4.77915 33.5467C4.95625 33.7974 5.15657 34.0277 5.38301 34.2418L10.3329 38.8845C10.7002 39.2301 23.5147 27.8321 23.1039 27.4486Z" fill="#46277B"/>
<path d="M53.0128 19.6498V10.1313H41.2695V19.6498C40.5713 19.7406 39.876 19.8463 39.1836 19.9669C38.4897 20.0861 37.8002 20.2203 37.1136 20.3694C36.427 20.5171 35.7448 20.6797 35.0654 20.8572C34.3861 21.0334 33.7126 21.2245 33.0419 21.4291C32.3727 21.6337 31.7079 21.8519 31.0475 22.0836C30.3884 22.3167 29.7352 22.562 29.0864 22.8208C28.439 23.081 27.7974 23.3534 27.163 23.6393C26.5272 23.9252 25.9001 24.2234 25.2789 24.535C24.659 24.8467 24.045 25.1719 23.4397 25.5094C22.8344 25.8468 22.2378 26.1964 21.6485 26.5582C21.0606 26.9201 20.4799 27.2941 19.9095 27.6803C19.3375 28.0652 18.7758 28.4636 18.2242 28.8728C17.6711 29.2821 17.1297 29.7022 16.597 30.1344C16.0657 30.5654 15.5431 31.0085 15.0322 31.4611C14.5212 31.9151 14.0204 32.3785 13.5312 32.8528C13.042 33.3258 12.5645 33.8109 12.0971 34.3042C11.6311 34.7974 11.1768 35.3016 10.734 35.8138C10.2927 36.326 9.86162 36.8478 9.44356 37.379C9.02696 37.9088 8.62197 38.4482 8.23004 38.9956C7.83666 39.5418 7.4578 40.0974 7.092 40.6597C6.7262 41.2235 6.37347 41.794 6.03525 42.3713C5.69703 42.9486 5.37188 43.5326 5.06124 44.1235C4.74915 44.7143 4.45302 45.3119 4.16997 45.9149C3.88691 46.518 3.61837 47.1264 3.36434 47.7417C3.11031 48.3555 2.87225 48.9748 2.64726 49.5995C2.42226 50.2243 2.21323 50.853 2.01872 51.4859C1.82276 52.1187 1.64421 52.7556 1.47873 53.3953C1.31471 54.0362 1.16519 54.6799 1.03165 55.3263C0.898101 55.9727 0.779071 56.6218 0.676009 57.2736C0.572947 57.9241 0.4844 58.5786 0.413273 59.2332C0.340694 59.8877 0.284082 60.5449 0.241986 61.2022C0.201342 61.8594 0.176665 62.518 0.166504 63.1766C0.166504 63.8948 0.185374 64.613 0.223116 65.3299C0.260857 66.0481 0.317468 66.7636 0.392951 67.4791C0.466981 68.1933 0.561334 68.9061 0.674558 69.6175C0.787781 70.3276 0.918423 71.0364 1.06939 71.741C1.2189 72.4443 1.38728 73.1463 1.57454 73.8428C1.76034 74.5394 1.96501 75.2318 2.18856 75.9189C2.4121 76.6073 2.65306 77.2889 2.91144 77.9651C3.17128 78.6413 3.44708 79.3121 3.74175 79.9748C4.03642 80.6388 4.34706 81.2961 4.67657 81.9452C5.00463 82.5943 5.3501 83.2366 5.713 83.8694C6.07589 84.5036 6.45476 85.1284 6.84959 85.7449C7.24442 86.3602 7.65521 86.9673 8.08343 87.5649C8.5102 88.1625 8.95293 88.7493 9.41018 89.3266C9.86888 89.9038 10.3406 90.4703 10.8284 91.0259C11.3161 91.5801 11.8184 92.1249 12.3351 92.6561C12.8519 93.1887 13.3817 93.7091 13.9246 94.2172C14.4689 94.7254 15.0249 95.22 15.5954 95.7025C16.1644 96.1849 16.7465 96.6551 17.3402 97.1104C17.9353 97.5658 18.5406 98.0075 19.1575 98.4358C19.7759 98.864 20.4045 99.2773 21.0432 99.6771C21.6818 100.075 22.3322 100.46 22.9912 100.829C23.6502 101.199 24.3194 101.553 24.9973 101.891C25.6751 102.23 26.3617 102.553 27.0571 102.86C27.7524 103.168 28.4549 103.458 29.1648 103.733C29.8746 104.008 30.5917 104.267 31.316 104.508C32.0403 104.751 32.769 104.976 33.505 105.184C34.2409 105.393 34.9812 105.585 35.7274 105.759C36.4735 105.934 37.2225 106.091 37.9773 106.232C38.7307 106.371 39.4884 106.495 40.249 106.6C41.0097 106.705 41.7717 106.793 42.5367 106.863C43.3017 106.934 44.0681 106.987 44.836 107.022C45.6039 107.057 46.3733 107.075 47.1411 107.075C47.9105 107.075 48.6784 107.057 49.4463 107.022C50.2141 106.987 50.9806 106.934 51.7456 106.863C52.5105 106.793 53.2741 106.705 54.0347 106.6C54.7953 106.495 55.5516 106.371 56.3064 106.232C57.0598 106.091 57.8103 105.934 58.5549 105.759C59.301 105.585 60.0413 105.393 60.7773 105.184C61.5132 104.976 62.2434 104.751 62.9663 104.508C63.6906 104.267 64.4077 104.008 65.1175 103.733C65.8288 103.458 66.5314 103.168 67.2267 102.86C67.9205 102.553 68.6071 102.23 69.285 101.891C69.9629 101.553 70.6321 101.199 71.2911 100.829C71.9516 100.46 72.6004 100.075 73.2391 99.6771C73.8793 99.2773 74.5078 98.864 75.1247 98.4358C75.7417 98.0075 76.3484 97.5658 76.9421 97.1104C77.5373 96.6551 78.1179 96.1849 78.6884 95.7025C79.2574 95.22 79.8148 94.7254 80.3577 94.2172C80.902 93.7091 81.4319 93.1887 81.9486 92.6561C82.4639 92.1249 82.9662 91.5801 83.4539 91.0259C83.9416 90.4703 84.4149 89.9038 84.8721 89.3266C85.3308 88.7493 85.7735 88.1625 86.2003 87.5649C86.6271 86.9673 87.0379 86.3602 87.4341 85.7449C87.829 85.1284 88.2078 84.5036 88.5707 83.8694C88.9322 83.2366 89.2777 82.5943 89.6072 81.9452C89.9352 81.2961 90.2473 80.6388 90.5405 79.9748C90.8352 79.3121 91.1124 78.6413 91.3708 77.9651C91.6292 77.2889 91.8716 76.6073 92.0937 75.9189C92.3173 75.2318 92.5219 74.5394 92.7092 73.8428C92.8964 73.1463 93.0648 72.4443 93.2143 71.741C93.3639 71.0364 93.4959 70.3276 93.6077 69.6175C93.7209 68.9061 93.8153 68.1933 93.8908 67.4791C93.9663 66.7636 94.0229 66.0481 94.0606 65.3299C94.0984 64.613 94.1172 63.8948 94.1172 63.1766C94.1071 62.518 94.0809 61.8594 94.0403 61.2022C93.9996 60.5449 93.943 59.8877 93.8705 59.2332C93.7979 58.5786 93.7108 57.9241 93.6077 57.2736C93.5047 56.6218 93.3856 55.9727 93.2506 55.3263C93.1171 54.6799 92.9676 54.0362 92.8035 53.3953C92.6395 52.7556 92.4595 52.1187 92.265 51.4859C92.0705 50.853 91.86 50.2243 91.6365 49.5995C91.4115 48.9748 91.172 48.3555 90.9179 47.7417C90.6639 47.1264 90.3954 46.518 90.1138 45.9149C89.8307 45.3119 89.5331 44.7143 89.2225 44.1235C88.9119 43.5326 88.5867 42.9486 88.247 42.3713C87.9088 41.794 87.5561 41.2235 87.1903 40.6597C86.8245 40.0974 86.4456 39.5418 86.0537 38.9956C85.6618 38.4482 85.2568 37.9088 84.8387 37.379C84.4207 36.8478 83.991 36.326 83.5483 35.8138C83.1055 35.3016 82.6512 34.7974 82.1852 34.3042C81.7193 33.8109 81.2417 33.3258 80.7511 32.8528C80.2619 32.3785 79.7625 31.9151 79.2516 31.4611C78.7392 31.0085 78.2181 30.5654 77.6853 30.1344C77.154 29.7022 76.6112 29.2821 76.0595 28.8728C75.5065 28.4636 74.9447 28.0652 74.3743 27.6803C73.8023 27.2941 73.2232 26.9201 72.6338 26.5582C72.0459 26.1964 71.4479 25.8468 70.8426 25.5094C70.2373 25.1719 69.6247 24.8467 69.0034 24.535C68.3836 24.2234 67.7551 23.9252 67.1207 23.6393C66.4849 23.3534 65.8433 23.081 65.1959 22.8208C64.5485 22.562 63.8938 22.3167 63.2348 22.0836C62.5758 21.8519 61.911 21.6337 61.2404 21.4291C60.5712 21.2245 59.8962 21.0334 59.2183 20.8572C58.539 20.6797 57.8553 20.5171 57.1687 20.3694C56.4821 20.2203 55.7926 20.0861 55.1002 19.9669C54.4063 19.8463 53.711 19.7406 53.0128 19.6498Z" fill="#46277B"/>
<path d="M86.2871 63.1769C86.2871 63.7745 86.2712 64.3735 86.2407 64.9711C86.2087 65.57 86.1623 66.1663 86.0984 66.7626C86.036 67.3575 85.9576 67.9524 85.8633 68.5445C85.7689 69.1367 85.66 69.7262 85.5352 70.313C85.4104 70.9011 85.2696 71.4838 85.1142 72.0652C84.9589 72.6465 84.7876 73.2225 84.6018 73.7957C84.416 74.3689 84.2143 74.9367 83.9994 75.5004C83.7831 76.0642 83.5523 76.6225 83.307 77.1754C83.0617 77.7296 82.8033 78.2757 82.529 78.8178C82.2546 79.3585 81.9672 79.8938 81.6653 80.4209C81.3634 80.9494 81.0469 81.4698 80.7174 81.9834C80.3879 82.497 80.0453 83.0024 79.6897 83.5011C79.334 83.9985 78.9653 84.4877 78.5836 84.9687C78.2018 85.4498 77.8084 85.9214 77.402 86.3835C76.9956 86.847 76.5775 87.2996 76.1464 87.744C75.7167 88.1872 75.274 88.6208 74.8211 89.0436C74.3682 89.4678 73.9051 89.8797 73.4305 90.2822C72.9558 90.6847 72.471 91.075 71.9745 91.4544C71.4795 91.8352 70.9744 92.2024 70.4605 92.5602C69.9452 92.9166 69.4226 93.2608 68.8899 93.5941C68.3572 93.9262 67.8157 94.246 67.2656 94.5536C66.7169 94.8626 66.1595 95.1566 65.5948 95.4385C65.0302 95.7217 64.4568 95.99 63.8776 96.2461C63.2999 96.5023 62.7134 96.7448 62.1212 96.9738C61.5304 97.2029 60.9323 97.4183 60.3285 97.6202C59.7261 97.8222 59.1179 98.0092 58.5053 98.184C57.8913 98.3574 57.2744 98.5173 56.6531 98.6623C56.0318 98.8073 55.4062 98.9388 54.7776 99.0553C54.1506 99.1732 53.5191 99.2749 52.8848 99.3629C52.2519 99.451 51.6161 99.5242 50.9789 99.5825C50.3402 99.6407 49.7015 99.6855 49.0613 99.7153C48.4226 99.7437 47.7825 99.7586 47.1409 99.7586C46.5007 99.7586 45.8606 99.7437 45.2204 99.7153C44.5803 99.6855 43.9416 99.6407 43.3043 99.5825C42.6671 99.5242 42.0313 99.451 41.397 99.3629C40.7641 99.2749 40.1326 99.1732 39.5041 99.0553C38.8756 98.9388 38.2514 98.8073 37.6301 98.6623C37.0074 98.5173 36.3905 98.3574 35.7779 98.184C35.1639 98.0092 34.5571 97.8222 33.9533 97.6202C33.3494 97.4183 32.7528 97.2029 32.1606 96.9738C31.5683 96.7448 30.9833 96.5023 30.4041 96.2461C29.825 95.99 29.253 95.7217 28.6884 95.4385C28.1223 95.1566 27.5648 94.8626 27.0162 94.5536C26.466 94.246 25.926 93.9262 25.3933 93.5941C24.8606 93.2608 24.3365 92.9166 23.8212 92.5602C23.3074 92.2024 22.8022 91.8352 22.3072 91.4544C21.8122 91.075 21.3274 90.6847 20.8527 90.2822C20.3781 89.8797 19.9136 89.4678 19.4607 89.0436C19.0078 88.6208 18.5665 88.1872 18.1354 87.744C17.7057 87.2996 17.2877 86.847 16.8812 86.3835C16.4748 85.9214 16.0799 85.4498 15.6982 84.9687C15.3164 84.4877 14.9477 83.9985 14.5921 83.5011C14.2364 83.0024 13.8939 82.497 13.5643 81.9834C13.2348 81.4698 12.9198 80.9494 12.6179 80.4209C12.316 79.8938 12.0271 79.3585 11.7528 78.8178C11.4799 78.2757 11.22 77.7296 10.9747 77.1754C10.7294 76.6225 10.4986 76.0642 10.2838 75.5004C10.0675 74.9367 9.86717 74.3689 9.68137 73.7957C9.49411 73.2225 9.32428 72.6465 9.16751 72.0652C9.01219 71.4838 8.87284 70.9011 8.74655 70.313C8.62171 69.7262 8.51284 69.1367 8.41849 68.5445C8.32414 67.9524 8.24575 67.3575 8.18333 66.7626C8.12092 66.1663 8.07301 65.57 8.04253 64.9711C8.0106 64.3735 7.99463 63.7745 7.99463 63.1769C7.99463 62.5779 8.0106 61.9789 8.04253 61.3813C8.07301 60.7837 8.12092 60.1861 8.18333 59.5912C8.24575 58.9949 8.32414 58.4014 8.41849 57.8092C8.51284 57.217 8.62171 56.6262 8.74655 56.0394C8.87284 55.4526 9.01219 54.8686 9.16751 54.2872C9.32428 53.7072 9.49411 53.1299 9.68137 52.5567C9.86717 51.9848 10.0675 51.4157 10.2838 50.852C10.4986 50.2882 10.7294 49.7299 10.9747 49.177C11.22 48.6241 11.4799 48.0766 11.7528 47.5359C12.0271 46.9939 12.316 46.46 12.6179 45.9315C12.9198 45.403 13.2348 44.8826 13.5643 44.369C13.8939 43.8554 14.2364 43.3499 14.5921 42.8526C14.9477 42.3539 15.3164 41.8647 15.6982 41.385C16.0799 40.9039 16.4748 40.431 16.8812 39.9689C17.2877 39.5054 17.7057 39.0528 18.1354 38.6097C18.5665 38.1652 19.0078 37.7316 19.4607 37.3088C19.9136 36.886 20.3781 36.4727 20.8527 36.0702C21.3274 35.6691 21.8122 35.2774 22.3072 34.898C22.8022 34.5186 23.3074 34.15 23.8212 33.7936C24.3365 33.4372 24.8606 33.0916 25.3933 32.7596C25.926 32.4262 26.466 32.1064 27.0162 31.7988C27.5648 31.4912 28.1223 31.1958 28.6884 30.9139C29.253 30.632 29.825 30.3624 30.4041 30.1063C30.9833 29.8501 31.5683 29.6076 32.1606 29.3785C32.7528 29.1495 33.3494 28.9341 33.9533 28.7321C34.5571 28.5302 35.1639 28.3432 35.7779 28.1698C36.3905 27.995 37.0074 27.8364 37.6301 27.6901C38.2514 27.5451 38.8756 27.4136 39.5041 27.2971C40.1326 27.1805 40.7641 27.0775 41.397 26.9894C42.0313 26.9027 42.6671 26.8295 43.3043 26.7699C43.9416 26.7116 44.5803 26.6669 45.2204 26.6385C45.8606 26.6087 46.5007 26.5938 47.1409 26.5938C47.7825 26.5938 48.4226 26.6087 49.0613 26.6385C49.7015 26.6669 50.3402 26.7116 50.9789 26.7699C51.6161 26.8295 52.2519 26.9027 52.8848 26.9894C53.5191 27.0775 54.1506 27.1805 54.7776 27.2971C55.4062 27.4136 56.0318 27.5451 56.6531 27.6901C57.2744 27.8364 57.8913 27.995 58.5053 28.1698C59.1179 28.3432 59.7261 28.5302 60.3285 28.7321C60.9323 28.9341 61.5304 29.1495 62.1212 29.3785C62.7134 29.6076 63.2999 29.8501 63.8776 30.1063C64.4568 30.3624 65.0302 30.632 65.5948 30.9139C66.1595 31.1958 66.7169 31.4912 67.2656 31.7988C67.8157 32.1064 68.3572 32.4262 68.8899 32.7596C69.4226 33.0916 69.9452 33.4372 70.4605 33.7936C70.9744 34.15 71.4795 34.5186 71.9745 34.898C72.471 35.2774 72.9558 35.6691 73.4305 36.0702C73.9051 36.4727 74.3682 36.886 74.8211 37.3088C75.274 37.7316 75.7167 38.1652 76.1464 38.6097C76.5775 39.0528 76.9956 39.5054 77.402 39.9689C77.8084 40.431 78.2018 40.9039 78.5836 41.385C78.9653 41.8647 79.334 42.3539 79.6897 42.8526C80.0453 43.3499 80.3879 43.8554 80.7174 44.369C81.0469 44.8826 81.3634 45.403 81.6653 45.9315C81.9672 46.46 82.2546 46.9939 82.529 47.5359C82.8033 48.0766 83.0617 48.6241 83.307 49.177C83.5523 49.7299 83.7831 50.2882 83.9994 50.852C84.2143 51.4157 84.416 51.9848 84.6018 52.5567C84.7876 53.1299 84.9589 53.7072 85.1142 54.2872C85.2696 54.8686 85.4104 55.4526 85.5352 56.0394C85.66 56.6262 85.7689 57.217 85.8633 57.8092C85.9576 58.4014 86.036 58.9949 86.0984 59.5912C86.1623 60.1861 86.2087 60.7837 86.2407 61.3813C86.2712 61.9789 86.2871 62.5779 86.2871 63.1769Z" fill="white"/>
<path d="M39.3124 0.98584H54.9706C55.2275 0.98584 55.4816 1.01023 55.7341 1.05631C55.9867 1.10374 56.2306 1.17285 56.4686 1.265C56.7052 1.35715 56.9317 1.46962 57.1451 1.60242C57.3584 1.73658 57.5573 1.88836 57.7388 2.05775C57.9202 2.22714 58.0828 2.41279 58.225 2.612C58.3673 2.81256 58.4892 3.0226 58.5865 3.24484C58.6852 3.46709 58.7592 3.69475 58.81 3.93054C58.8594 4.16633 58.8855 4.40484 58.8855 4.6447V10.1316C58.8855 10.3728 58.8594 10.61 58.81 10.8458C58.7592 11.0816 58.6852 11.3106 58.5865 11.5315C58.4892 11.7537 58.3673 11.9651 58.225 12.1643C58.0828 12.3635 57.9202 12.5492 57.7388 12.7186C57.5573 12.8893 57.3584 13.0397 57.1451 13.1739C56.9317 13.3067 56.7052 13.4205 56.4686 13.5113C56.2306 13.6035 55.9867 13.6726 55.7341 13.72C55.4816 13.7674 55.2275 13.7905 54.9706 13.7905H39.3124C39.0554 13.7905 38.8 13.7674 38.5488 13.72C38.2963 13.6726 38.051 13.6035 37.8143 13.5113C37.5763 13.4205 37.3513 13.3067 37.1365 13.1739C36.9231 13.0397 36.7257 12.8893 36.5442 12.7186C36.3613 12.5492 36.2002 12.3635 36.0565 12.1643C35.9142 11.9651 35.7937 11.7537 35.695 11.5315C35.5963 11.3106 35.5223 11.0816 35.4729 10.8458C35.4221 10.61 35.3975 10.3728 35.3975 10.1316V4.6447C35.3975 4.40484 35.4221 4.16633 35.4729 3.93054C35.5223 3.69475 35.5963 3.46709 35.695 3.24484C35.7937 3.0226 35.9142 2.81256 36.0565 2.612C36.2002 2.41279 36.3613 2.22714 36.5442 2.05775C36.7257 1.88836 36.9231 1.73658 37.1365 1.60242C37.3513 1.46962 37.5763 1.35715 37.8143 1.265C38.051 1.17285 38.2963 1.10374 38.5488 1.05631C38.8 1.01023 39.0554 0.98584 39.3124 0.98584Z" fill="#46277B"/>
<path d="M101.946 92.4419C101.946 93.0409 101.915 93.6385 101.851 94.2348C101.789 94.831 101.694 95.4232 101.57 96.01C101.445 96.5981 101.289 97.1781 101.104 97.7514C100.918 98.3246 100.702 98.8883 100.456 99.4412C100.211 99.9954 99.9366 100.536 99.6347 101.065C99.3327 101.593 99.0032 102.105 98.6476 102.604C98.2919 103.101 97.9102 103.582 97.5037 104.046C97.0958 104.509 96.6662 104.953 96.2133 105.375C95.7604 105.799 95.2857 106.201 94.7893 106.581C94.2943 106.961 93.7804 107.317 93.2477 107.651C92.7135 107.984 92.1648 108.292 91.6001 108.573C91.034 108.855 90.4549 109.111 89.8626 109.34C89.2704 109.569 88.668 109.771 88.0554 109.945C87.4414 110.12 86.8201 110.265 86.1916 110.381C85.563 110.499 84.9301 110.586 84.2914 110.645C83.6542 110.704 83.014 110.734 82.3724 110.734C81.7323 110.734 81.0921 110.704 80.4549 110.645C79.8162 110.586 79.1833 110.499 78.5548 110.381C77.9262 110.265 77.305 110.12 76.691 109.945C76.0784 109.771 75.4745 109.569 74.8823 109.34C74.29 109.111 73.7123 108.855 73.1462 108.573C72.5815 108.292 72.0314 107.984 71.4986 107.651C70.9659 107.317 70.4521 106.961 69.9556 106.581C69.4606 106.201 68.986 105.799 68.5331 105.375C68.0787 104.953 67.6491 104.509 67.2426 104.046C66.8362 103.582 66.4544 103.101 66.0988 102.604C65.7417 102.105 65.4136 101.593 65.1117 101.065C64.8083 100.536 64.5354 99.9954 64.2901 99.4412C64.0448 98.8883 63.8285 98.3246 63.6427 97.7514C63.4569 97.1781 63.3016 96.5981 63.1753 96.01C63.0504 95.4232 62.9575 94.831 62.8937 94.2348C62.8313 93.6385 62.7993 93.0409 62.7993 92.4419C62.7993 91.843 62.8313 91.2454 62.8937 90.6491C62.9575 90.0529 63.0504 89.4607 63.1753 88.8739C63.3016 88.2858 63.4569 87.7058 63.6427 87.1325C63.8285 86.5593 64.0448 85.9956 64.2901 85.4427C64.5354 84.8884 64.8083 84.3478 65.1117 83.8193C65.4136 83.2907 65.7417 82.7785 66.0988 82.2798C66.4544 81.7825 66.8362 81.3014 67.2426 80.838C67.6491 80.3745 68.0787 79.9314 68.5331 79.5086C68.986 79.0844 69.4606 78.6833 69.9556 78.3025C70.4521 77.9231 70.9659 77.5667 71.4986 77.2333C72.0314 76.9 72.5815 76.5923 73.1462 76.3105C73.7123 76.0286 74.29 75.7725 74.8823 75.5435C75.4745 75.3144 76.0784 75.1125 76.691 74.9377C77.305 74.7643 77.9262 74.6193 78.5548 74.5027C79.1833 74.3848 79.8162 74.2981 80.4549 74.2385C81.0921 74.1802 81.7323 74.1504 82.3724 74.1504C83.014 74.1504 83.6542 74.1802 84.2914 74.2385C84.9301 74.2981 85.563 74.3848 86.1916 74.5027C86.8201 74.6193 87.4414 74.7643 88.0554 74.9377C88.668 75.1125 89.2704 75.3144 89.8626 75.5435C90.4549 75.7725 91.034 76.0286 91.6001 76.3105C92.1648 76.5923 92.7135 76.9 93.2477 77.2333C93.7804 77.5667 94.2943 77.9231 94.7893 78.3025C95.2857 78.6833 95.7604 79.0844 96.2133 79.5086C96.6662 79.9314 97.0958 80.3745 97.5037 80.838C97.9102 81.3014 98.2919 81.7825 98.6476 82.2798C99.0032 82.7785 99.3327 83.2907 99.6347 83.8193C99.9366 84.3478 100.211 84.8884 100.456 85.4427C100.702 85.9956 100.918 86.5593 101.104 87.1325C101.289 87.7058 101.445 88.2858 101.57 88.8739C101.694 89.4607 101.789 90.0529 101.851 90.6491C101.915 91.2454 101.946 91.843 101.946 92.4419Z" fill="#FFC107"/>
<path d="M62.7994 61.6239H52.7442C52.6136 61.2119 52.4336 60.8189 52.2028 60.4463C51.972 60.0723 51.6991 59.7308 51.3827 59.4177C51.0662 59.1047 50.7149 58.831 50.3288 58.5965C49.9427 58.3607 49.5319 58.171 49.0993 58.026V33.9101C49.095 33.7936 49.0775 33.677 49.05 33.5632C49.0209 33.448 48.9817 33.3369 48.9309 33.2298C48.8801 33.1228 48.8177 33.0211 48.7466 32.9249C48.674 32.8287 48.5927 32.7393 48.5027 32.658C48.4113 32.5753 48.314 32.5035 48.2081 32.4384C48.1035 32.3747 47.9918 32.3205 47.8756 32.2772C47.7581 32.2325 47.639 32.1999 47.5156 32.1769C47.3923 32.1552 47.2674 32.1444 47.1411 32.1444C47.0163 32.1444 46.8915 32.1552 46.7681 32.1769C46.6447 32.1999 46.5242 32.2325 46.4081 32.2772C46.2905 32.3205 46.1802 32.3747 46.0742 32.4384C45.9697 32.5035 45.871 32.5753 45.781 32.658C45.691 32.7393 45.6097 32.8287 45.5371 32.9249C45.4646 33.0211 45.4036 33.1228 45.3528 33.2298C45.3005 33.3369 45.2613 33.448 45.2338 33.5632C45.2047 33.677 45.1888 33.7936 45.1844 33.9101V58.026C44.9551 58.1019 44.7315 58.1913 44.5138 58.293C44.2975 58.396 44.087 58.5098 43.8852 58.6358C43.6835 58.7619 43.4904 58.9001 43.3061 59.0491C43.1232 59.1982 42.9504 59.3568 42.7878 59.5261C42.6253 59.6942 42.4743 59.8731 42.335 60.0587C42.1956 60.2457 42.0708 60.4395 41.9575 60.6414C41.8443 60.842 41.7442 61.0493 41.66 61.2621C41.5743 61.4748 41.5032 61.6917 41.4466 61.9125C41.39 62.1334 41.3479 62.357 41.3203 62.5833C41.2942 62.8083 41.2826 63.0359 41.2855 63.2622C41.2898 63.4899 41.3072 63.7162 41.3406 63.9412C41.374 64.1661 41.4234 64.3884 41.4858 64.6079C41.5496 64.8274 41.6266 65.0429 41.718 65.2529C41.8095 65.463 41.9154 65.6676 42.0345 65.8655C42.1535 66.0647 42.2841 66.2544 42.4293 66.4373C42.573 66.6203 42.7298 66.7937 42.8967 66.959C43.0651 67.1244 43.2422 67.2789 43.4309 67.4225C43.6182 67.5661 43.8156 67.6989 44.0202 67.8209C44.2264 67.9415 44.4397 68.0499 44.6604 68.1461C44.8796 68.2424 45.106 68.3264 45.3368 68.3968C45.5691 68.466 45.8042 68.5229 46.0423 68.5662C46.2818 68.6082 46.5228 68.6381 46.7652 68.6516C47.0076 68.6665 47.25 68.6679 47.4924 68.6543C47.7363 68.6408 47.9772 68.6137 48.2153 68.5716C48.4548 68.5296 48.69 68.4754 48.9222 68.4063C49.153 68.3372 49.3795 68.2559 49.6016 68.1597C49.8222 68.0648 50.0356 67.9578 50.2417 67.8372C50.4478 67.7166 50.6467 67.5851 50.8354 67.4428C51.0241 67.2992 51.2027 67.146 51.371 66.9821C51.5394 66.8181 51.6962 66.646 51.8428 66.4631C51.988 66.2815 52.1201 66.0918 52.2405 65.8939C52.361 65.6961 52.467 65.4928 52.5599 65.2827H62.7994C62.9256 65.2787 63.049 65.2624 63.1724 65.2367C63.2943 65.2096 63.4134 65.173 63.528 65.1255C63.6427 65.0781 63.7516 65.0199 63.8547 64.9521C63.9577 64.8857 64.0535 64.8098 64.1406 64.7244C64.2277 64.6404 64.3061 64.5483 64.3743 64.4507C64.4425 64.3518 64.5006 64.2474 64.5471 64.139C64.595 64.0306 64.6298 63.9181 64.6545 63.8029C64.6777 63.6878 64.6908 63.5712 64.6908 63.4533C64.6908 63.3354 64.6777 63.2189 64.6545 63.1037C64.6298 62.9885 64.595 62.876 64.5471 62.7676C64.5006 62.6592 64.4425 62.5549 64.3743 62.4559C64.3061 62.3584 64.2277 62.2662 64.1406 62.1822C64.0535 62.0968 63.9577 62.0209 63.8547 61.9545C63.7516 61.8868 63.6427 61.8285 63.528 61.7811C63.4134 61.7337 63.2943 61.6957 63.1724 61.67C63.049 61.6429 62.9256 61.628 62.7994 61.6239ZM47.1411 65.0049C47.0134 65.0049 46.8857 64.9941 46.7594 64.9697C46.6331 64.9467 46.5112 64.9128 46.3921 64.8667C46.2731 64.8206 46.1613 64.7637 46.0539 64.6973C45.9465 64.6309 45.8478 64.555 45.7578 64.4697C45.6663 64.3843 45.585 64.2921 45.5139 64.1932C45.4428 64.0929 45.3818 63.9872 45.3325 63.8761C45.2846 63.765 45.2468 63.6512 45.2221 63.5333C45.196 63.4154 45.1844 63.2961 45.1844 63.1769C45.1844 63.0563 45.196 62.937 45.2221 62.8191C45.2468 62.7012 45.2846 62.5874 45.3325 62.4763C45.3818 62.3652 45.4428 62.2594 45.5139 62.1605C45.585 62.0602 45.6663 61.9681 45.7578 61.8827C45.8478 61.7987 45.9465 61.7228 46.0539 61.6551C46.1613 61.5887 46.2731 61.5331 46.3921 61.487C46.5112 61.441 46.6331 61.4057 46.7594 61.3827C46.8857 61.3596 47.0134 61.3474 47.1411 61.3474C47.2703 61.3474 47.3966 61.3596 47.5229 61.3827C47.6492 61.4057 47.7711 61.441 47.8902 61.487C48.0092 61.5331 48.1224 61.5887 48.2284 61.6551C48.3358 61.7228 48.4345 61.7987 48.5259 61.8827C48.6159 61.9681 48.6972 62.0602 48.7684 62.1605C48.8409 62.2594 48.9005 62.3652 48.9498 62.4763C48.9992 62.5874 49.0355 62.7012 49.0616 62.8191C49.0863 62.937 49.0993 63.0563 49.0993 63.1769C49.0993 63.2961 49.0863 63.4154 49.0601 63.5333C49.0355 63.6512 48.9992 63.765 48.9498 63.8761C48.9005 63.9872 48.8395 64.0929 48.7684 64.1919C48.6972 64.2921 48.6159 64.3843 48.5245 64.4697C48.4345 64.5537 48.3358 64.6296 48.2284 64.6973C48.121 64.7637 48.0092 64.8193 47.8902 64.8654C47.7711 64.9114 47.6492 64.9467 47.5229 64.9697C47.3966 64.9941 47.2703 65.0049 47.1411 65.0049ZM91.905 76.4734C92.4523 74.8554 92.8964 73.213 93.2376 71.5448C93.5787 69.878 93.8153 68.1976 93.9459 66.5051C94.078 64.8125 94.1027 63.1172 94.0214 61.422C93.9401 59.7267 93.7529 58.0409 93.4611 56.366C93.1679 54.6897 92.7716 53.0364 92.2723 51.4049C91.7729 49.7719 91.1734 48.1729 90.4738 46.6063C89.7741 45.0412 88.9786 43.518 88.0874 42.0382C87.1975 40.5584 86.2177 39.1328 85.1479 37.7614L88.9002 34.2421C89.1252 34.028 89.327 33.7976 89.5041 33.5469C89.6812 33.2976 89.8307 33.0333 89.9526 32.7569C90.0731 32.4791 90.166 32.1945 90.2284 31.9004C90.2894 31.6064 90.3213 31.3096 90.3213 31.0088C90.3213 30.7093 90.2894 30.4125 90.2284 30.1185C90.166 29.8244 90.0731 29.5398 89.9526 29.262C89.8307 28.9856 89.6812 28.7213 89.5041 28.472C89.327 28.2213 89.1252 27.9909 88.9002 27.7768L83.3334 22.5771C83.107 22.3644 82.8588 22.1747 82.5917 22.008C82.3246 21.84 82.043 21.699 81.7454 21.5838C81.4478 21.4686 81.143 21.3819 80.8265 21.3223C80.5116 21.264 80.1937 21.2342 79.8714 21.2329C79.5506 21.2329 79.2313 21.2613 78.9163 21.3196C78.6013 21.3779 78.295 21.4632 77.9974 21.5784C77.6998 21.6922 77.4168 21.8318 77.1497 21.9985C76.8811 22.1638 76.6329 22.3535 76.405 22.5649L72.3333 26.3702C69.4229 24.5895 66.3369 23.1314 63.0766 21.9971C59.8164 20.8629 56.4617 20.081 53.0128 19.6501V13.7905H54.971C55.2279 13.7905 55.4819 13.7661 55.7345 13.7187C55.9856 13.6726 56.2309 13.6021 56.4676 13.5113C56.7056 13.4192 56.9306 13.3053 57.144 13.1725C57.3574 13.0384 57.5562 12.888 57.7377 12.7172C57.9191 12.5478 58.0817 12.3635 58.224 12.163C58.3677 11.9638 58.4882 11.7537 58.5854 11.5315C58.6841 11.3092 58.7596 11.0816 58.809 10.8458C58.8598 10.61 58.8844 10.3728 58.8859 10.1316V4.64469C58.8844 4.40484 58.8598 4.16633 58.809 3.9319C58.7596 3.6961 58.6841 3.46708 58.5854 3.24484C58.4882 3.02396 58.3677 2.81256 58.224 2.61335C58.0817 2.41415 57.9191 2.2285 57.7377 2.0591C57.5562 1.88971 57.3574 1.73794 57.144 1.60378C56.9306 1.47098 56.7056 1.3585 56.4676 1.26635C56.2309 1.1742 55.9856 1.10509 55.7345 1.05766C55.4819 1.01023 55.2279 0.987195 54.971 0.98584H39.3128C39.0558 0.987195 38.8004 1.01023 38.5492 1.05766C38.2967 1.10509 38.0528 1.1742 37.8147 1.26635C37.5781 1.3585 37.3517 1.47098 37.1383 1.60378C36.9249 1.73794 36.7275 1.88971 36.546 2.0591C36.3631 2.2285 36.202 2.41415 36.0583 2.61335C35.9161 2.81256 35.7956 3.02396 35.6969 3.24484C35.5982 3.46708 35.5241 3.6961 35.4733 3.9319C35.4225 4.16633 35.3978 4.40484 35.3978 4.64469V10.1316C35.3978 10.3728 35.4225 10.61 35.4733 10.8458C35.5241 11.0816 35.5982 11.3092 35.6969 11.5315C35.7956 11.7537 35.9161 11.9638 36.0583 12.163C36.202 12.3635 36.3631 12.5478 36.546 12.7172C36.7275 12.888 36.9249 13.0384 37.1383 13.1725C37.3517 13.3053 37.5781 13.4192 37.8147 13.5113C38.0528 13.6021 38.2967 13.6726 38.5492 13.7187C38.8004 13.7661 39.0558 13.7905 39.3128 13.7905H41.2695V19.6501C37.8205 20.081 34.4674 20.8629 31.2057 21.9971C27.9454 23.1314 24.8608 24.5895 21.9504 26.3702L17.8787 22.5649C17.6494 22.3535 17.4011 22.1638 17.134 21.9985C16.8655 21.8318 16.5839 21.6922 16.2863 21.5784C15.9887 21.4632 15.6825 21.3779 15.366 21.3196C15.051 21.2613 14.7331 21.2329 14.4109 21.2342C14.0901 21.2342 13.7707 21.264 13.4557 21.3223C13.1407 21.3819 12.8345 21.4686 12.5369 21.5838C12.2408 21.699 11.9592 21.84 11.6906 22.008C11.4235 22.1747 11.1768 22.3644 10.9489 22.5771L5.38349 27.7768C5.15704 27.9909 4.95672 28.2213 4.77963 28.472C4.60254 28.7213 4.45302 28.9856 4.33109 29.262C4.20916 29.5398 4.11771 29.8244 4.05529 30.1185C3.99287 30.4125 3.96239 30.7093 3.96239 31.0101C3.96239 31.3096 3.99287 31.6064 4.05529 31.9004C4.11771 32.1945 4.20916 32.4791 4.33109 32.7569C4.45302 33.0333 4.60254 33.2976 4.77963 33.5469C4.95672 33.7976 5.15704 34.028 5.38349 34.2421L9.13438 37.76C7.69586 39.5922 6.41992 41.5178 5.30655 43.5383C4.19319 45.5575 3.25547 47.6457 2.49484 49.8044C1.73276 51.9618 1.15648 54.1625 0.766007 56.4039C0.375532 58.6467 0.175213 60.9043 0.166504 63.1769C0.166504 63.8951 0.186826 64.612 0.226019 65.3302C0.26376 66.047 0.321823 66.7626 0.397305 67.4781C0.474239 68.1922 0.568592 68.905 0.683267 69.6151C0.796491 70.3252 0.928584 71.0326 1.07955 71.7372C1.22906 72.4406 1.3989 73.1412 1.58615 73.8377C1.7734 74.5342 1.97953 75.2253 2.20307 75.9124C2.42662 76.6008 2.66758 77.2811 2.92741 77.9573C3.18725 78.6335 3.4645 79.3029 3.75917 79.9669C4.05239 80.6296 4.36448 81.2868 4.69399 81.9346C5.0235 82.5837 5.36897 83.226 5.73187 83.8589C6.09331 84.4917 6.47218 85.1164 6.86846 85.7317C7.26329 86.3483 7.67408 86.954 8.1023 87.5516C8.52907 88.1479 8.9718 88.736 9.42905 89.3119C9.88775 89.8892 10.361 90.4543 10.8487 91.0099C11.335 91.5655 11.8372 92.1089 12.354 92.6401C12.8693 93.1727 13.3991 93.6931 13.9435 94.1999C14.4864 94.7081 15.0423 95.204 15.6128 95.6851C16.1818 96.1675 16.7639 96.6378 17.3576 97.0931C17.9513 97.5484 18.5566 97.9902 19.1735 98.4184C19.7919 98.8466 20.419 99.2599 21.0577 99.6597C21.6964 100.058 22.3452 100.443 23.0042 100.812C23.6633 101.182 24.3324 101.535 25.0103 101.874C25.6868 102.213 26.3734 102.537 27.0672 102.844C27.7625 103.152 28.4651 103.443 29.1749 103.718C29.8847 103.993 30.6004 104.252 31.3247 104.495C32.0476 104.737 32.7763 104.962 33.5122 105.172C34.2467 105.381 34.987 105.574 35.7332 105.748C36.4778 105.923 37.2283 106.082 37.9817 106.223C38.735 106.364 39.4913 106.487 40.2519 106.593C41.0126 106.698 41.7746 106.788 42.5396 106.858C43.3032 106.93 44.0696 106.983 44.8375 107.019C45.6054 107.056 46.3733 107.074 47.1411 107.075C50.4841 107.082 53.7894 106.755 57.0554 106.095C60.323 105.435 63.4772 104.457 66.5183 103.161C66.7331 103.438 66.9538 103.707 67.1846 103.972C67.4139 104.237 67.652 104.495 67.8973 104.748C68.1426 105 68.3952 105.246 68.655 105.484C68.9149 105.724 69.182 105.956 69.4563 106.181C69.7307 106.406 70.0108 106.624 70.2968 106.834C70.5842 107.044 70.8774 107.247 71.1764 107.442C71.4755 107.637 71.7803 107.824 72.0909 108.003C72.4016 108.183 72.7166 108.354 73.0374 108.517C73.3567 108.679 73.6819 108.834 74.0128 108.979C74.3423 109.125 74.6762 109.262 75.0144 109.39C75.3512 109.518 75.6937 109.638 76.0378 109.749C76.3833 109.858 76.7316 109.96 77.0829 110.052C77.4342 110.144 77.7869 110.227 78.144 110.302C78.4997 110.375 78.8582 110.44 79.2182 110.494C79.5782 110.55 79.9396 110.594 80.3011 110.631C80.664 110.667 81.0283 110.695 81.3927 110.711C81.757 110.728 82.1214 110.735 82.4857 110.734C82.8501 110.732 83.2144 110.72 83.5787 110.7C83.9431 110.678 84.306 110.648 84.6689 110.608C85.0303 110.569 85.3918 110.52 85.7503 110.46C86.1103 110.402 86.4674 110.334 86.823 110.257C87.1772 110.178 87.53 110.092 87.8798 109.997C88.2311 109.9 88.578 109.796 88.9206 109.681C89.2646 109.567 89.6057 109.445 89.941 109.312C90.2778 109.181 90.6102 109.041 90.9383 108.892C91.2663 108.742 91.59 108.585 91.9079 108.419C92.2258 108.253 92.5394 108.079 92.8485 107.896C93.1563 107.713 93.4582 107.524 93.7558 107.326C94.0519 107.128 94.3422 106.922 94.6267 106.708C94.9112 106.495 95.1899 106.274 95.4614 106.046C95.7314 105.819 95.9956 105.583 96.254 105.342C96.5109 105.101 96.7606 104.851 97.003 104.596C97.2454 104.342 97.4791 104.082 97.707 103.815C97.9334 103.548 98.1512 103.275 98.3616 102.996C98.5721 102.718 98.7739 102.434 98.9684 102.145C99.1615 101.856 99.3458 101.562 99.5215 101.264C99.6971 100.965 99.864 100.663 100.022 100.355C100.18 100.047 100.329 99.7356 100.468 99.4212C100.606 99.1055 100.736 98.787 100.855 98.4658C100.976 98.1433 101.086 97.8195 101.186 97.4915C101.288 97.1636 101.378 96.8329 101.459 96.5009C101.541 96.1689 101.61 95.8342 101.671 95.4981C101.732 95.162 101.783 94.8246 101.824 94.4858C101.864 94.147 101.895 93.8083 101.915 93.4681C101.935 93.1266 101.946 92.7865 101.946 92.4464C101.946 92.1049 101.935 91.7647 101.915 91.4232C101.895 91.0831 101.864 90.7443 101.824 90.4055C101.783 90.0667 101.732 89.7293 101.671 89.3932C101.61 89.0572 101.539 88.7225 101.458 88.3904C101.378 88.0584 101.287 87.7278 101.186 87.3998C101.085 87.0733 100.975 86.748 100.855 86.4255C100.735 86.1043 100.606 85.7859 100.466 85.4701C100.327 85.1557 100.179 84.8441 100.021 84.5365C99.8626 84.2302 99.6957 83.9266 99.52 83.6285C99.3444 83.329 99.16 83.0363 98.9655 82.7463C98.7725 82.4577 98.5707 82.1745 98.3602 81.8953C98.1497 81.6175 97.9305 81.3451 97.7041 81.0782C97.4776 80.8112 97.2425 80.5497 97.0001 80.2949C96.7577 80.0401 96.508 79.7921 96.2511 79.5509C95.9941 79.3084 95.7299 79.0739 95.4585 78.8463C95.187 78.6186 94.9098 78.3977 94.6253 78.185C94.3408 77.9708 94.049 77.7649 93.7529 77.567C93.4553 77.3692 93.1534 77.1794 92.8456 76.9965C92.5365 76.8136 92.2244 76.6401 91.905 76.4734ZM79.1732 25.1519C79.2646 25.0652 79.3706 25.0001 79.4896 24.954C79.6087 24.9066 79.7335 24.8836 79.8641 24.8836C79.9933 24.8836 80.1182 24.9066 80.2372 24.954C80.3577 25.0001 80.4622 25.0652 80.5551 25.1519L86.1437 30.3746C86.2337 30.4599 86.3034 30.5589 86.3513 30.6713C86.3992 30.7825 86.4224 30.899 86.4209 31.0183C86.4195 31.1389 86.3934 31.254 86.344 31.3652C86.2932 31.4763 86.2221 31.5739 86.1306 31.6579L82.715 34.8614C80.5653 32.5184 78.1832 30.4044 75.5689 28.5194L79.1732 25.1519ZM39.3128 4.64469H54.971L54.9724 10.1316H39.3128V4.64469ZM45.1844 19.3167V13.7905H49.0993V19.3167C47.7973 19.2638 46.4865 19.2652 45.1844 19.3167ZM11.5687 34.8614L8.15311 31.6579C8.06021 31.5739 7.98908 31.4763 7.93972 31.3652C7.88892 31.254 7.86279 31.1389 7.86134 31.0183C7.85989 30.899 7.88456 30.7825 7.93247 30.6713C7.98037 30.5589 8.04859 30.4599 8.13859 30.3746L13.7286 25.1519C13.8201 25.0652 13.926 25.0001 14.0451 24.954C14.1656 24.9066 14.2889 24.8836 14.4196 24.8836C14.5488 24.8836 14.6736 24.9066 14.7926 24.954C14.9131 25.0001 15.0191 25.0652 15.1105 25.1519L18.7148 28.5194C16.0991 30.4044 13.717 32.5184 11.5687 34.8614ZM47.1411 103.417C46.4371 103.416 45.7331 103.4 45.0291 103.366C44.3251 103.333 43.624 103.285 42.9228 103.218C42.2217 103.153 41.5221 103.072 40.8253 102.976C40.1285 102.878 39.4347 102.764 38.7437 102.636C38.0528 102.507 37.3662 102.362 36.6825 102.202C36.0003 102.041 35.3209 101.865 34.6474 101.673C33.9738 101.482 33.3047 101.275 32.6413 101.053C31.9779 100.831 31.3218 100.593 30.67 100.341C30.0197 100.089 29.3767 99.8223 28.7394 99.5405C28.1022 99.2586 27.4737 98.9618 26.8524 98.6515C26.2311 98.3412 25.6185 98.0159 25.0147 97.6772C24.4108 97.3384 23.8157 96.986 23.2307 96.6202C22.6442 96.2543 22.0694 95.8762 21.5033 95.4832C20.9372 95.0916 20.3827 94.6864 19.8383 94.2676C19.2925 93.8503 18.7598 93.4207 18.2372 92.9789C17.7161 92.5358 17.2066 92.0818 16.7073 91.617C16.2094 91.1508 15.7246 90.6752 15.2513 90.1873C14.7781 89.6995 14.318 89.2008 13.8709 88.6926C13.4238 88.1831 12.9898 87.6641 12.5703 87.1356C12.1508 86.6071 11.7443 86.0691 11.3538 85.5216C10.9619 84.9742 10.5845 84.4186 10.2231 83.8535C9.86017 83.2897 9.51324 82.7165 9.18083 82.1365C8.84841 81.5552 8.53052 80.9684 8.23004 80.3735C7.92811 79.7786 7.64215 79.1769 7.37216 78.5685C7.10216 77.96 6.84813 77.3461 6.61007 76.7268C6.37202 76.1075 6.15138 75.4828 5.9467 74.8527C5.74058 74.2225 5.55332 73.5883 5.38059 72.9501C5.2093 72.3118 5.05398 71.6695 4.91608 71.0231C4.77818 70.378 4.6577 69.7303 4.55318 69.0785C4.44867 68.428 4.36303 67.7748 4.2919 67.1189C4.22222 66.4644 4.16997 65.8072 4.13513 65.1499C4.10029 64.4927 4.08142 63.8341 4.07997 63.1769C4.09158 60.9775 4.29625 58.7944 4.69399 56.6275C5.09317 54.4607 5.67961 52.3385 6.45476 50.2625C7.2299 48.1864 8.18214 46.1835 9.31292 44.2552C10.4437 42.3268 11.7371 40.4988 13.193 38.771C13.2148 38.7466 13.2482 38.7357 13.2699 38.71C13.9594 37.8779 14.6838 37.0716 15.4415 36.2924C16.1978 35.5132 16.9874 34.7638 17.8076 34.0416C18.6292 33.3206 19.4783 32.6309 20.3566 31.9709C21.2348 31.3123 22.1405 30.6862 23.071 30.0941C24.0029 29.5005 24.9566 28.9436 25.935 28.4205C26.9119 27.8974 27.9106 27.4109 28.9296 26.9623C29.9486 26.5124 30.9836 26.1005 32.0374 25.7265C33.0913 25.3538 34.1582 25.0191 35.2396 24.7237C36.321 24.4283 37.4126 24.1721 38.5158 23.958C39.6176 23.7426 40.7281 23.5677 41.8458 23.4336C42.9635 23.2994 44.0841 23.2073 45.2091 23.1544C46.3355 23.1029 47.4605 23.0935 48.5869 23.1233C49.7133 23.1544 50.8354 23.2263 51.956 23.3401C53.0767 23.4526 54.19 23.607 55.2961 23.8008C56.4037 23.996 57.5011 24.2304 58.5883 24.5069C59.6755 24.7819 60.7497 25.0963 61.8108 25.45C63.3858 26.0124 64.923 26.6547 66.4196 27.3797C67.9162 28.1061 69.3649 28.907 70.7642 29.7864C72.1635 30.6659 73.5048 31.6159 74.788 32.6376C76.0712 33.6594 77.289 34.7462 78.4401 35.8981C79.5912 37.0486 80.6683 38.2574 81.6728 39.5231C82.6773 40.7888 83.6005 42.1032 84.4439 43.4678C85.2887 44.8325 86.0464 46.2364 86.72 47.681C87.3935 49.1255 87.9756 50.6013 88.4691 52.1082C89.0541 53.9688 89.491 55.8592 89.7799 57.7807C90.0673 59.701 90.2052 61.6307 90.1907 63.5712C90.1776 65.5104 90.0122 67.4388 89.6957 69.3549C89.3793 71.2724 88.9148 73.1574 88.3036 75.0112C87.0451 74.6372 85.7605 74.3879 84.4482 74.2605C84.6602 73.6344 84.8561 73.0029 85.0332 72.366C85.2089 71.7305 85.3671 71.0895 85.5079 70.4458C85.6472 69.8021 85.7677 69.1544 85.8708 68.5039C85.9724 67.8534 86.0566 67.2003 86.1219 66.5457C86.1858 65.8912 86.2322 65.2353 86.2598 64.5794C86.2859 63.9222 86.2947 63.265 86.283 62.6077C86.2729 61.9505 86.2424 61.2932 86.193 60.6387C86.1451 59.9828 86.0769 59.3283 85.9898 58.6751C85.9042 58.0233 85.7982 57.3742 85.6748 56.7264C85.55 56.0801 85.4077 55.4364 85.2466 54.7954C85.0855 54.1558 84.9069 53.5202 84.7081 52.8901C84.5107 52.2586 84.2944 51.6339 84.0607 51.0132C83.827 50.3939 83.5758 49.78 83.3058 49.1729C83.0373 48.5658 82.7499 47.9655 82.4465 47.372C82.1431 46.7798 81.8223 46.1944 81.4841 45.6184C81.1459 45.0412 80.7917 44.4734 80.4216 43.915C80.0514 43.3554 79.6653 42.8065 79.2632 42.2672C78.8611 41.7279 78.4445 41.1994 78.0119 40.6803C77.5794 40.1613 77.1308 39.6545 76.6692 39.1585C76.2076 38.6626 75.7315 38.1788 75.2423 37.7072C74.7531 37.2356 74.2494 36.7762 73.7327 36.329C73.2174 35.8832 72.6875 35.4495 72.1475 35.0294C71.6061 34.6094 71.053 34.2042 70.4884 33.8125C69.9237 33.4195 69.3474 33.0428 68.761 32.6796C68.1746 32.3165 67.578 31.9682 66.9712 31.6348C66.3659 31.3015 65.749 30.9844 65.1248 30.6822C64.5006 30.38 63.8663 30.0941 63.2261 29.8244C62.5845 29.5547 61.9357 29.2999 61.2795 29.0628C60.6234 28.8257 59.9615 28.6048 59.2923 28.4015C58.6231 28.1969 57.9496 28.0099 57.2703 27.8391C56.5909 27.6697 55.9072 27.5166 55.2177 27.3811C54.5297 27.2456 53.8387 27.1277 53.1434 27.026C52.4481 26.9258 51.7499 26.8431 51.0503 26.7767C50.3506 26.7116 49.6495 26.6629 48.9469 26.6331C48.2443 26.6032 47.5403 26.5897 46.8378 26.5951C46.1337 26.6005 45.4312 26.6236 44.7286 26.6642C44.0275 26.7035 43.3264 26.7618 42.6282 26.8377C41.9285 26.9136 41.2332 27.0071 40.5393 27.1182C39.8455 27.2293 39.156 27.3567 38.4708 27.503C37.7842 27.648 37.1035 27.8107 36.427 27.9909C35.7491 28.1711 35.0785 28.3676 34.4137 28.5817C33.7488 28.7958 33.0898 29.0262 32.4381 29.2728C31.7863 29.5195 31.1418 29.7824 30.5046 30.0629C29.8673 30.342 29.2402 30.6375 28.6204 30.9478C28.0006 31.2595 27.3895 31.5847 26.7885 31.9275C26.1876 32.269 25.5968 32.6254 25.0176 32.9967C24.437 33.3681 23.8679 33.7543 23.3091 34.154C22.7517 34.5551 22.2059 34.9685 21.6717 35.3967C21.1375 35.8249 20.6149 36.2653 20.1069 36.7193C19.5974 37.1733 19.1024 37.6394 18.6205 38.1191C18.1385 38.5975 17.6711 39.0881 17.2182 39.5908C16.7639 40.0936 16.3255 40.6072 15.9016 41.1316C15.4778 41.656 15.0684 42.1913 14.6765 42.7361C14.2831 43.2808 13.9057 43.8364 13.5443 44.4002C13.1843 44.9639 12.8388 45.5371 12.5108 46.1185C12.1827 46.7012 11.8721 47.2893 11.5788 47.8869C11.2842 48.4845 11.0069 49.0889 10.7485 49.7001C10.4887 50.3113 10.2477 50.9278 10.0242 51.5512C9.80065 52.1746 9.59598 52.8033 9.40872 53.4375C9.22147 54.0704 9.05164 54.7087 8.90212 55.351C8.75116 55.9933 8.61906 56.6384 8.50584 57.2875C8.39262 57.9352 8.29827 58.587 8.22278 59.2402C8.1473 59.8947 8.09069 60.5493 8.0515 61.2052C8.01375 61.8624 7.99488 62.5196 7.99488 63.1769C7.99488 63.9371 8.02101 64.6973 8.07182 65.4562C8.12262 66.2164 8.19811 66.974 8.29972 67.7288C8.39988 68.4836 8.52616 69.2343 8.67858 69.9823C8.82954 70.7304 9.00519 71.4716 9.20695 72.2102C9.40727 72.9474 9.63372 73.6778 9.88339 74.4014C10.1331 75.1264 10.406 75.8419 10.7035 76.5507C11.0011 77.2594 11.3234 77.9573 11.6674 78.647C12.0114 79.3368 12.3787 80.0157 12.7677 80.6838C13.1567 81.3519 13.569 82.0078 14.003 82.6515C14.4356 83.2965 14.8899 83.9266 15.366 84.5446C15.8407 85.1625 16.3371 85.7656 16.8524 86.3537C17.3692 86.9432 17.9034 87.5164 18.4579 88.0733C19.0109 88.6303 19.5843 89.1724 20.1737 89.6954C20.7644 90.2199 21.3712 90.7267 21.9954 91.2159C22.6196 91.7037 23.2583 92.174 23.9144 92.6252C24.569 93.0765 25.2397 93.5088 25.9234 93.9207C26.6085 94.3341 27.3053 94.7257 28.0151 95.097C28.7264 95.4697 29.4478 95.8193 30.1823 96.1499C30.9154 96.4792 31.66 96.7868 32.4148 97.0728C33.1682 97.3601 33.9317 97.623 34.704 97.8655C35.4762 98.1067 36.2557 98.3263 37.0425 98.5228C37.8292 98.7193 38.6204 98.8914 39.4187 99.0418C40.2171 99.1922 41.0198 99.3182 41.8269 99.4226C42.6325 99.5256 43.4425 99.6055 44.2539 99.6611C45.0668 99.7166 45.8797 99.7492 46.6941 99.7586C47.5084 99.7668 48.3213 99.7519 49.1342 99.7126C49.9485 99.6746 50.7585 99.6123 51.5685 99.5256C52.377 99.4402 53.1826 99.3304 53.9839 99.1976C54.7852 99.0648 55.5821 98.9076 56.3732 98.7287C57.1643 98.5499 57.9482 98.3466 58.7262 98.1216C59.5043 97.8967 60.2736 97.6487 61.0342 97.379C61.7963 97.1094 62.5482 96.8167 63.2885 96.5023C63.5745 97.7029 63.9926 98.8615 64.5413 99.9782C61.8036 101.115 58.9672 101.974 56.035 102.553C53.1028 103.133 50.1387 103.42 47.1411 103.417ZM62.7994 92.6428C60.6655 93.6443 58.4446 94.4316 56.1366 95.0048C53.8286 95.5781 51.4828 95.925 49.0993 96.0469V92.4423C49.095 92.3244 49.0775 92.2092 49.05 92.094C49.0209 91.9802 48.9817 91.8691 48.9309 91.762C48.8801 91.6536 48.8177 91.552 48.7466 91.4557C48.674 91.3595 48.5927 91.2715 48.5027 91.1888C48.4113 91.1075 48.314 91.0343 48.2081 90.9706C48.1035 90.9069 47.9918 90.8527 47.8756 90.8094C47.7581 90.7646 47.639 90.7321 47.5156 90.7091C47.3923 90.686 47.2674 90.6752 47.1411 90.6752C47.0163 90.6752 46.8915 90.686 46.7681 90.7091C46.6447 90.7321 46.5242 90.7646 46.4081 90.8094C46.2905 90.8527 46.1802 90.9069 46.0742 90.9706C45.9697 91.0343 45.871 91.1075 45.781 91.1888C45.691 91.2715 45.6097 91.3595 45.5371 91.4557C45.4646 91.552 45.4036 91.6536 45.3528 91.762C45.3005 91.8691 45.2613 91.9802 45.2338 92.094C45.2047 92.2092 45.1888 92.3244 45.1844 92.4423V96.0076C44.6502 95.9792 44.1175 95.9399 43.5848 95.8884C43.052 95.8382 42.5222 95.7759 41.9924 95.7027C41.464 95.6282 40.9371 95.5442 40.4116 95.448C39.8876 95.3518 39.365 95.2447 38.8454 95.1268C38.3257 95.0089 37.8089 94.8788 37.2951 94.7392C36.7812 94.5983 36.2717 94.4479 35.7651 94.2853C35.2599 94.124 34.7577 93.9519 34.2598 93.7676C33.7619 93.5847 33.2698 93.3909 32.7806 93.1863C32.2929 92.983 31.8095 92.7675 31.332 92.5426C30.8544 92.3176 30.3826 92.0832 29.9167 91.8379C29.4507 91.594 28.9906 91.3392 28.5362 91.0736C28.0819 90.8094 27.6348 90.5356 27.195 90.2524C26.7537 89.9678 26.3211 89.6751 25.8943 89.3743C25.4676 89.0721 25.0495 88.7604 24.6387 88.4406C24.2265 88.1208 23.8244 87.7928 23.4296 87.4554C23.0333 87.118 22.6472 86.7738 22.2697 86.4201C21.8909 86.0664 21.5207 85.7046 21.1607 85.336C20.8007 84.966 20.448 84.5893 20.1069 84.2058C19.7643 83.8209 19.4319 83.4307 19.1082 83.0323C18.7845 82.6339 18.4724 82.2287 18.1676 81.8167C17.8642 81.4047 17.571 80.9874 17.2879 80.5632C17.0049 80.1391 16.7334 79.7095 16.4707 79.2731C16.2079 78.8381 15.9568 78.3964 15.7173 77.9505C15.4763 77.5033 15.247 77.0521 15.0278 76.5954C14.8086 76.1401 14.6025 75.6793 14.4065 75.2145C14.2091 74.7483 14.0248 74.2795 13.852 73.8065C13.6778 73.3336 13.5167 72.8579 13.3672 72.3782C13.2162 71.8985 13.0783 71.4147 12.952 70.9296C12.8257 70.4444 12.7111 69.9552 12.608 69.4647C12.5049 68.9741 12.415 68.4822 12.3366 67.9876C12.2567 67.493 12.1914 66.997 12.1362 66.4997C12.0811 66.0023 12.039 65.505 12.0085 65.0049H15.8247C15.9496 65.0009 16.0744 64.986 16.1963 64.9602C16.3197 64.9331 16.4387 64.8965 16.5534 64.8491C16.6681 64.8003 16.777 64.7434 16.88 64.6756C16.9831 64.6079 17.0774 64.532 17.166 64.448C17.2531 64.364 17.33 64.2718 17.3997 64.1729C17.4679 64.0753 17.526 63.971 17.5724 63.8626C17.6203 63.7528 17.6552 63.6417 17.6798 63.5251C17.7031 63.41 17.7147 63.2934 17.7147 63.1769C17.7147 63.059 17.7031 62.9424 17.6798 62.8273C17.6552 62.7121 17.6203 62.5996 17.5724 62.4912C17.526 62.3814 17.4679 62.2784 17.3997 62.1795C17.33 62.0806 17.2531 61.9898 17.166 61.9044C17.0774 61.8204 16.9831 61.7445 16.88 61.6767C16.777 61.609 16.6681 61.5521 16.5534 61.5046C16.4387 61.4559 16.3197 61.4193 16.1963 61.3935C16.0744 61.3664 15.9496 61.3515 15.8247 61.3474H12.0085C12.039 60.8284 12.0825 60.3108 12.1391 59.7945C12.1958 59.2768 12.2654 58.7619 12.3482 58.2483C12.4295 57.7347 12.5253 57.2224 12.6341 56.7129C12.743 56.2034 12.8635 55.6965 12.9985 55.1924C13.132 54.6883 13.2801 54.1883 13.4398 53.691C13.5994 53.1923 13.7707 52.699 13.9551 52.2084C14.1409 51.7192 14.3368 51.2327 14.5459 50.7517C14.7564 50.2706 14.977 49.795 15.2107 49.3234C15.4444 48.8518 15.6897 48.3856 15.9466 47.9249C16.2036 47.4641 16.4721 47.0102 16.7523 46.5616C17.0324 46.1117 17.3242 45.6699 17.6261 45.2349C17.9295 44.7986 18.2431 44.3704 18.5668 43.9476C18.8919 43.5261 19.2258 43.1114 19.5712 42.7049C19.9167 42.297 20.2724 41.8986 20.6382 41.507C21.004 41.1153 21.3785 40.7332 21.7646 40.3578C22.1493 39.9838 22.5441 39.6166 22.9476 39.2602C23.3512 38.9024 23.7634 38.5541 24.1844 38.2154C24.6053 37.8766 25.035 37.5473 25.4734 37.2275C25.9118 36.9077 26.3574 36.5973 26.8103 36.2978C27.2646 35.997 27.7262 35.707 28.1936 35.4279C28.6625 35.1473 29.1372 34.8777 29.6191 34.6202C30.1025 34.3614 30.5902 34.1134 31.0852 33.8762C31.5787 33.6391 32.0795 33.4128 32.5861 33.1973C33.0913 32.9832 33.6037 32.7799 34.119 32.5875C34.6358 32.3951 35.1569 32.2148 35.6824 32.0454C36.2078 31.8761 36.7377 31.7189 37.2718 31.5725C37.8046 31.4275 38.3417 31.2933 38.8816 31.1714C39.4231 31.0494 39.966 30.9397 40.5118 30.8407C41.0576 30.7432 41.6063 30.6578 42.1564 30.5846C42.7066 30.5101 43.2582 30.4491 43.8112 30.4003C44.3657 30.3502 44.9188 30.3136 45.4747 30.2892C46.0307 30.2648 46.5852 30.2526 47.1411 30.2526C47.6971 30.2526 48.2531 30.2648 48.8076 30.2892C49.3635 30.3136 49.918 30.3502 50.4711 30.4003C51.0241 30.4491 51.5772 30.5101 52.1273 30.5846C52.6775 30.6578 53.2247 30.7432 53.7705 30.8407C54.3178 30.9397 54.8607 31.0494 55.4006 31.1714C55.9406 31.2933 56.4777 31.4275 57.0119 31.5725C57.5446 31.7189 58.0745 31.8761 58.5999 32.0454C59.1254 32.2148 59.6465 32.3951 60.1633 32.5875C60.68 32.7799 61.191 32.9832 61.6976 33.1973C62.2028 33.4128 62.7035 33.6391 63.1985 33.8762C63.6935 34.1134 64.1813 34.3614 64.6632 34.6202C65.1451 34.8777 65.6212 35.1473 66.0886 35.4279C66.5575 35.707 67.0176 35.997 67.472 36.2978C67.9263 36.5973 68.372 36.9077 68.8089 37.2275C69.2473 37.5473 69.6769 37.8766 70.0979 38.2154C70.5203 38.5541 70.9326 38.9024 71.3361 39.2602C71.7396 39.6166 72.133 39.9838 72.5191 40.3578C72.9038 40.7332 73.2798 41.1153 73.6441 41.507C74.0099 41.8986 74.3656 42.297 74.711 42.7049C75.0565 43.1114 75.3918 43.5261 75.7155 43.9476C76.0407 44.3704 76.3542 44.7986 76.6562 45.2349C76.9595 45.6699 77.2498 46.1117 77.53 46.5616C77.8102 47.0102 78.0787 47.4641 78.3356 47.9249C78.594 48.3856 78.8393 48.8518 79.0716 49.3234C79.3053 49.795 79.5274 50.2706 79.7364 50.7517C79.9454 51.2327 80.1429 51.7192 80.3272 52.2084C80.5116 52.699 80.6843 53.1923 80.844 53.691C81.0036 54.1883 81.1502 54.6883 81.2852 55.1924C81.4188 55.6965 81.5407 56.2034 81.6481 56.7129C81.757 57.2224 81.8528 57.7347 81.9356 58.2483C82.0183 58.7619 82.088 59.2768 82.1446 59.7945C82.1997 60.3108 82.2433 60.8284 82.2738 61.3474H78.459C78.3327 61.3515 78.2093 61.3664 78.086 61.3935C77.964 61.4193 77.845 61.4559 77.7303 61.5046C77.6156 61.5521 77.5068 61.609 77.4037 61.6767C77.3007 61.7445 77.2048 61.8204 77.1178 61.9044C77.0307 61.9898 76.9523 62.0806 76.884 62.1795C76.8158 62.2784 76.7578 62.3814 76.7099 62.4912C76.6634 62.5996 76.6271 62.7121 76.6039 62.8273C76.5792 62.9424 76.5676 63.059 76.5676 63.1769C76.5676 63.2934 76.5792 63.41 76.6039 63.5251C76.6271 63.6417 76.6634 63.7528 76.7099 63.8626C76.7578 63.971 76.8158 64.0753 76.884 64.1729C76.9523 64.2718 77.0307 64.364 77.1178 64.448C77.2048 64.532 77.3007 64.6079 77.4037 64.6756C77.5068 64.7434 77.6156 64.8003 77.7303 64.8491C77.845 64.8965 77.964 64.9331 78.086 64.9602C78.2093 64.986 78.3327 65.0009 78.459 65.0049H82.2883C82.1126 68.1746 81.4551 71.2535 80.3185 74.2429C79.7204 74.3079 79.1282 74.3974 78.5388 74.5125C77.951 74.6277 77.3703 74.7687 76.7955 74.9326C76.2207 75.098 75.6546 75.2863 75.0986 75.4991C74.5426 75.7118 73.9969 75.9476 73.4641 76.2078C72.9299 76.4666 72.4103 76.7485 71.9051 77.0521C71.3985 77.3556 70.9093 77.6795 70.4347 78.025C69.96 78.3692 69.5042 78.7351 69.0658 79.1186C68.626 79.5021 68.2079 79.9046 67.8073 80.3247C67.4081 80.7434 67.0293 81.1798 66.6722 81.6324C66.3151 82.0837 65.9812 82.5498 65.6691 83.0309C65.357 83.5106 65.0696 84.0039 64.8069 84.508C64.5427 85.0135 64.3046 85.5284 64.0913 86.0528C63.8764 86.5786 63.6892 87.1112 63.528 87.6533C63.3669 88.1939 63.2319 88.7401 63.1231 89.293C63.0156 89.8459 62.9343 90.4015 62.8806 90.9611C62.8255 91.5208 62.7994 92.0818 62.7994 92.6428ZM82.3725 107.075C81.8267 107.075 81.2823 107.048 80.7394 106.995C80.1966 106.941 79.658 106.861 79.1253 106.755C78.5911 106.648 78.0642 106.517 77.5445 106.359C77.0263 106.201 76.5168 106.019 76.0175 105.811C75.5196 105.603 75.0333 105.373 74.5615 105.118C74.0883 104.862 73.6311 104.586 73.1883 104.286C72.747 103.985 72.3232 103.665 71.9182 103.324C71.5117 102.982 71.1256 102.623 70.7598 102.244C70.3955 101.866 70.0515 101.47 69.7307 101.057C69.4084 100.645 69.1123 100.218 68.8379 99.7763C68.565 99.3345 68.3168 98.8805 68.0947 98.4157C67.8712 97.9495 67.6752 97.4739 67.5068 96.9888C67.337 96.5036 67.1947 96.0117 67.0815 95.513C66.9668 95.0143 66.8812 94.5116 66.8231 94.0048C66.7651 93.4966 66.7346 92.9884 66.7346 92.4775C66.7331 91.968 66.7607 91.4585 66.8173 90.9516C66.8725 90.4448 66.9567 89.9407 67.0699 89.442C67.1817 88.942 67.3225 88.4501 67.4894 87.9649C67.6563 87.4784 67.8509 87.0028 68.0715 86.5366C68.2936 86.0705 68.5389 85.6151 68.8103 85.1734C69.0833 84.7302 69.3779 84.302 69.6987 83.8887C70.0181 83.4754 70.3592 83.0783 70.7235 82.6989C71.0879 82.3181 71.4725 81.9576 71.8775 81.6148C72.2811 81.2719 72.7035 80.9508 73.1448 80.6499C73.5861 80.3477 74.0419 80.0699 74.5136 79.8125C74.9854 79.5563 75.4702 79.3233 75.9681 79.1146C76.466 78.9059 76.974 78.7216 77.4923 78.5617C78.0119 78.4018 78.5374 78.269 79.0716 78.1606C79.6043 78.0521 80.1429 77.9708 80.6857 77.9153C81.2286 77.8611 81.773 77.8313 82.3188 77.8299C82.8646 77.8272 83.4089 77.8516 83.9518 77.9031C84.4947 77.9546 85.0332 78.0318 85.5689 78.1362C86.103 78.2405 86.63 78.3692 87.1496 78.5251C87.6693 78.6809 88.1788 78.8612 88.6796 79.0658C89.1789 79.2718 89.6652 79.5008 90.1399 79.7528C90.6146 80.0062 91.0733 80.2813 91.516 80.5795C91.9587 80.8776 92.384 81.1961 92.7919 81.5348C93.1998 81.875 93.5874 82.2327 93.9547 82.6108C94.3219 82.9875 94.6674 83.3819 94.9911 83.7925C95.3133 84.2044 95.6138 84.63 95.8896 85.0704C96.164 85.5108 96.4151 85.9634 96.6401 86.4282C96.8651 86.893 97.0625 87.3673 97.2352 87.8511C97.4065 88.3349 97.5502 88.8268 97.6678 89.3255C97.7839 89.8228 97.8725 90.3256 97.9334 90.8337C97.9944 91.3406 98.0263 91.8487 98.0292 92.3583C98.0321 92.8692 98.0075 93.3773 97.9538 93.8855C97.9 94.3937 97.8188 94.8964 97.7084 95.3965C97.5996 95.8965 97.4617 96.3898 97.2962 96.8749C97.0407 97.608 96.7257 98.3168 96.3512 99.0025C95.9753 99.6895 95.547 100.344 95.0622 100.967C94.5788 101.591 94.0461 102.176 93.464 102.721C92.8819 103.267 92.2592 103.767 91.5929 104.222C90.9281 104.676 90.2284 105.08 89.4954 105.434C88.7638 105.786 88.0061 106.083 87.2237 106.326C86.4398 106.568 85.6429 106.751 84.83 106.877C84.0157 107.003 83.197 107.07 82.3725 107.075ZM92.1982 94.3083H84.3307V101.588C84.3307 101.707 84.3176 101.827 84.2929 101.944C84.2682 102.062 84.2305 102.176 84.1812 102.287C84.1318 102.398 84.0723 102.504 83.9997 102.604C83.9286 102.703 83.8473 102.797 83.7573 102.881C83.6658 102.966 83.5671 103.042 83.4597 103.109C83.3538 103.175 83.2405 103.232 83.1215 103.278C83.0039 103.324 82.8805 103.358 82.7542 103.382C82.6294 103.405 82.5017 103.417 82.3725 103.417C82.2447 103.417 82.117 103.405 81.9907 103.382C81.8644 103.358 81.7425 103.324 81.6235 103.278C81.5059 103.232 81.3927 103.175 81.2852 103.109C81.1793 103.042 81.0791 102.966 80.9891 102.881C80.8977 102.797 80.8164 102.703 80.7453 102.604C80.6741 102.504 80.6132 102.398 80.5653 102.287C80.5159 102.176 80.4782 102.062 80.4535 101.944C80.4288 101.827 80.4157 101.707 80.4157 101.588V94.3083H72.6251C72.4988 94.3056 72.374 94.2907 72.2506 94.2649C72.1272 94.2392 72.0082 94.2026 71.8921 94.1552C71.7759 94.1077 71.6656 94.0508 71.5626 93.9831C71.458 93.9167 71.3622 93.8408 71.2737 93.7554C71.1851 93.6714 71.1068 93.5792 71.0371 93.4803C70.9689 93.3814 70.9093 93.277 70.8629 93.1686C70.815 93.0589 70.7787 92.9464 70.754 92.8299C70.7308 92.7147 70.7177 92.5968 70.7177 92.4789C70.7177 92.361 70.7308 92.2431 70.754 92.1279C70.7787 92.0114 70.815 91.8989 70.8629 91.7891C70.9093 91.6807 70.9689 91.5764 71.0371 91.4774C71.1068 91.3785 71.1851 91.2864 71.2737 91.2023C71.3622 91.117 71.458 91.0411 71.5626 90.9747C71.6656 90.9069 71.7759 90.85 71.8921 90.8026C72.0082 90.7551 72.1272 90.7186 72.2506 90.6928C72.374 90.6671 72.4988 90.6522 72.6251 90.6494H80.4157V83.2965C80.4201 83.1786 80.4361 83.0634 80.4636 82.9482C80.4927 82.8331 80.5319 82.7219 80.5827 82.6149C80.6335 82.5078 80.6959 82.4048 80.767 82.3086C80.8396 82.2124 80.9209 82.123 81.0109 82.0417C81.1009 81.9604 81.1996 81.8872 81.3056 81.8221C81.4101 81.7584 81.5219 81.7042 81.638 81.6609C81.7556 81.6161 81.8746 81.5823 81.9994 81.5606C82.1228 81.5375 82.2476 81.5267 82.3725 81.5267C82.4988 81.5267 82.6236 81.5375 82.747 81.5606C82.8704 81.5823 82.9909 81.6161 83.107 81.6609C83.2246 81.7042 83.3349 81.7584 83.4408 81.8221C83.5468 81.8872 83.6441 81.9604 83.7355 82.0417C83.8255 82.123 83.9068 82.2124 83.9779 82.3086C84.0505 82.4048 84.1129 82.5078 84.1637 82.6149C84.2145 82.7219 84.2537 82.8331 84.2813 82.9482C84.3103 83.0634 84.3263 83.1786 84.3307 83.2965V90.6494H92.1982C92.3245 90.6535 92.4479 90.6698 92.5698 90.6955C92.6932 90.7226 92.8108 90.7606 92.9255 90.808C93.0402 90.8554 93.149 90.9137 93.2521 90.9815C93.3551 91.0479 93.4495 91.1237 93.5366 91.2091C93.6237 91.2931 93.7021 91.3853 93.7703 91.4829C93.8385 91.5818 93.8966 91.6848 93.943 91.7945C93.9895 91.9029 94.0258 92.0154 94.049 92.1306C94.0737 92.2458 94.0853 92.361 94.0853 92.4789C94.0853 92.5968 94.0737 92.712 94.049 92.8271C94.0258 92.9423 93.9895 93.0548 93.943 93.1632C93.8966 93.273 93.8385 93.376 93.7703 93.4749C93.7021 93.5725 93.6237 93.6646 93.5366 93.7486C93.4495 93.834 93.3551 93.9099 93.2521 93.9763C93.149 94.0441 93.0402 94.1023 92.9255 94.1497C92.8108 94.1972 92.6932 94.2351 92.5698 94.2622C92.4479 94.288 92.3245 94.3042 92.1982 94.3083Z" fill="#46277B"/>
</svg>
