<svg width="95" height="128" viewBox="0 0 95 128" fill="none" xmlns="http://www.w3.org/2000/svg">
<path d="M88.9503 70.3608C89.3691 70.1115 89.7282 69.8639 90.1469 69.6162C90.7445 67.4427 90.2662 64.7724 88.8907 62.4132C88.8907 62.4132 74.1799 34.9712 72.7449 33.8535C69.5753 31.3689 65.0899 31.9897 62.6982 35.2808L62.6386 35.3427C61.2036 37.4543 60.9041 40.0611 61.7415 42.2965C62.1007 43.2284 74.2395 61.0478 80.3402 69.9258C81.656 71.7881 83.629 72.9677 85.7823 73.155C86.7389 72.1611 87.7552 71.1054 88.9503 70.3608Z" fill="#FFC107"/>
<path d="M2.77907 69.9876C2.36034 69.7399 2.00121 69.4907 1.58247 69.243C0.984916 67.0695 1.46326 64.4007 2.83868 62.04C2.83868 62.04 17.5496 34.598 18.9846 33.4803C22.1542 30.9973 26.6395 31.618 29.0313 34.9076L29.0909 34.9711C30.5259 37.0811 30.8254 39.6895 29.9879 41.9249C29.6288 42.8552 17.49 60.6746 11.3907 69.5526C10.0749 71.4164 8.10044 72.596 5.94865 72.7818C5.05157 71.8499 3.97418 70.7957 2.77907 69.9876Z" fill="#FFC107"/>
<path d="M73.2235 35.5922L65.9277 74.7063H29.6288L21.7354 35.716C21.497 33.8538 22.8724 32.1772 24.7261 32.1772H70.2938C72.0284 32.1772 73.4038 33.7284 73.2235 35.5922Z" fill="#FFC107"/>
<path d="M40.3936 25.1615C50.3791 29.1337 52.592 30.7483 56.0015 44.097L74.5391 24.7265C61.6224 21.2496 60.0682 19.0142 56.1803 8.64551L40.3936 25.1615Z" fill="#0D0D0D"/>
<path d="M49.4833 16.9648L51.6351 34.9716C51.8751 37.1434 50.2597 39.0692 48.1079 39.0692H43.5033C41.5289 39.0692 39.9746 37.3927 39.9746 35.3431L40.2726 22.0563L49.4833 16.9648Z" fill="#F5A793"/>
<path d="M36.5652 20.6287C41.3501 27.0237 50.4997 27.0237 55.2235 20.6287C58.4527 16.2818 58.4527 10.0727 55.2235 5.72735C50.4401 -0.66758 41.2905 -0.66758 36.5652 5.72735C33.2764 10.0727 33.2764 16.2818 36.5652 20.6287Z" fill="#0D0D0D"/>
<path d="M36.8646 17.5856C37.1045 22.1801 40.6317 25.9682 45.0575 26.3412C47.33 26.527 49.4833 25.8443 51.1568 24.6028C53.4293 22.9263 54.8643 20.1321 54.8643 17.0267C54.8643 11.8749 50.8587 7.65186 45.8354 7.65186C45.6551 7.65186 45.4763 7.65186 45.2363 7.65186C40.3933 8.02493 36.5651 12.3703 36.8646 17.5856Z" fill="#F5A793"/>
<path d="M93.1976 83.8336C96.3061 89.4839 94.2735 96.5616 89.0117 99.605C88.4127 99.9765 87.8151 100.226 87.158 100.473L51.7547 115.437L38.0616 120.404L32.858 122.267L26.8779 111.277L31.5421 108.359L43.7421 100.659L77.7089 79.6741C83.0913 76.2591 90.0876 78.1214 93.1976 83.8336Z" fill="#0D0D0D"/>
<path d="M29.9283 123.322L20.1215 126.861C17.9682 127.667 15.5765 126.737 14.4395 124.625C13.7824 123.446 13.6632 122.142 13.9612 120.963C14.2607 119.783 14.9775 118.666 16.1145 117.981L25.3237 112.145L26.7587 111.215L32.7387 122.204L29.9283 123.322Z" fill="#46277B"/>
<path d="M4.15418 83.8336C1.04421 89.4839 3.07829 96.5616 8.34005 99.605C8.9376 99.9765 9.53665 100.226 10.1938 100.473L45.5956 115.437L59.2902 120.404L64.4923 122.267L70.4724 111.277L65.8081 108.359L53.6097 100.659L19.6429 79.6741C14.3201 76.2591 7.26415 78.1214 4.15418 83.8336Z" fill="#0D0D0D"/>
<path d="M67.4238 123.322L77.2305 126.861C79.3838 127.667 81.7755 126.737 82.911 124.625C83.5697 123.446 83.6889 122.142 83.3894 120.963C83.0913 119.783 82.3731 118.666 81.2376 117.981L72.0284 112.145L70.5918 111.215L64.6118 122.204L67.4238 123.322Z" fill="#46277B"/>
<path d="M0.925171 66.0761C0.744861 70.2372 3.97404 73.6522 7.92148 73.6522H42.7853C43.742 73.6522 44.6391 73.2172 45.2962 72.5964C45.9549 71.9138 46.314 71.0438 46.314 69.988C46.314 68.2496 45.1174 66.7604 43.5036 66.3873L37.7024 65.1458L9.17769 59.1224C8.75895 59.0605 8.34022 58.9985 7.92148 58.9985C4.27357 59.0605 1.10399 62.1039 0.925171 66.0761Z" fill="#FFC107"/>
<path d="M37.7021 65.2075V73.652H42.8447C43.8014 73.652 44.6985 73.217 45.3571 72.5963C46.0143 71.9136 46.3734 71.0436 46.3734 69.9878C46.3734 68.2494 45.1768 66.7602 43.563 66.3871L37.7021 65.2075Z" fill="#F5A793"/>
<path d="M90.8043 66.3872C90.9846 70.5467 87.7555 73.9617 83.808 73.9617H48.9442C47.9875 73.9617 47.0904 73.5267 46.4333 72.9059C45.7746 72.2232 45.417 71.3548 45.417 70.299C45.417 68.5606 46.6121 67.0699 48.2274 66.6983L54.0271 65.4553L82.5533 59.4334C82.9706 59.3715 83.3893 59.3096 83.808 59.3096C87.5155 59.3715 90.6851 62.4134 90.8043 66.3872Z" fill="#FFC107"/>
<path d="M54.0272 65.5171V73.9616H48.8846C47.928 73.9616 47.0309 73.5266 46.3737 72.9058C45.7151 72.2232 45.3574 71.3547 45.3574 70.299C45.3574 68.5605 46.5525 67.0698 48.1679 66.6982L54.0272 65.5171Z" fill="#F5A793"/>
<path d="M56.7781 46.394C61.7418 55.0243 72.9851 56.7628 80.1602 49.9963C85.4831 45.0287 86.6782 36.6461 82.9707 30.2511C78.0084 21.6209 66.7652 19.8824 59.59 26.6504C54.3268 31.6181 53.0706 39.9991 56.7781 46.394Z" fill="#0D0D0D"/>
<path d="M15.2769 53.7212H76.4525V95.3819H15.2769V53.7212Z" fill="#46277B"/>
<path d="M49.5429 72.5961C49.5429 72.8438 49.5191 73.0915 49.4729 73.3346C49.4252 73.5791 49.3566 73.816 49.2642 74.0451C49.1733 74.2742 49.0601 74.4925 48.9275 74.6999C48.7948 74.9074 48.6428 75.0978 48.4744 75.2742C48.3046 75.4492 48.1198 75.6071 47.9216 75.7448C47.7219 75.8826 47.5118 76.0003 47.2913 76.0947C47.0692 76.1907 46.8412 76.2619 46.6058 76.3099C46.3718 76.3594 46.1334 76.3826 45.895 76.3826C45.6551 76.3826 45.4181 76.3594 45.1827 76.3099C44.9487 76.2619 44.7192 76.1907 44.4987 76.0947C44.2767 76.0003 44.0666 75.8826 43.8684 75.7448C43.6687 75.6071 43.4839 75.4492 43.3155 75.2742C43.1456 75.0978 42.9951 74.9074 42.861 74.6999C42.7284 74.4925 42.6166 74.2742 42.5242 74.0451C42.4333 73.816 42.3633 73.5791 42.3171 73.3346C42.2694 73.0915 42.2471 72.8438 42.2471 72.5961C42.2471 72.3469 42.2694 72.1008 42.3171 71.8562C42.3633 71.6131 42.4333 71.3763 42.5242 71.1472C42.6166 70.9165 42.7284 70.6983 42.861 70.4924C42.9951 70.2849 43.1456 70.093 43.3155 69.918C43.4839 69.7416 43.6687 69.5852 43.8684 69.4474C44.0666 69.3081 44.2767 69.192 44.4987 69.096C44.7192 69.0016 44.9487 68.9304 45.1827 68.8809C45.4181 68.8329 45.6551 68.8081 45.895 68.8081C46.1334 68.8081 46.3718 68.8329 46.6058 68.8809C46.8412 68.9304 47.0692 69.0016 47.2913 69.096C47.5118 69.192 47.7219 69.3081 47.9216 69.4474C48.1198 69.5852 48.3046 69.7416 48.4744 69.918C48.6428 70.093 48.7948 70.2849 48.9275 70.4924C49.0601 70.6983 49.1733 70.9165 49.2642 71.1472C49.3566 71.3763 49.4252 71.6131 49.4729 71.8562C49.5191 72.1008 49.5429 72.3469 49.5429 72.5961Z" fill="white"/>
</svg>
