<svg width="102" height="110" viewBox="0 0 102 110" fill="none" xmlns="http://www.w3.org/2000/svg">
<path d="M98.9233 61.0144C98.4598 60.4592 98.2795 59.7393 98.4404 59.0476C100.748 49.1147 99.947 39.7578 96.8992 31.5245C81.8263 -9.19633 20.5448 -9.19633 5.47328 31.5245C2.4255 39.7578 1.6246 49.1147 3.93201 59.0476C4.09296 59.7393 3.91141 60.4592 3.44786 61.0144C0.862331 64.1061 -0.122695 67.4004 0.912548 70.2371L4.36593 79.6978C5.99219 84.1548 12.2822 86.5986 20.344 85.9081C20.7869 85.869 21.074 85.4456 20.9285 85.0467L20.4083 83.6216C20.3452 83.4215 20.4959 83.3117 20.6787 83.269C20.7985 83.2287 20.9285 83.2775 20.9942 83.3812C22.0063 84.9735 24.0909 85.7311 26.0146 85.0906C28.2177 84.3573 29.3779 82.0708 28.604 79.982L20.3375 57.6591C18.4911 53.1032 11.574 54.8162 12.1599 59.5173C12.2062 59.8077 11.7543 59.915 11.6526 59.632C10.8388 57.4016 10.2697 55.0944 9.99797 52.7482C6.99653 28.678 24.1064 7.3885 51.1862 7.6313C79.4211 7.8863 95.3798 28.6768 92.3732 52.7482C92.1028 55.0883 91.5362 57.3907 90.725 59.6161C90.6813 59.7381 90.5499 59.8211 90.4173 59.7943C90.2795 59.7674 90.1958 59.6454 90.2113 59.5173C90.7984 54.8162 83.8801 53.1032 82.0349 57.6591L73.7684 79.982C72.9946 82.0708 74.1534 84.3573 76.3578 85.0906C78.2815 85.7311 80.3662 84.9735 81.3782 83.3812C81.48 83.2238 81.6473 83.2397 81.8019 83.3056C81.9383 83.3507 82.0105 83.4923 81.9641 83.6216L81.4426 85.0467C81.2971 85.4456 81.5855 85.869 82.0285 85.9081C82.962 85.9874 83.8698 86.024 84.7531 86.0215C80.7615 91.7304 74.8616 96.1142 67.9806 98.6301C67.2055 98.9143 66.335 98.7277 65.744 98.1725C64.2954 96.8133 62.1747 96.1532 60.0334 96.5925L51.7747 98.286C48.4075 98.9766 46.2688 102.123 46.9976 105.314C47.7264 108.504 51.0459 110.532 54.413 109.842L62.6718 108.147C65.2148 107.626 67.0561 105.703 67.4913 103.418C67.6213 102.738 68.1351 102.184 68.8188 101.941C71.2975 101.065 73.6912 99.9575 75.9677 98.6215C81.1864 95.5591 85.4201 91.5181 88.4473 86.7975C88.9056 86.0825 89.6409 85.564 90.4933 85.3468C94.2917 84.3793 97.015 82.4125 98.0052 79.6978L101.459 70.2371C102.494 67.4004 101.509 64.1061 98.9233 61.0144Z" fill="#46277B"/>
<path d="M40.5454 15.574C24.5816 21.2694 16.494 38.0238 22.3784 53.197C24.7116 59.2133 28.9041 64.0705 34.1112 67.4014C34.849 67.8723 35.3718 68.5922 35.5662 69.4145L38.887 83.4945C39.1265 84.5108 40.472 84.8513 41.215 84.0838L51.5417 73.4153C52.134 72.8028 52.9477 72.4233 53.822 72.3599C56.6071 72.1586 59.4103 71.5936 62.1619 70.6346C78.1992 65.0478 86.4386 48.2348 80.5941 33.0177C74.6956 17.6591 56.7037 9.8102 40.5454 15.574Z" fill="#FFC107"/>
<path d="M37.5349 39.4831C37.5143 41.8404 36.3117 43.6254 31.5437 47.7213C31.3518 47.8872 31.4728 48.191 31.7329 48.1922L36.6478 48.23C37.2594 48.2349 37.7281 48.7498 37.6431 49.3245L37.5092 50.22C37.4396 50.6971 37.007 51.0509 36.4984 51.0473L27.9268 50.9801C27.1812 50.974 26.5825 50.3969 26.5889 49.6917L26.5954 48.8962C26.5992 48.5546 26.7473 48.2276 27.0048 47.9897C32.2853 43.1203 33.5356 41.7318 33.5523 39.8248C33.5639 38.5437 32.7347 37.7689 31.4329 37.7591C30.5303 37.7518 29.8324 38.0349 29.1217 38.6449C28.6736 39.028 28.0079 39.0671 27.5392 38.7072L27.122 38.3875C26.5593 37.9568 26.5078 37.143 27.0396 36.6781C28.2873 35.5886 29.8865 34.9297 31.8501 34.9456C35.5597 34.9737 37.5568 37.0381 37.5349 39.4831Z" fill="#46277B"/>
<path d="M50.3689 47.7541L49.38 47.7468L49.3581 50.3175C49.3543 50.775 48.959 51.1423 48.4774 51.1398L46.4365 51.124C45.9562 51.1191 45.5687 50.7494 45.5687 50.2931L45.5725 48.075C45.5725 47.8773 45.4039 47.7162 45.1953 47.7138L39.9083 47.6735C39.1692 47.6674 38.5769 47.0964 38.5821 46.3973L38.5898 45.4822C38.5924 45.309 38.631 45.137 38.7057 44.9783L42.9703 35.8764C43.2098 35.3652 43.8304 35.1212 44.3815 35.3213L45.5906 35.7593C46.1829 35.974 46.4661 36.6146 46.2099 37.1648L42.857 44.3903C42.7346 44.6538 42.9368 44.9491 43.2407 44.9515L45.3034 44.9674C45.4979 44.9686 45.6627 44.8319 45.6846 44.6489L45.9653 42.3307C46.0386 41.7158 46.591 41.2522 47.2439 41.257L48.1581 41.2644C48.8637 41.2705 49.4315 41.8171 49.4264 42.4857L49.4045 44.9991L50.3934 45.0064C50.8775 45.0113 51.2677 45.3859 51.2638 45.8458L51.2548 46.9293C51.2509 47.3893 50.8543 47.7577 50.3689 47.7541Z" fill="#46277B"/>
<path d="M62.0773 34.0353L56.7144 52.8102C56.556 53.3666 55.9585 53.7021 55.3675 53.5679L54.1507 53.2934C53.5327 53.1531 53.1593 52.5564 53.3267 51.9757L58.714 33.2129C58.8724 32.659 59.4647 32.3247 60.0544 32.454L61.2468 32.7188C61.8674 32.8554 62.2434 33.4521 62.0773 34.0353Z" fill="#46277B"/>
<path d="M74.9714 38.5693L69.3381 50.8826C69.1347 51.3267 68.6055 51.5488 68.1213 51.3902L66.4822 50.8545C65.9401 50.6776 65.6736 50.0993 65.9053 49.6027L70.9927 38.6962C71.07 38.5303 70.9425 38.3448 70.7519 38.3424L65.4289 38.3009C64.8881 38.2973 64.4529 37.8788 64.4581 37.3663L64.4658 36.4512C64.4696 35.9388 64.9126 35.5264 65.4521 35.5313L74.4075 35.6008C74.8504 35.6033 75.2058 35.9461 75.2019 36.3658L75.1916 37.5835C75.189 37.9227 75.1144 38.2582 74.9714 38.5693Z" fill="#46277B"/>
</svg>
