<svg width="90" height="99" viewBox="0 0 90 99" fill="none" xmlns="http://www.w3.org/2000/svg">
<path d="M37.9103 81.9124C36.928 81.9124 36.1292 82.6722 36.1292 83.6066C36.1292 84.5492 36.928 85.3008 37.9103 85.3008H52.1717C53.154 85.3008 53.952 84.5492 53.952 83.6066C53.952 82.6722 53.154 81.9124 52.1717 81.9124H37.9103ZM28.9985 76.8207C28.9985 75.8863 29.7973 75.1265 30.7883 75.1265H59.3024C60.2847 75.1265 61.0835 75.8863 61.0835 76.8207C61.0835 77.7551 60.2847 78.5149 59.3024 78.5149H30.7883C29.7973 78.5149 28.9985 77.7551 28.9985 76.8207ZM16.5261 68.3414C15.5351 68.3414 14.7458 69.1012 14.7458 70.0356C14.7458 70.9782 15.5351 71.7381 16.5261 71.7381H73.5551C74.5469 71.7381 75.3449 70.9782 75.3449 70.0356C75.3449 69.1012 74.5469 68.3414 73.5551 68.3414H16.5261ZM45.041 14.0754C46.0225 14.0754 46.8213 14.8352 46.8213 15.7696V20.1624C50.7766 20.8786 53.952 23.9089 53.952 27.8119C53.952 28.7463 53.154 29.5061 52.1717 29.5061C51.1894 29.5061 50.3914 28.7463 50.3914 27.8119C50.3914 25.5414 48.1793 23.4018 45.041 23.4018C41.9114 23.4018 39.6993 25.5414 39.6993 27.8119C39.6993 27.8819 39.6993 27.9518 39.6993 28.0218C39.7365 28.6244 40.0671 29.1044 40.8746 29.5152C41.728 29.9515 42.9483 30.1877 44.1782 30.1877H45.9126C47.5284 30.1877 49.3633 30.4759 50.8873 31.253C52.447 32.0474 53.8239 33.4445 53.9433 35.5495C53.952 35.6804 53.952 35.8203 53.952 35.9512C53.952 39.855 50.7766 42.8853 46.8213 43.5925V47.9935C46.8213 48.9279 46.0225 49.6877 45.041 49.6877C44.0587 49.6877 43.2607 48.9279 43.2607 47.9935V43.5925C39.3047 42.8853 36.1292 39.855 36.1292 35.9512C36.1292 35.0168 36.928 34.257 37.9103 34.257C38.8918 34.257 39.6993 35.0168 39.6993 35.9512C39.6993 38.2217 41.9114 40.3613 45.041 40.3613C48.1793 40.3613 50.3914 38.2217 50.3914 35.9512C50.3914 35.8812 50.3914 35.803 50.3819 35.7413C50.3455 35.1387 50.015 34.6587 49.2074 34.248C48.3541 33.8116 47.1424 33.5762 45.9126 33.5762H44.1782C42.5536 33.5762 40.718 33.279 39.2042 32.5101C37.6343 31.7157 36.2668 30.3186 36.1387 28.2137C36.1292 28.0745 36.1292 27.9428 36.1292 27.8119C36.1292 23.9089 39.3047 20.8786 43.2607 20.1624V15.7696C43.2607 14.8352 44.0587 14.0754 45.041 14.0754ZM0.484375 8.98449C0.484375 4.30358 4.47602 0.504395 9.39539 0.504395H80.6866C85.6147 0.504395 89.5977 4.30358 89.5977 8.98449V90.3917C89.5977 95.0726 85.6147 98.8711 80.6866 98.8711H9.39539C4.47602 98.8711 0.484375 95.0726 0.484375 90.3917V8.98449Z" fill="#46277B"/>
<path d="M20.8287 34.1754C20.8287 33.6804 20.5859 33.317 20.2387 33.086C19.7183 32.7227 19.0239 32.6896 18.4687 33.0198L14.893 35.1C14.1638 35.5296 13.9558 36.4211 14.4066 37.1147C14.7538 37.6759 15.483 37.8738 16.1078 37.6759L17.8439 36.5858V52.4687C17.8439 53.2609 18.5375 53.9214 19.3711 53.9214C20.2387 53.9214 20.8287 53.2609 20.8287 52.4687V34.1754Z" fill="white"/>
<path d="M31.3812 42.2983V38.7985C31.3812 38.0063 30.7224 37.3789 29.854 37.3789C29.056 37.3789 28.3616 38.0063 28.3616 38.7985V42.2983H24.6823C23.8487 42.2983 23.1543 42.9588 23.1543 43.7518C23.1543 44.544 23.8487 45.2045 24.6823 45.2045H28.3616V48.6712C28.3616 49.4641 29.0212 50.1246 29.854 50.1246C30.6876 50.1246 31.3812 49.4641 31.3812 48.6712V45.2045H35.0612C35.894 45.2045 36.5536 44.5771 36.5536 43.7841C36.5536 42.9588 35.894 42.2983 35.0612 42.2983H31.3812Z" fill="white"/>
<path d="M44.0167 34.1754C44.0167 33.6804 43.7739 33.317 43.4267 33.086C42.9063 32.7227 42.2118 32.6896 41.6566 33.0198L38.081 35.1C37.3518 35.5296 37.1438 36.4211 37.5946 37.1147C37.9418 37.6759 38.671 37.8738 39.2958 37.6759L41.0318 36.5858V52.4687C41.0318 53.2609 41.7255 53.9214 42.5591 53.9214C43.4267 53.9214 44.0167 53.2609 44.0167 52.4687V34.1754Z" fill="white"/>
<path d="M58.1101 43.322C58.9785 43.322 59.6381 42.6615 59.6381 41.8693C59.6381 41.0764 58.9785 40.4497 58.1101 40.4497H48.7728C47.9392 40.4497 47.2456 41.0764 47.2456 41.8693C47.2456 42.6615 47.9392 43.322 48.7728 43.322H58.1101ZM58.1101 50.0914C58.9785 50.0914 59.6381 49.4309 59.6381 48.6379C59.6381 47.8457 58.9785 47.1852 58.1101 47.1852H48.7728C47.9392 47.1852 47.2456 47.8126 47.2456 48.6056C47.2456 49.4309 47.9392 50.0914 48.7728 50.0914H58.1101Z" fill="white"/>
<path d="M75.9517 52.5672C75.9517 51.7419 75.2921 51.1476 74.4585 51.1476H66.0236L72.7233 44.6762C74.8405 42.5953 75.7429 40.8123 75.7429 38.7652C75.7429 35.0338 72.7929 32.7227 68.9744 32.7227C64.774 32.7227 62.032 35.5295 61.858 38.1709C61.7196 39.0293 62.1356 39.7229 62.9692 39.8222C63.8368 39.9539 64.392 39.5251 64.7392 38.6659C64.8436 36.7182 66.6832 35.4633 68.7657 35.4633C70.9185 35.4633 72.7233 36.9161 72.7233 39.0293C72.7233 40.2842 71.6121 41.7038 70.6401 42.7277L61.7536 51.5441C61.268 51.9405 61.1984 52.5672 61.4064 53.0961C61.5804 53.5911 62.1008 54.0207 62.83 54.0207H74.4585C75.2921 54.0207 75.9517 53.3602 75.9517 52.5672Z" fill="#FFCE00"/>
</svg>
