<?xml version="1.0" encoding="UTF-8"?> <svg xmlns="http://www.w3.org/2000/svg" id="Capa_1" data-name="Capa 1" width="512" height="512" viewBox="0 0 512 512"><defs><style>.cls-1{fill:#2e395a;}</style></defs><title>Монтажная область 1</title><path class="cls-1" d="M149.76,120.76a27.52,27.52,0,1,0,27.51,27.52A27.56,27.56,0,0,0,149.76,120.76Zm0,40a12.51,12.51,0,1,1,12.51-12.51A12.52,12.52,0,0,1,149.76,160.79Z"></path><path class="cls-1" d="M209.34,238.33a27.51,27.51,0,1,0,27.51-27.51,27.54,27.54,0,0,0-27.51,27.51Zm40,0a12.51,12.51,0,1,1-12.51-12.51A12.52,12.52,0,0,1,249.36,238.33Z"></path><path class="cls-1" d="M235.71,124.33a7.51,7.51,0,0,0-10.3,2.58L150.37,252a7.5,7.5,0,0,0,12.87,7.72l75-125.07a7.5,7.5,0,0,0-2.57-10.29Z"></path><path class="cls-1" d="M509.8,433.47l-72.4-72.4a7.5,7.5,0,0,0-10.61,0L419,368.91l-28.82-28.82,7.84-7.84a7.5,7.5,0,0,0,0-10.61l-35.18-35.18A192.21,192.21,0,0,0,379.7,245a194.69,194.69,0,0,0,2-95.41A7.5,7.5,0,1,0,367.12,153a178.46,178.46,0,0,1-300,166.47c-69.55-69.56-69.55-182.74,0-252.29s182.73-69.55,252.29,0a177.48,177.48,0,0,1,37.05,54,7.5,7.5,0,0,0,13.72-6.06,192.38,192.38,0,0,0-40.16-58.52c-75.41-75.4-198.11-75.4-273.51,0s-75.4,198.1,0,273.51A193.82,193.82,0,0,0,286.46,362.8L321.64,398a7.5,7.5,0,0,0,10.61,0l7.84-7.84L368.91,419l-7.84,7.84a7.5,7.5,0,0,0,0,10.61L382.69,459a7.5,7.5,0,1,0,10.61-10.6L377,432.1,432.1,377l67.09,67.1a7.5,7.5,0,0,0,10.61-10.61ZM326.94,382.06l-27.23-27.24a193.39,193.39,0,0,0,55.09-55.13l27.26,27.25Zm23.76-2.54,28.82-28.83,28.82,28.83-28.82,28.82Z"></path><path class="cls-1" d="M418.05,473.16a7.5,7.5,0,0,0-10.61,10.61l26,26a7.5,7.5,0,0,0,10.61-10.6Z"></path><path class="cls-1" d="M60.05,163.55a7.51,7.51,0,0,0-8.63,6.18A143.86,143.86,0,1,0,91.61,91.61a142.61,142.61,0,0,0-29.56,42.84,7.5,7.5,0,1,0,13.69,6.12A128.86,128.86,0,1,1,102.22,284.4a129.19,129.19,0,0,1-36-112.22,7.5,7.5,0,0,0-6.18-8.62Z"></path></svg> 