<?xml version="1.0" encoding="UTF-8"?> <svg xmlns="http://www.w3.org/2000/svg" id="Capa_1" data-name="Capa 1" width="512" height="512" viewBox="0 0 512 512"><defs><style>.cls-1{fill:#242f51;}</style></defs><title>Монтажная область 1</title><path class="cls-1" d="M471.37,33.13h-42.2V24.07a24.07,24.07,0,1,0-48.14,0v9.06h-101V24.07a24.07,24.07,0,1,0-48.14,0v9.06H131V24.07a24.07,24.07,0,1,0-48.14,0v9.06H40.63A40.68,40.68,0,0,0,0,73.76v113.4a7.5,7.5,0,0,0,15,0V131H497V438.23a25.66,25.66,0,0,1-25.63,25.64H40.63A25.66,25.66,0,0,1,15,438.23V217.16a7.5,7.5,0,0,0-15,0V471.37A40.68,40.68,0,0,0,40.63,512H471.37A40.68,40.68,0,0,0,512,471.37V73.77A40.68,40.68,0,0,0,471.37,33.13ZM396,24.07a9.07,9.07,0,1,1,18.14,0V57.2a9.07,9.07,0,1,1-18.14,0Zm-149.1,0a9.07,9.07,0,1,1,18.14,0V57.2a9.07,9.07,0,1,1-18.14,0Zm-149.1,0a9.07,9.07,0,1,1,18.14,0V57.2a9.07,9.07,0,1,1-18.14,0ZM15,116V73.77A25.66,25.66,0,0,1,40.63,48.13h42.2V57.2a24.07,24.07,0,1,0,48.14,0V48.13h101V57.2a24.07,24.07,0,1,0,48.14,0V48.13H381V57.2a24.07,24.07,0,1,0,48.14,0V48.13h42.2A25.66,25.66,0,0,1,497,73.76V116ZM471.37,497H40.63A25.66,25.66,0,0,1,15,471.37v-1.64a40.42,40.42,0,0,0,25.63,9.14H471.37A40.42,40.42,0,0,0,497,469.73v1.64A25.66,25.66,0,0,1,471.37,497Z"></path><path class="cls-1" d="M82.83,438.23a7.5,7.5,0,0,0,7.5,7.5H421.67a7.5,7.5,0,1,0,0-15H90.33a7.5,7.5,0,0,0-7.5,7.5Z"></path><path class="cls-1" d="M66.27,322.27v66.26a7.5,7.5,0,0,0,7.5,7.5H140a7.49,7.49,0,0,0,7.5-7.5V322.27a7.5,7.5,0,0,0-7.5-7.5H73.77A7.5,7.5,0,0,0,66.27,322.27Zm15,7.5h51.26V381H81.27Z"></path><path class="cls-1" d="M165.67,322.27v66.26a7.5,7.5,0,0,0,7.5,7.5h66.26a7.49,7.49,0,0,0,7.5-7.5V322.27a7.5,7.5,0,0,0-7.5-7.5H173.17A7.5,7.5,0,0,0,165.67,322.27Zm15,7.5h51.26V381H180.67Z"></path><path class="cls-1" d="M265.07,322.27v66.26a7.49,7.49,0,0,0,7.5,7.5h66.26a7.49,7.49,0,0,0,7.5-7.5V322.27a7.5,7.5,0,0,0-7.5-7.5H272.57A7.5,7.5,0,0,0,265.07,322.27Zm15,7.5h51.26V381H280.07Z"></path><path class="cls-1" d="M364.47,222.87v66.26a7.5,7.5,0,0,0,7.5,7.5h66.26a7.49,7.49,0,0,0,7.5-7.5V222.87a7.5,7.5,0,0,0-7.5-7.5H372A7.5,7.5,0,0,0,364.47,222.87Zm15,7.5h51.26v51.26H379.47Z"></path><path class="cls-1" d="M364.47,388.53A7.5,7.5,0,0,0,372,396h66.26a7.5,7.5,0,0,0,7.5-7.5V322.27a7.49,7.49,0,0,0-7.5-7.5H372a7.5,7.5,0,0,0-7.5,7.5Zm15-58.76h51.26V381H379.47Z"></path><path class="cls-1" d="M263.5,173.17V156.6a7.5,7.5,0,0,0-15,0v16.57a7.5,7.5,0,0,0,15,0Z"></path><path class="cls-1" d="M329.77,173.17V156.6a7.5,7.5,0,0,0-15,0v16.57a7.5,7.5,0,0,0,15,0Z"></path><path class="cls-1" d="M396,173.17V156.6a7.5,7.5,0,0,0-15,0v16.57a7.5,7.5,0,0,0,15,0Z"></path><path class="cls-1" d="M462.3,173.17V156.6a7.5,7.5,0,1,0-15,0v16.57a7.5,7.5,0,1,0,15,0Z"></path><path class="cls-1" d="M189.73,180.67a7.5,7.5,0,0,0,7.5-7.5V156.6a7.5,7.5,0,0,0-15,0v16.57A7.5,7.5,0,0,0,189.73,180.67Z"></path><path class="cls-1" d="M131,173.17V156.6a7.5,7.5,0,0,0-15,0v16.57a7.5,7.5,0,0,0,15,0Z"></path><path class="cls-1" d="M64.7,173.17V156.6a7.5,7.5,0,0,0-15,0v16.57a7.5,7.5,0,0,0,15,0Z"></path><path class="cls-1" d="M94.63,250.7A7.5,7.5,0,1,0,84,261.3L95.74,273a7.52,7.52,0,0,0,10.61,0l23.42-23.43A7.5,7.5,0,0,0,119.17,239L101,257.11Z"></path><path class="cls-1" d="M183.43,261.3,195.14,273a7.51,7.51,0,0,0,10.6,0l23.43-23.43A7.5,7.5,0,1,0,218.57,239l-18.13,18.13L194,250.7a7.5,7.5,0,0,0-10.61,10.6Z"></path><path class="cls-1" d="M293.43,250.7a7.5,7.5,0,0,0-10.6,10.6L294.54,273a7.52,7.52,0,0,0,10.61,0l23.43-23.43A7.5,7.5,0,0,0,318,239l-18.13,18.13Z"></path></svg> 