<?xml version="1.0" encoding="UTF-8"?> <svg xmlns="http://www.w3.org/2000/svg" id="Capa_1" data-name="Capa 1" width="512" height="512" viewBox="0 0 512 512"><defs><style>.cls-1{fill:#242f51;}</style></defs><title>Монтажная область 1</title><path class="cls-1" d="M293.54,289.77a7.5,7.5,0,0,0,8,12.66A58.44,58.44,0,0,0,316,288.57l3.71,2.23a7.5,7.5,0,0,0,7.72-12.86l-4.61-2.77c.19-.61.36-1.22.52-1.85a26.44,26.44,0,0,0-8.44-26.23c-7-6.2-16.08-8.21-23.78-5.27a58.8,58.8,0,0,0-12.43,6.84L248.91,230.8c2.45-3.15,5-5,9.91-7.37a7.5,7.5,0,0,0-6.53-13.51c-8.26,4-12.47,7.73-16.31,13.12l-4.65-2.8a7.5,7.5,0,1,0-7.73,12.86l5.26,3.16c-4.11,13.06,1.17,26.18,9.75,33.52,11.09,9.48,25.67,9.47,37.16,0,1.23-1,2.49-2,3.77-3.07L303,280.81a44.23,44.23,0,0,1-9.49,9Zm-45.18-31.39a17,17,0,0,1-5.9-13.95l23.4,14.05C257.49,265.09,250.36,260.09,248.36,258.38Zm48.06-2.55c2.42-.92,5.74,0,8.46,2.47a12.16,12.16,0,0,1,4.18,8.63l-15.94-9.57A30.86,30.86,0,0,1,296.42,255.83Z"></path><path class="cls-1" d="M235,322.9a7.5,7.5,0,0,0-10.3,2.56l-10.89,18.15a7.5,7.5,0,1,0,12.86,7.72l10.89-18.14A7.49,7.49,0,0,0,235,322.9Z"></path><path class="cls-1" d="M325.68,186.52l10.9-18.14a7.5,7.5,0,0,0-12.86-7.72l-10.9,18.14a7.5,7.5,0,0,0,12.86,7.72Z"></path><path class="cls-1" d="M258.77,446.12A7.5,7.5,0,1,0,251,459l1.75,1a7.5,7.5,0,0,0,7.73-12.86Z"></path><path class="cls-1" d="M115.1,359.82l-1.75-1a7.5,7.5,0,1,0-7.72,12.86l1.75,1.05a7.5,7.5,0,0,0,7.72-12.87Z"></path><path class="cls-1" d="M435.32,152.16l1.74,1.05a7.5,7.5,0,1,0,7.73-12.86l-1.74-1a7.5,7.5,0,1,0-7.73,12.86Z"></path><path class="cls-1" d="M291.65,65.87A7.5,7.5,0,1,0,299.37,53l-1.74-1a7.5,7.5,0,1,0-7.73,12.86Z"></path><path class="cls-1" d="M414.38,116.39,333.06,67.55a7.51,7.51,0,0,0-10.29,2.57A37.75,37.75,0,0,1,271,83a7.5,7.5,0,0,0-10.29,2.57L118,323.27a7.49,7.49,0,0,0,2.57,10.29,37.75,37.75,0,0,1,12.91,51.74A7.5,7.5,0,0,0,136,395.59l81.31,48.84a7.51,7.51,0,0,0,10.3-2.56A37.71,37.71,0,0,1,279.39,429a7.5,7.5,0,0,0,10.29-2.57l28.2-46.95A7.5,7.5,0,1,0,305,371.71l-24.61,41A52.75,52.75,0,0,0,219.1,428l-69.36-41.66a52.83,52.83,0,0,0-15.3-61.3L270,99.3A52.83,52.83,0,0,0,331.31,84l69.37,41.67A52.83,52.83,0,0,0,416,187L320.46,346a7.5,7.5,0,0,0,12.86,7.72l99.1-165a7.49,7.49,0,0,0-2.56-10.29A37.74,37.74,0,0,1,417,126.69a7.51,7.51,0,0,0-2.57-10.3Z"></path><path class="cls-1" d="M471.19,218.67l-9.82-18.79,30.91-51.46a17.93,17.93,0,0,0-6.13-24.57l-121-72.7A7.5,7.5,0,0,0,357.38,64l121,72.7a2.9,2.9,0,0,1,1,4l-210,349.74a2.9,2.9,0,0,1-4,1L72,375.28a2.91,2.91,0,0,1-1-4L281.05,21.56a2.92,2.92,0,0,1,4-1l46.33,27.83a7.7,7.7,0,0,0,10.44-2.21,7.51,7.51,0,0,0-2.44-10.49l-46.61-28a17.93,17.93,0,0,0-24.57,6.14L237.28,65.3l-21.2.16A361.22,361.22,0,0,0,60.27,102.3a7.5,7.5,0,1,0,6.62,13.47,346.19,346.19,0,0,1,149.3-35.31l12-.09L128,247.29a43.27,43.27,0,0,1-21.69,18.16,10.48,10.48,0,0,1-9.3-.77,10.1,10.1,0,0,1-3-14.14l24.39-36.4a11.16,11.16,0,0,0-13.69-16.46L67,213.89c-8.84,3.8-19.05-2.56-19.78-12a13.7,13.7,0,0,1,3.91-10.76L72.8,168.93a10.41,10.41,0,0,0-11.31-17L31.38,164c-8.13,3.26-17-3.47-16.34-11.92a11.56,11.56,0,0,1,5.19-8.66c6.22-4.39,12.79-8.69,19.55-12.81A7.67,7.67,0,0,0,43,121.07a7.5,7.5,0,0,0-10.76-3.39c-11.51,7-18.75,12.23-21.07,13.81A26.31,26.31,0,0,0,.09,150.89C-1.5,170.39,18.47,185.36,37,178l10-4-6.49,6.65A28.87,28.87,0,0,0,32.3,203c1.51,19.71,22.4,32.52,40.66,24.66L98.69,216.6,81.54,242.19a25,25,0,0,0-2.82,22.32,24.53,24.53,0,0,0,7.73,11,24.76,24.76,0,0,0,21.54,5l-49.85,83a17.94,17.94,0,0,0,6.13,24.57L257.65,504.28a17.89,17.89,0,0,0,24.57-6.13l49.83-83a25.09,25.09,0,0,0,46.33,5.29l14.54-27.16,2.31,27.91c1.68,20.2,23.1,32.08,40.87,24.31a28.92,28.92,0,0,0,15.95-17.7l2.82-8.85c.41,3.78.81,7.43,1.16,10.67,2.12,19.57,24.56,30.5,41.21,19.83a26.31,26.31,0,0,0,11.92-18.91c-.22-8.39,18.62-103.66-38-211.91Zm23.09,210.05a11.37,11.37,0,0,1-14.67,9.42c-.1-.07-7.78-1.93-8.67-10.1-1-9.48-2.44-22.49-3.51-32.24a10.41,10.41,0,0,0-20.27-2l-9.4,29.52c-4.63,14.53-26.33,11.78-27.58-3.3l-3.38-40.87a11.17,11.17,0,0,0-21-4.35L365.15,413.4a10.08,10.08,0,0,1-14.4,3.68,10.42,10.42,0,0,1-4.53-7.5v0a43.3,43.3,0,0,1,5.84-27.68L452.32,215l5.58,10.67c54.6,104.46,36.23,197.4,36.38,203.1Z"></path><path class="cls-1" d="M109.1,147.08c.36-.23,37-23,71.27-14.26a7.5,7.5,0,1,0,3.69-14.54c-40.45-10.26-81.24,15-83,16.1a7.5,7.5,0,0,0,8,12.7Z"></path><path class="cls-1" d="M422.75,281a7.5,7.5,0,0,0-2.29,10.36c18.92,29.63,9,71.6,8.87,72.16a7.5,7.5,0,0,0,14.57,3.59c.48-2,11.66-48.65-10.79-83.82A7.5,7.5,0,0,0,422.75,281Z"></path></svg> 