<?xml version="1.0" encoding="UTF-8"?> <svg xmlns="http://www.w3.org/2000/svg" id="icons" width="512" height="512" viewBox="0 0 512 512"><defs><style>.cls-1{fill:#242f51;}</style></defs><title>Монтажная область 1</title><path class="cls-1" d="M480,0H144a16,16,0,0,0-16,16V128h16V16h64V48H168a8,8,0,0,0-8,8v72h16V64h32V80a16,16,0,0,0,16,16H400a16,16,0,0,0,16-16V64h32V256h16V56a8,8,0,0,0-8-8H416V16h64V496H144V448H128v56a8,8,0,0,0,8,8H480a16,16,0,0,0,16-16V16A16,16,0,0,0,480,0ZM400,80H224V16H400Z"></path><path class="cls-1" d="M464,272H448V384H368a8,8,0,0,0-8,8v72H176V448H160v24a8,8,0,0,0,8,8H368a8,8,0,0,0,1.1-.07l.24,0,.12,0a.76.76,0,0,0,.16,0,.65.65,0,0,0,.2-.05h.07c.21-.06.43-.11.65-.19h0c.22-.08.45-.16.66-.26h0a5.46,5.46,0,0,0,.64-.32h0l.29-.17.12-.08.19-.13.1-.07.2-.15.18-.14.12-.09.28-.25,88-80a4.59,4.59,0,0,0,.39-.37l.1-.11.31-.36.05-.06c.11-.14.22-.28.31-.42a.94.94,0,0,0,.09-.12l.23-.36.06-.11a3.88,3.88,0,0,0,.24-.45l.06-.13c.06-.12.12-.25.17-.38l.06-.13c.06-.16.12-.33.17-.5l0-.07c.05-.15.09-.31.13-.46a.27.27,0,0,1,0-.12,9.36,9.36,0,0,0,.17-1.06v-.13l0-.45V272ZM376,400h59.3l-38.84,35.32L376,453.91Z"></path><path class="cls-1" d="M240,40h16V56H240Z"></path><path class="cls-1" d="M368,40h16V56H368Z"></path><path class="cls-1" d="M408,128H224a8,8,0,0,0-8,8v32h16V144H400V256H280v16H408a8,8,0,0,0,8-8V136A8,8,0,0,0,408,128Z"></path><path class="cls-1" d="M272,304h88v16H272Z"></path><path class="cls-1" d="M376,304h48v16H376Z"></path><path class="cls-1" d="M248,352h88v16H248Z"></path><path class="cls-1" d="M352,352h72v16H352Z"></path><path class="cls-1" d="M208,400H344v16H208Z"></path><path class="cls-1" d="M272,40h80V56H272Z"></path><path class="cls-1" d="M144,432a8,8,0,0,0,4.8-1.6l35.3-26.48a199.27,199.27,0,0,0,77-125.24l10.82-61.29a8,8,0,0,0-4.11-8.45l-120-64a8,8,0,0,0-7.53,0l-120,64a8,8,0,0,0-4.11,8.45l10.73,60.86a199.43,199.43,0,0,0,76,124.51l36.35,27.62A8,8,0,0,0,144,432ZM42.61,275.46l-9.72-55.13L144,161.06l111.11,59.27L245.3,275.9a183.34,183.34,0,0,1-70.8,115.22L144,414,112.5,390A183.51,183.51,0,0,1,42.61,275.46Z"></path><path class="cls-1" d="M174.68,374a148.31,148.31,0,0,0,57.26-93.17l7.93-44.95a8,8,0,0,0-4.11-8.45l-40-21.34-7.52,14.12,34.89,18.62L216.18,278a132.36,132.36,0,0,1-51.09,83.17L144,377l-21.84-16.6a132.46,132.46,0,0,1-50.44-82.67l-6.87-38.92,34.89-18.61L92.24,206l-40,21.34a8,8,0,0,0-4.11,8.44L56,280.45a148.44,148.44,0,0,0,56.52,92.64l26.66,20.25A8,8,0,0,0,144,395a8,8,0,0,0,4.8-1.6Z"></path><path class="cls-1" d="M144,196.58l28.25,15.06,7.53-14.12-32-17.07a8,8,0,0,0-7.53,0l-32,17.06,7.53,14.12Z"></path><path class="cls-1" d="M135.7,320h.3a8,8,0,0,0,6-2.73l56-64-12-10.53-49.51,56.57L118.4,275.2l-12.8,9.6,24,32a8,8,0,0,0,6.1,3.2Z"></path><path class="cls-1" d="M136,224h16v16H136Z"></path><path class="cls-1" d="M136,336h16v16H136Z"></path></svg> 