<?xml version="1.0" encoding="UTF-8"?> <svg xmlns="http://www.w3.org/2000/svg" id="Слой_1" data-name="Слой 1" width="511" height="511" viewBox="0 0 511 511"><defs><style>.cls-1{fill:#242f51;}</style></defs><title>Монтажная область 1</title><path class="cls-1" d="M102.41,315.36c1.38,0-15.38,4,291.44-71.34a7.58,7.58,0,0,0-3.61-14.73L100.6,300.41C92,302.54,93.52,315.36,102.41,315.36Z"></path><path class="cls-1" d="M156.29,100.46a28,28,0,0,0-21.36-3.27L63.17,114.81A28.22,28.22,0,0,0,42.48,149l8.86,36.1a28.23,28.23,0,0,0,34.15,20.68l71.77-17.62A28.22,28.22,0,0,0,177.94,154C168.81,116.79,169,108.16,156.29,100.46ZM81.88,191a13.06,13.06,0,0,1-15.81-9.57l-8.86-36.1a13.06,13.06,0,0,1,9.57-15.8l19-4.68c15.88,64.67,14.8,60.51,15.19,61.46Zm18.65-69.76c41.38-10.16,39-9.72,41.16-9.72a13.06,13.06,0,0,1,12.66,10l2.3,9.38L106,143.32Zm61.17,46.22a13,13,0,0,1-8.06,5.92l-38.1,9.35c-.1-1,.2.47-6-24.69l50.71-12.46C163,156.67,165.29,161.54,161.7,167.47Z"></path><path class="cls-1" d="M78.14,250.44a7.58,7.58,0,0,0-5.55,9.17l3.67,15A7.58,7.58,0,0,0,91,271l-3.68-15A7.57,7.57,0,0,0,78.14,250.44Z"></path><path class="cls-1" d="M109.23,274.29a7.57,7.57,0,0,0,5.55-9.17l-3.67-15a7.58,7.58,0,0,0-14.73,3.62l3.68,15A7.58,7.58,0,0,0,109.23,274.29Z"></path><path class="cls-1" d="M133,268.45a7.58,7.58,0,0,0,5.55-9.18l-3.68-15a7.58,7.58,0,0,0-14.72,3.61l3.68,15A7.58,7.58,0,0,0,133,268.45Z"></path><path class="cls-1" d="M155,262.83a7.59,7.59,0,0,0,7.37-9.4l-3.68-15A7.58,7.58,0,0,0,144,242.08l3.67,15A7.59,7.59,0,0,0,155,262.83Z"></path><path class="cls-1" d="M202.6,251.14a7.59,7.59,0,0,0,7.37-9.39l-3.67-15a7.58,7.58,0,1,0-14.73,3.62l3.67,15A7.59,7.59,0,0,0,202.6,251.14Z"></path><path class="cls-1" d="M220.92,215.38a7.59,7.59,0,0,0-5.56,9.17l3.68,15a7.58,7.58,0,0,0,14.73-3.62l-3.68-15A7.58,7.58,0,0,0,220.92,215.38Z"></path><path class="cls-1" d="M244.72,209.54a7.57,7.57,0,0,0-5.56,9.17l3.68,15a7.58,7.58,0,0,0,14.72-3.62l-3.67-15A7.58,7.58,0,0,0,244.72,209.54Z"></path><path class="cls-1" d="M268.51,203.69a7.58,7.58,0,0,0-5.55,9.17l3.67,15a7.58,7.58,0,1,0,14.73-3.62l-3.68-15A7.57,7.57,0,0,0,268.51,203.69Z"></path><path class="cls-1" d="M316.71,191.86a7.58,7.58,0,0,0-5.55,9.17l3.67,15a7.58,7.58,0,0,0,14.73-3.62l-3.67-15A7.58,7.58,0,0,0,316.71,191.86Z"></path><path class="cls-1" d="M340.51,186a7.59,7.59,0,0,0-5.56,9.17l3.68,15a7.58,7.58,0,0,0,14.73-3.61l-3.68-15A7.57,7.57,0,0,0,340.51,186Z"></path><path class="cls-1" d="M364.31,180.17a7.58,7.58,0,0,0-5.56,9.17l3.68,15a7.58,7.58,0,1,0,14.72-3.62l-3.67-15A7.58,7.58,0,0,0,364.31,180.17Z"></path><path class="cls-1" d="M395.39,204a7.58,7.58,0,0,0,5.56-9.17l-3.68-15a7.58,7.58,0,0,0-14.72,3.62l3.67,15A7.58,7.58,0,0,0,395.39,204Z"></path><path class="cls-1" d="M373.9,102.74,352.05,80a16.71,16.71,0,0,0-16-4.67l-28.91,7.1c-1.34-2.28-.12-.79-24.17-25.87a16.73,16.73,0,0,0-16-4.66l-30.66,7.53A16.73,16.73,0,0,0,224.2,70.94l-8.81,30.31a16.74,16.74,0,0,0,4,16.22l21.84,22.79a16.74,16.74,0,0,0,16,4.65l28.91-7.09c1.38,2.34.24.91,24.17,25.87a16.73,16.73,0,0,0,16,4.66L357,160.82a16.73,16.73,0,0,0,12.05-11.55L377.88,119A16.72,16.72,0,0,0,373.9,102.74ZM294.21,91.29c-9.56,32.9-8.72,31.07-9.92,31.37-32.19,7.9-31.15,8.11-32.12,7.1C228.44,105,229.61,106.67,230,105.48c9.57-32.91,8.72-31.08,9.92-31.37C272.05,66.21,271,66,272,67,295.72,91.76,294.55,90.1,294.21,91.29ZM354.51,145c-.35,1.22,1.22.5-31.76,8.59a1.55,1.55,0,0,1-1.47-.42c-23.72-24.74-22.56-23.09-22.21-24.28,9.47-32.61,8.69-31.07,9.92-31.37.27-.07,30.73-7.57,31-7.57,1,0-.37-1.07,23,23.26C363.92,114.25,363.77,113.2,354.51,145Z"></path><path class="cls-1" d="M473.22,238.45l-26.68-6.29c0-17.86,8.43,20.53-44.2-193.79A48.88,48.88,0,0,0,354.78,1c-8.5,0,9.35-3.75-281.66,67.71a7.58,7.58,0,1,0,3.61,14.73c291.87-71.67,272.15-67.28,278-67.28A33.77,33.77,0,0,1,387.62,42l43.16,175.8A33.78,33.78,0,0,1,406,258.72L100.28,333.78A33.79,33.79,0,0,1,59.33,309C12.5,118.25,15.18,130.91,15.18,125.09A33.75,33.75,0,0,1,41,92.26l6.32-1.55A7.58,7.58,0,0,0,43.66,76l-6.31,1.54A48.93,48.93,0,0,0,1.44,136.81l43.17,175.8A48.9,48.9,0,0,0,74,346.45L71.1,358.6h0l-4.77,20.23a49,49,0,0,0,36.45,58.95L409.17,510a49,49,0,0,0,59-36.45l4.77-20.23h0l16-67.9,20.77-88.06A49,49,0,0,0,473.22,238.45Zm21.7,55.47L474.15,382l-131-30.89a7.58,7.58,0,1,0-3.49,14.76l131,30.89-9.05,38.38L154.12,362.6a7.58,7.58,0,0,0-3.49,14.76l307.51,72.52-4.78,20.22a33.82,33.82,0,0,1-40.71,25.18L106.27,423A33.81,33.81,0,0,1,81.1,382.31l4.77-20.23c38.65,9.12,35.73,8.52,37,8.52,8.94,0,10.46-12.91,1.74-15l-26-6.12c3.75-.49-2.2.84,84.78-20.52l126.74,29.89a7.58,7.58,0,1,0,3.48-14.76l-97.84-23.07,73.36-18c162.11,38.23,152.38,36,153.65,36,8.93,0,10.44-12.89,1.73-15l-123-29,51.78-12.71c45.59,10.75,42.62,10.14,43.88,10.14,8.93,0,10.46-12.91,1.74-15l-13.25-3.12,3.94-1a49,49,0,0,0,32.7-26.71l27.45,6.47A33.83,33.83,0,0,1,494.92,293.92Z"></path><path class="cls-1" d="M112.63,399.09a7.58,7.58,0,0,0,5.63,9.12c307,72.41,290.66,68.66,292,68.66a7.59,7.59,0,0,0,1.73-15L121.75,393.45A7.58,7.58,0,0,0,112.63,399.09Z"></path></svg> 