<?xml version="1.0" encoding="UTF-8"?> <!-- Generator: Adobe Illustrator 21.1.0, SVG Export Plug-In . SVG Version: 6.00 Build 0) --> <svg xmlns="http://www.w3.org/2000/svg" xmlns:xlink="http://www.w3.org/1999/xlink" id="Layer_1" x="0px" y="0px" viewBox="0 0 334.2 120" style="enable-background:new 0 0 334.2 120;" xml:space="preserve"> <style type="text/css"> .st0{fill:#1C1715;} .st1{fill:#C8967A;} .st2{fill:#845A43;} .st3{fill:#DDA783;} .st4{fill:#C8916B;} .st5{fill:#784E35;} .st6{fill:#432B1F;} .st7{fill:#452E21;} .st8{fill:#A47557;} </style> <g> <g> <path class="st0" d="M192.9,61.5l-8-19.9l5.5-1.3c0.9-0.2,1.5-1,1.5-1.9l-0.2-14.2c0-0.2,0-0.3-0.1-0.5c0-0.1-0.1-0.3-0.1-0.4 c-0.1-0.3-0.3-0.6-0.6-0.9l-7-5.6c-0.6-0.5-1.5-0.6-2.2-0.1l-14.1,8.6l-18.5-2.3c-0.1,0-0.2,0-0.3,0c0,0-0.1,0-0.1,0 c-0.1,0-0.2,0-0.4,0l-18.4,2.3l-14.1-8.6c-0.7-0.4-1.6-0.4-2.2,0.1l-7,5.6c-0.3,0.2-0.5,0.5-0.6,0.9c-0.1,0.1-0.1,0.3-0.1,0.4 c-0.1,0.2-0.1,0.3-0.1,0.5l-0.2,14.2c0,0.9,0.6,1.7,1.5,1.9l5.5,1.3l-8,19.9c-0.1,0.3-0.2,0.6-0.1,1c0,0.1,0,0.3,0.1,0.4 c0,0.1,0.1,0.3,0.1,0.4l8.5,21.4c0.1,0.2,0.2,0.4,0.3,0.6c0.1,0.2,0.3,0.3,0.4,0.4c0.1,0.1,0.1,0.2,0.2,0.2l19.5,15.9 c0.1,0,0.1,0.1,0.2,0.1c0,0,0.1,0.1,0.1,0.1l13.8,9.8c0.3,0.2,0.7,0.3,1.1,0.3c0.4,0,0.8-0.1,1.1-0.3l13.7-9.8 c0,0,0.1-0.1,0.1-0.1c0,0,0.1-0.1,0.2-0.1l19.5-15.9c0.1-0.1,0.2-0.1,0.2-0.2c0.1-0.1,0.3-0.2,0.4-0.4c0.1-0.2,0.3-0.4,0.3-0.6 l8.5-21.4c0.1-0.1,0.1-0.3,0.1-0.4c0-0.1,0.1-0.3,0.1-0.4C193,62.1,193,61.8,192.9,61.5z M134.5,100.9 C134.5,100.9,134.5,100.9,134.5,100.9L134.5,100.9L134.5,100.9z"></path> <polygon class="st0" points="133.6,54.9 137.6,51.8 127.3,49 "></polygon> <polygon class="st0" points="163.8,54.9 170.2,49 159.8,51.8 "></polygon> <polygon class="st0" points="148.7,78.8 155.4,73.8 142,73.8 "></polygon> <polygon class="st1" points="159.7,80.5 164.3,73.2 156.8,68.5 156.8,73.4 156.9,73.4 156.8,73.4 156.8,73.4 "></polygon> <polygon class="st1" points="156.8,73.4 156.8,73.4 156.9,73.4 "></polygon> <polygon class="st2" points="156.6,67.2 164.4,72.2 163.4,55.5 159.3,52.4 153.1,64.7 "></polygon> <polygon class="st1" points="133.2,73.2 137.8,80.5 140.6,73.4 140.6,73.4 140.6,73.4 140.6,73.4 140.6,68.5 "></polygon> <polygon class="st1" points="140.6,73.4 140.6,73.4 140.6,73.4 "></polygon> <path class="st3" d="M141.3,74.2l-2.9,7.1l10.3,7.5l10.3-7.5l-2.9-7.1l-7.1,5.3c-0.1,0-0.2,0.1-0.3,0.1c-0.1,0-0.2,0-0.3-0.1 L141.3,74.2z"></path> <polygon class="st1" points="145.2,64.4 152.3,64.4 158.5,51.8 148.7,42.1 138.9,51.8 "></polygon> <path class="st4" d="M165.4,73c0,0.1,0,0.1,0,0.1c0,0,0,0.1-0.1,0.1l-5.3,8.5c0,0,0,0,0,0L149,89.8c-0.1,0-0.2,0.1-0.3,0.1 c-0.1,0-0.2,0-0.3-0.1l-10.9-8c0,0,0,0,0,0l-5.3-8.5c0,0,0-0.1-0.1-0.1c0,0,0-0.1,0-0.1l0.9-16l-12.4,19.2l28.1,21.6l28.1-21.6 L164.4,57L165.4,73z"></path> <polygon class="st5" points="138.2,51.2 147,42.4 127.8,48.4 "></polygon> <polygon class="st2" points="140.8,67.2 144.3,64.7 138.2,52.4 134,55.5 133.1,72.2 "></polygon> <polygon class="st6" points="188.4,23.8 182.4,18.9 170,26.4 "></polygon> <polygon class="st0" points="168.9,27.5 182,39.5 188.8,24.7 "></polygon> <polygon class="st5" points="181.4,40.3 168.5,28.5 171.6,47.6 "></polygon> <polygon class="st7" points="182.9,39.6 189.3,38.2 189.1,26.1 "></polygon> <polygon class="st3" points="155.9,67.9 152.4,65.3 145,65.3 141.5,67.9 141.5,73.1 155.9,73.1 "></polygon> <polygon class="st8" points="167.5,27.6 150,25.4 170.6,47 "></polygon> <polygon class="st1" points="148.7,41 148.8,41 148.8,41 169.7,47.4 148.7,25.4 127.7,47.4 148.7,41 "></polygon> <polygon class="st7" points="162.4,99.6 179.5,85.7 150.4,98.2 "></polygon> <polygon class="st2" points="181.6,83.7 177.3,77 151.8,96.5 "></polygon> <polygon class="st0" points="136.1,100.4 148.7,109.3 161.3,100.4 148.7,98.9 "></polygon> <polygon class="st7" points="182.2,82.9 189.6,64.2 178,76.4 "></polygon> <polygon class="st7" points="135,99.6 147,98.2 118,85.7 "></polygon> <polygon class="st2" points="145.6,96.5 120.1,77 115.8,83.7 "></polygon> <polygon class="st5" points="177.5,75.6 190.1,62.4 164.9,56 "></polygon> <polygon class="st8" points="171.6,48.8 164.8,55 190.2,61.5 181.9,41 "></polygon> <polygon class="st5" points="169.6,48.4 150.4,42.4 159.2,51.2 "></polygon> <polygon class="st6" points="127.4,26.4 115,18.9 109,23.8 "></polygon> <polygon class="st7" points="108.3,26.1 108.2,38.2 114.5,39.6 "></polygon> <polygon class="st5" points="116,40.3 125.8,47.6 128.9,28.5 "></polygon> <polygon class="st8" points="147.5,25.4 130,27.6 126.9,47 "></polygon> <polygon class="st0" points="108.7,24.7 115.5,39.5 128.5,27.5 "></polygon> <polygon class="st7" points="119.4,76.4 107.8,64.2 115.2,82.9 "></polygon> <polygon class="st5" points="107.4,62.4 120,75.6 132.6,56 "></polygon> <polygon class="st8" points="132.6,55 125.9,48.7 115.5,41 107.3,61.5 "></polygon> </g> <g> <path class="st0" d="M50.5,53.8c0,6.9-3.9,11-10.6,11h-3.4v11.1h-5.8v-33h9.2C46.6,42.8,50.5,46.8,50.5,53.8z M44.5,53.8 c0-3.6-1.6-5.5-4.7-5.5h-3.3v11h3.3C43,59.2,44.5,57.4,44.5,53.8z"></path> <path class="st0" d="M72.5,42.8l-7.8,25.5c-2,6.5-4.5,8.1-10,8.1h-1.2v-5.2h1.4c2.5,0,3.6-0.9,4.7-4.6l-8.3-23.7h6.1l4.7,14.8 l4.3-14.8H72.5z"></path> <path class="st0" d="M73.9,65.9V52.7c0-6.8,3.7-10.6,9.9-10.6c6.3,0,9.9,3.7,10.2,10.5h-5.8c-0.2-3.4-1.6-4.9-4.4-4.9 c-2.4,0-3.9,1.6-3.9,5v13.2c0,3.3,1.5,4.9,3.9,4.9c2.9,0,4.3-1.5,4.5-4.8h5.8c-0.2,6.7-4,10.4-10.3,10.4 C77.7,76.4,73.9,72.7,73.9,65.9z"></path> </g> <path class="st0" d="M224.7,66.2c0,6.2-4.7,10-10.7,10c-6.7,0-10.5-4.9-10.8-10.4h5.9c0.1,2.4,1.6,4.8,4.9,4.8 c2.7,0,4.8-1.7,4.8-4.7c0-3.1-1.9-4.8-5.2-4.8h-2.4v-5.1h1.9c3.2,0,4.7-1.5,4.7-4.6c0-2.5-1.3-4.1-3.8-4.1c-3.2,0-4.3,2.2-4.4,5 h-5.8c0.4-6.1,3.7-10.5,10.2-10.5c5.9,0,9.7,3.7,9.7,9.6c0,3.4-1.3,5.6-4.5,6.9C223.4,59.6,224.7,62.5,224.7,66.2z"></path> <path class="st0" d="M241,69.6h-7.7l-1.3,6h-6l8.1-33h6.2l8.1,33h-6L241,69.6z M239.9,64.1l-1.3-6.1c-0.5-2.3-1-5.9-1.3-8.1h-0.1 c-0.3,2.2-0.8,5.9-1.3,8.1l-1.3,6.1H239.9z"></path> <path class="st0" d="M251.5,42.5h5.7v10.8c0,2.7-0.3,7.7-0.7,11.3l0.1,0.1c0.7-1.8,1.5-4.1,2.4-6.1l7-16.1h5.8v33h-5.7V65.3 c0-3.1,0.2-8.5,0.6-12l-0.1-0.1c-0.8,2.3-1.7,4.9-2.7,7.2l-6.7,15.2h-5.8V42.5z"></path> <path class="st0" d="M303.5,42.5v33h-5.7V65.2c0.1-3.9,0.3-7.6,0.5-11.4l-0.2-0.1c-0.9,2.7-2,5.7-3.1,8.7l-2.2,5.9H287l-2.2-5.9 c-1-3-2.1-5.9-3.1-8.7l-0.2,0.1c0.2,3.7,0.3,7.5,0.5,11.4v10.3h-5.7v-33h5.9l5.4,12.9c0.7,1.7,1.8,4.8,2.3,6.1h0.2 c0.4-1.4,1.6-4.4,2.3-6.1l5.3-12.9H303.5z"></path> <rect x="259.4" y="31.1" transform="matrix(0.8918 -0.4524 0.4524 0.8918 13.6037 124.1262)" class="st0" width="13.9" height="5.1"></rect> </g> </svg> 