<?xml version="1.0" encoding="UTF-8"?> <svg xmlns="http://www.w3.org/2000/svg" id="Слой_1" data-name="Слой 1" width="512" height="512" viewBox="0 0 512 512"><defs><style>.cls-1{fill:#fff;}</style></defs><title>Монтажная область 1</title><g id="outline"><path class="cls-1" d="M216,56a32,32,0,1,0,32,32A32,32,0,0,0,216,56Zm0,48a16,16,0,1,1,16-16A16,16,0,0,1,216,104Z"></path><path class="cls-1" d="M456,136H410.3L220.24,17.22a8,8,0,0,0-8.48,0l-192,120A8,8,0,0,0,16,144h0v32a8,8,0,0,0,8,8H48v24a8,8,0,0,0,8,8h8V320H56a8,8,0,0,0-8,8v24H40a8,8,0,0,0-8,8v24H24a8,8,0,0,0-8,8v32a8,8,0,0,0,8,8H272v24a40,40,0,0,0,40,40H456a40,40,0,0,0,40-40V176A40,40,0,0,0,456,136ZM344,152h80v8a8,8,0,0,1-8,8H352a8,8,0,0,1-8-8ZM216,33.43,380.11,136H51.9ZM32,152H280a40,40,0,0,0-7.22,16H32Zm96,200V328a8,8,0,0,0-8-8h-8V216h8a8,8,0,0,0,8-8V184h48v24a8,8,0,0,0,8,8h8V320h-8a8,8,0,0,0-8,8v24Zm96-32H208V216h16ZM192,200V184h48v16Zm0,136h48v16H192Zm56-16h-8V216h8a8,8,0,0,0,8-8V184h16V352H256V328A8,8,0,0,0,248,320ZM112,184v16H64V184ZM80,216H96V320H80ZM64,336h48v16H64ZM48,368H272v16H48ZM32,416V400H272v16Zm448,40a24,24,0,0,1-24,24H312a24,24,0,0,1-24-24V176a24,24,0,0,1,24-24h16v8a24,24,0,0,0,24,24h64a24,24,0,0,0,24-24v-8h16a24,24,0,0,1,24,24Z"></path><path class="cls-1" d="M384,232a80,80,0,1,0,80,80A80,80,0,0,0,384,232Zm0,144a64,64,0,1,1,64-64A64,64,0,0,1,384,376Z"></path><path class="cls-1" d="M384,288a8,8,0,0,1,8,8h16a24,24,0,0,0-16-22.62V264H376v9.38A24,24,0,0,0,384,320a8,8,0,1,1-8,8H360a24,24,0,0,0,16,22.62V360h16v-9.38A24,24,0,0,0,384,304a8,8,0,0,1,0-16Z"></path><rect class="cls-1" x="360" y="448" width="48" height="16"></rect></g></svg> 