<?xml version="1.0" encoding="UTF-8"?> <svg xmlns="http://www.w3.org/2000/svg" id="Слой_1" data-name="Слой 1" width="511" height="511" viewBox="0 0 511 511"><defs><style>.cls-1{fill:#fff;}</style></defs><title>Монтажная область 1</title><path class="cls-1" d="M186.91,307.72H159a7.49,7.49,0,0,0-7.5,7.49v28a7.49,7.49,0,0,0,7.5,7.49h28a7.49,7.49,0,0,0,7.49-7.49v-28A7.49,7.49,0,0,0,186.91,307.72Zm-7.49,28h-13v-13h13Z"></path><path class="cls-1" d="M240.67,307.72h-28a7.49,7.49,0,0,0-7.49,7.49v28a7.49,7.49,0,0,0,7.49,7.49h28a7.49,7.49,0,0,0,7.49-7.49v-28A7.49,7.49,0,0,0,240.67,307.72Zm-7.49,28h-13v-13h13Z"></path><path class="cls-1" d="M294.43,307.72h-28a7.49,7.49,0,0,0-7.49,7.49v28a7.49,7.49,0,0,0,7.49,7.49h28a7.49,7.49,0,0,0,7.49-7.49v-28A7.49,7.49,0,0,0,294.43,307.72Zm-7.5,28H274v-13h13Z"></path><path class="cls-1" d="M186.91,361.94H159a7.49,7.49,0,0,0-7.5,7.49v28a7.49,7.49,0,0,0,7.5,7.49h28a7.49,7.49,0,0,0,7.49-7.49v-28A7.49,7.49,0,0,0,186.91,361.94Zm-7.49,28h-13v-13h13Z"></path><path class="cls-1" d="M240.67,361.94h-28a7.49,7.49,0,0,0-7.49,7.49v28a7.49,7.49,0,0,0,7.49,7.49h28a7.49,7.49,0,0,0,7.49-7.49v-28A7.49,7.49,0,0,0,240.67,361.94Zm-7.49,28h-13v-13h13Z"></path><path class="cls-1" d="M294.43,361.94h-28a7.49,7.49,0,0,0-7.49,7.49v28a7.49,7.49,0,0,0,7.49,7.49h28a7.49,7.49,0,0,0,7.49-7.49v-28A7.49,7.49,0,0,0,294.43,361.94Zm-7.5,28H274v-13h13Z"></path><path class="cls-1" d="M186.91,416.16H159a7.5,7.5,0,0,0-7.5,7.5v28a7.49,7.49,0,0,0,7.5,7.49h28a7.49,7.49,0,0,0,7.49-7.49v-28A7.49,7.49,0,0,0,186.91,416.16Zm-7.49,28h-13v-13h13Z"></path><path class="cls-1" d="M240.67,416.16h-28a7.49,7.49,0,0,0-7.49,7.5v28a7.49,7.49,0,0,0,7.49,7.49h28a7.49,7.49,0,0,0,7.49-7.49v-28A7.49,7.49,0,0,0,240.67,416.16Zm-7.49,28h-13v-13h13Z"></path><path class="cls-1" d="M294.43,416.16h-28a7.49,7.49,0,0,0-7.49,7.5v28a7.49,7.49,0,0,0,7.49,7.49h28a7.49,7.49,0,0,0,7.49-7.49v-28A7.5,7.5,0,0,0,294.43,416.16Zm-7.5,28H274v-13h13Z"></path><path class="cls-1" d="M386.27,180.69V397.4a7.49,7.49,0,0,0,15,0V180.69a7.49,7.49,0,0,0-15,0Z"></path><path class="cls-1" d="M156.43,156.21h70.26a7.49,7.49,0,0,0,0-15H156.43A23.5,23.5,0,0,0,133,164.71V230a23.5,23.5,0,0,0,23.48,23.47H297A23.5,23.5,0,0,0,320.42,230V164.71A23.5,23.5,0,0,0,297,141.23h-42.3a7.49,7.49,0,0,0,0,15H297a8.5,8.5,0,0,1,8.49,8.5V230a8.5,8.5,0,0,1-8.49,8.49H156.43a8.5,8.5,0,0,1-8.49-8.49V164.71A8.5,8.5,0,0,1,156.43,156.21Z"></path><path class="cls-1" d="M423.48,269.51A7.49,7.49,0,0,0,431,262V156.88a27,27,0,0,0-27-27H372.53V101.69A33.75,33.75,0,0,0,338.82,68h-18.4V61.15a19.83,19.83,0,0,0-19.81-19.81H279.5V11.17A10.43,10.43,0,0,0,274,1.81c-6.77-3.51-11.71,2.31-13.3,3.06L254.89.78a9.54,9.54,0,0,0-11.1,0L238,4.87,232.23.78a9.54,9.54,0,0,0-11.1,0l-5.78,4.07L209.57.79a9.52,9.52,0,0,0-11.1,0l-5.78,4.08-3.34-2.36h0c-6.54-4.61-15.48.22-15.48,8.66V41.34h-21.1A19.83,19.83,0,0,0,133,61.15V68H114.56a33.76,33.76,0,0,0-33.72,33.72V402.45a7.5,7.5,0,0,0,15,0V101.69A18.75,18.75,0,0,1,114.56,83H133v25.47a19.83,19.83,0,0,0,19.82,19.81H300.61a19.83,19.83,0,0,0,19.81-19.81V83h18.4a18.75,18.75,0,0,1,18.73,18.73v374.6A18.76,18.76,0,0,1,338.82,495h-7.75V299.89a26.17,26.17,0,0,0-26.14-26.14H143.44a26.17,26.17,0,0,0-26.14,26.14V495h-2.74a18.76,18.76,0,0,1-18.74-18.73V430.42a7.49,7.49,0,1,0-15,0v45.87A33.75,33.75,0,0,0,114.56,510H338.82a33.75,33.75,0,0,0,33.71-33.71V452.56H404a27,27,0,0,0,27-27V290a7.5,7.5,0,1,0-15,0v135.6a12,12,0,0,1-12,12H372.53V144.89H404a12,12,0,0,1,12,12V262A7.5,7.5,0,0,0,423.48,269.51ZM188.85,20.26c7,3.08,11.51-3.12,15.17-5.05l5.77,4.07a9.54,9.54,0,0,0,11.11,0l5.78-4.07,5.78,4.08a9.55,9.55,0,0,0,11.1,0l5.78-4.09c3.68,1.95,8.17,8.15,15.18,5.05V83.46H188.85Zm116.59,88.17a4.84,4.84,0,0,1-4.83,4.83H152.77a4.83,4.83,0,0,1-4.83-4.83V61.15a4.83,4.83,0,0,1,4.83-4.83h21.1V83.46H164.5a7.49,7.49,0,0,0,0,15H288.87a7.49,7.49,0,1,0,0-15H279.5V56.32h21.11a4.84,4.84,0,0,1,4.83,4.83ZM132.29,495V299.89a11.16,11.16,0,0,1,11.15-11.15h161.5a11.16,11.16,0,0,1,11.15,11.15V495Z"></path></svg> 