<?xml version="1.0" encoding="UTF-8"?> <svg xmlns="http://www.w3.org/2000/svg" id="Слой_1" data-name="Слой 1" width="512" height="512" viewBox="0 0 512 512"><defs><style>.cls-1{fill:#fff;}</style></defs><title>Монтажная область 1</title><g id="outline"><path class="cls-1" d="M488,176H424a8,8,0,0,0-7.15,4.42L403.06,208H400V24a8,8,0,0,0-8-8H120a8,8,0,0,0-8,8V56H88a8,8,0,0,0-8,8V80H56a8,8,0,0,0-8,8V208H24a8,8,0,0,0-8,8V456a40,40,0,0,0,40,40H488a8,8,0,0,0,8-8V184A8,8,0,0,0,488,176ZM80,456a24,24,0,0,1-16,22.62V376a8,8,0,0,0-16,0V478.62A24,24,0,0,1,32,456V224H80Zm0-248H64V96H80ZM128,32H384V352H128ZM96,72h16V208H96ZM480,480H88a39.8,39.8,0,0,0,8-24V224h16V360a8,8,0,0,0,8,8H392a8,8,0,0,0,8-8V224h8a8,8,0,0,0,7.15-4.42L428.94,192H480Z"></path><path class="cls-1" d="M256,200a72,72,0,1,0-72-72A72,72,0,0,0,256,200Zm0-16a55.7,55.7,0,0,1-31.92-10,25.14,25.14,0,0,1,13.06-20.15,31.9,31.9,0,0,0,37.72,0A25.16,25.16,0,0,1,287.92,174,55.63,55.63,0,0,1,256,184Zm-16-56a16,16,0,1,1,16,16A16,16,0,0,1,240,128Zm16-56a56,56,0,0,1,45.21,89,41.11,41.11,0,0,0-16.11-19.71,32,32,0,1,0-58.2,0A41,41,0,0,0,210.79,161,56,56,0,0,1,256,72Z"></path><path class="cls-1" d="M224,216a8,8,0,0,0,0,16h64a8,8,0,0,0,0-16Z"></path><path class="cls-1" d="M312,256a8,8,0,0,0-8-8H208a8,8,0,0,0,0,16h96A8,8,0,0,0,312,256Z"></path><path class="cls-1" d="M344,288H296a8,8,0,0,0,0,16h48a8,8,0,0,0,0-16Z"></path><path class="cls-1" d="M264,320H248a8,8,0,0,0,0,16h16a8,8,0,0,0,0-16Z"></path><path class="cls-1" d="M56,320a8,8,0,0,0-8,8v16a8,8,0,0,0,16,0V328A8,8,0,0,0,56,320Z"></path><path class="cls-1" d="M48,264v32a8,8,0,0,0,16,0V264a8,8,0,0,0-16,0Z"></path><path class="cls-1" d="M368,408v48a8,8,0,0,0,8,8h80a8,8,0,0,0,8-8V408a8,8,0,0,0-8-8H376A8,8,0,0,0,368,408Zm16,8h64v32H384Z"></path><path class="cls-1" d="M128,432h40a8,8,0,0,0,0-16H128a8,8,0,0,0,0,16Z"></path><path class="cls-1" d="M184,448H128a8,8,0,0,0,0,16h56a8,8,0,0,0,0-16Z"></path></g></svg> 